<?xml version="1.0" encoding="utf-8"?>
<!-- Generator: Adobe Illustrator 21.1.0, SVG Export Plug-In . SVG Version: 6.00 Build 0)  -->
<svg version="1.1" id="Layer_1" xmlns="http://www.w3.org/2000/svg" xmlns:xlink="http://www.w3.org/1999/xlink" x="0px" y="0px"
	 viewBox="0 0 432 576" style="enable-background:new 0 0 432 576;" xml:space="preserve">
<style type="text/css">
	.st0{fill:#FFFFFF;}
</style>
<title>pluto</title>
<path d="M269.8,272.6c4.5,5,9.5,9.9,13.6,15.5c3,4.2,5.2,9.1,2.2,14.9s-4.9,12.3-7.7,18.3c-1.6,3.4-3.9,6.5-6.3,10.5
	c0.5,0.8,1.2,1.5,2,2c8.9,5.4,14,13.8,18.1,22.8c2.9,6.4,6.1,13.2,6.8,20.1s4.8,13.8,1,21.4c-2.2,4.5-2.9,9.8-3.4,14.9
	c-0.2,2.9,0.9,6.2,2.3,8.8c2.7,5,5.8,9.9,9.2,14.5c6.6,8.8,13.4,17.3,20.3,25.8c2,2.3,4.2,4.3,6.7,5.9c1.3,0.6,2.7,0.8,4.1,0.4
	c17.1-4.3,33.5-2.2,50.2,2.8c14.1,4.2,23.3,13.1,30.3,24.8c6,10,2.9,24.8-7.5,31.8c-6,4.1-12.1,8.2-18.8,11.1
	c-7.9,3.4-16.3,5.2-25.1,3.6c-2.4-0.5-4.8-0.5-7.2,0.1c-8.4,2.6-16.5,1.6-24.6-1.2c-1.9-0.8-3.7-1.7-5.5-2.9
	c-5.5,3.7-10.7,6.9-15.8,10.3c-4.8,3.2-10.5,1.4-15.2,2.7c-8.4,2.4-16.7,2.6-25,2.1c-6.1-0.4-12.7-1.5-16.5-7.7
	c-13.7,8.9-33.5,7.5-44.4-4.4c-6.6-7.3-14.1-14.3-17.7-24c-0.6-1.4-1.4-2.6-2.3-3.8c-17.8,8-35.1,4-52.4-1.1
	c-3.3,10.3-10.6,17.6-19.8,23.3c-9,5.5-18.7,4.1-28.3,2.7c-13.2-1.9-24.2-7.9-33.8-17.4c-12.6-12.6-22.4-26.8-26.8-44.1
	c-2.8-10.8-4-22.5,0.6-33c2.2-5.1,5.1-12,13.2-12.6c3.6-0.3,6.2-2.6,7.6-6.5c1-3,3.3-5.5,3.6-7.9c-3.6-7.5-7.8-14.8-10.6-22.5
	c-3.2-8.6-5.6-17.5-7.3-26.6c-1.1-6.4-0.1-13.2,0.2-19.8c0-0.7,1.4-1.4,2.2-2.1c0.4,1,1.1,2.1,1.1,3.1c-0.2,14.8,2.4,29.5,7.7,43.4
	c2.4,6.4,6.2,12.4,9.7,18.4c0.6,1,2.8,2.1,3.6,1.7c2.1-1,5.1-2.5,5.4-4.2c1.7-9.4,6.9-17.8,14.5-23.6c9.4-7.2,18.8-14.5,30.7-18.2
	c12.1-3.9,23.6-9.8,35.4-14.8c0.8-0.3,1.4-0.9,1.9-1.6c5-11.6,14.3-21.2,16.8-34c0.2-1.7-0.2-3.5-1.2-4.9c-2.8-3.9-5.9-7.6-9.2-11.1
	c-6.1-6.3-5-13.7-3.1-20.8c2.6-9.3,6.4-18.3,9.5-27.5c1.6-4.8,5.7-5.9,9.8-7.1c0.7-0.3,1.3-0.7,1.9-1.3c-3-6.8-5.8-13.3-8.7-19.7
	c-1.8-3.8-2.8-7.2-8.5-8.4c-9.2-1.9-17.3-7.3-23.1-13.6c-14,5.1-27.6,9.9-41.1,15c-10,3.8-19.2,9-26.2,17.4
	c-6.1,7.4-12.5,14.6-18.8,21.8c-4,4.5-7.7,9.5-12.4,13.1c-3.2,2.4-8,4.3-11.8,3.9c-6.6-0.9-10.9-5.9-11.9-12.5
	c-3-19.6,4.5-34.8,20.5-45.8c7.4-5.2,15.2-9.7,23.4-13.5c5.2-2.3,11.4-2.6,17.2-3.2c13.5-1.5,27.1-2.7,40.7-4.1c3-0.3,6-1.5,9.5-2.4
	c-5-4.8-6.8-10.7-7.6-17c-0.7-6.1-1.5-12.2-2.4-19.6c-7-3.7-14.8-9.1-18.7-18.7c-4.9-12-5.5-24,0.5-35.4
	c8.1-15.1,29.4-21.1,51.4-10.7c1.1-3.5,2.1-7,3.2-10.4c3.2-9.9,16.1-18.2,26.6-13C181,52,187.7,39,197.1,27.7
	c6.5-7.7,15.4-10.5,26.1-10.4c14,0.2,27,5,40.5,6.9c5.5,0.8,10.8,3.7,15.9,6.1c5.5,2.7,10.8,5.9,16,9c2.7,1.6,3.2,7.2,1.2,10.2
	c-4.5,6.8-11.8,8.8-19,9.3c-15.9,1-30-4.2-42.2-14.5c-1-0.8-2.2-1.5-3.2-2.2c-6-4.7-12-3.6-16.8,2.3c-3,3.7-6.9,6.6-10.3,9.9
	c-1.2,1.4-2.2,2.8-3.1,4.3c1.4,0.5,2.7,1,4.1,1.5c9.2,3.5,16,10.1,22.6,17c1.3,1.1,2.7,2.1,4.2,2.8c4.4,2.8,9.4,4.9,13.2,8.4
	c6,5.6,11.6,11.5,16.9,17.8c1.4,1.6,1.2,4.5,1.8,6.5l22.9-11.6c0-3.3,0.4-8.3-0.1-13.2c-1.1-11.4,8.9-17.4,17.7-17.8
	c12.5-0.6,20.2,3.8,23.8,15.4c1.8,5.8,1.1,12.7,0.1,18.9c-0.5,3.4,0.7,4.8,2.6,6.1c12.8,8.6,20,27.2,15.7,42.2
	c-3,10.4-8.1,19.9-18.2,25.6c-0.9,0.6-1.6,1.3-2.3,2.2c3.4,4.9,7.1,9.5,10,14.5c3.4,5.9,6.9,11.8,6.8,19c-0.1,5.7,1.4,11.9-0.4,17
	c-2.8,7.8-6.8,15.1-11.9,21.6c-4.3,5.5-10.6,9-17.5,12c-8.9,3.9-17.6,4.5-26.7,4.5c-1.6,0-3.3-0.8-4.8-0.6c-2.2,0.3-4.4,0.8-6.5,1.6
	C273.8,270.8,271.6,271.9,269.8,272.6z M243.8,127.8c-1.3-1.1-2.6-2.4-3.7-3.7c-0.6-0.8-0.2-2.4-0.9-3.2c-5.2-5.8-11-11.2-15.8-17.3
	c-8-10.2-18.9-14.7-31-18c-12.4-3.3-20.3,1.8-20.5,15c-0.2,10.3,1.5,20,6.3,29.3c5.9,11.4,14.5,21.3,25,28.7
	c1.7,1.2,4.4,1.3,6.6,1.3c7.8,0.2,15.6,0.1,23.4,0.2l2.3-8.6c-3.3-3.5-6.6-5.9-8.4-9.1c-2.3-4.3-3.9-8.8-4.8-13.6
	c-0.3-1.7,1.7-4.7,3.4-5.8c1.3-0.8,4.2,0,5.8,1.1c6.1,4.2,9.3,10.1,8.6,17.9c5.6-1.5,6.4-3.1,5-7.7c-0.7-2.2-1-4.5-1.4-6.7l5,9
	l4.6-1.8c-3.9-5.6-9.5-10-9.2-17.6c0.1-1.9,1-3.7,1.6-5.5c2.3,0.8,5.2,0.9,6.8,2.4c2.7,2.8,4.6,6.4,6.7,9.4
	c4.5-4.1,5.2-8.4,1.8-14.3c-5.3-9.1-13.2-15.2-21.1-21.5c-5.9-4.9-13.2-7.9-20.8-8.7c-2.6-0.3-6.2,0.4-7.8,2.1
	c-2.7,2.9-2,6.5,1.6,9.1c1.7,1.2,2.9,3.3,4.8,4.4c8.4,4.8,14.1,12.4,19.9,19.7C240.5,118.2,241.8,123.3,243.8,127.8L243.8,127.8z
	 M315.6,480.3l16.4-10.2l-5-0.3v-0.6l4.8-0.4c-8.6-6.9-16.8-13.7-22.3-23.1c-5.3-9.1-10.9-18-15.9-26.3c-3,5.5-6,12.5-10.3,18.5
	s-10,11.1-15.3,16.5c-0.9,0.9-2.6,1-3.9,1.5c0.6-1.4,1.3-2.7,2.2-3.9c4.1-4.3,9-8,12.4-12.9c4.9-7,8.9-14.5,12-22.4
	c3.2-8.3,6.6-16.4,6.1-25.3c-0.4-5.6-1.4-11.2-2.9-16.7c-1.7-6.5-3-13.4-6.4-18.9c-4.4-7.2-10.5-13.4-16.2-19.8
	c-1.3-1.2-3.1-1.8-4.8-1.6c-7.4,1.3-14.6,4.1-22,4.5c-16.2,0.7-32.4-2.7-47-9.8c-7.9-3.8-15.4-8.5-23.3-12.8
	c-1.1,2.1-2.7,4.3-3.5,6.7c-4.1,12-10.8,22.6-18.6,32.5c-2.6,3.4-5.2,6.8-8.1,9.9c-1.7,1.9-4,3.3-6,4.9l-0.6-0.8l8.6-10.6
	c-1.7,0.1-3.4,0.5-4.9,1.2c-8.5,3.3-17.4,5.7-25.3,10c-7.1,3.8-14.4,7.3-21,12.6c-9.4,7.5-17.2,15.5-22.3,26.1
	c2.3,0,4.7-0.5,6.7,0.1c4.6,1.5,8.9,3.8,13.5,5.4c2.3,0.9,4.7,1.2,7.1,0.9c7.6-1.2,14.9-0.8,21.1,4.3c5.6,4.5,10.6,9.7,13.4,16.4
	c3.2,7.8,6.8,15.6,8.8,23.7c1.5,5.9,0.2,12.4,1.2,18.4c1.9,11.1-0.4,21.8-1.4,33c16.2,2.1,32.9,7.2,50,0.5c-1-2.8-2-5.5-3.1-8.2
	c-3.2-8.5-7-16.9-9.5-25.6c-2.8-9.6-4.6-19.6-6.5-29.5c-1.5-7.5-2.7-15-3.5-22.6c-0.7-7.1-0.6-14.2-1.2-21.3c-0.2-1.8-1-3.4-2.1-4.8
	c-8.1-9.5-8.6-20.6-7.1-32.2c-0.6,11.3,2.2,21.6,9.7,31.8c0-7-0.5-12.9,0.1-18.6c0.6-5.6,2.1-11.1,3.6-16.5
	c1.4-5.1,3.1-10.1,4.7-15.2l1.5,0.5c-0.5,3.2-0.4,6.7-1.7,9.6c-4.5,10.5-5.4,21.6-5.4,32.7c0,12.3,0.7,24.5,2,36.7
	c1.3,12,3.3,23.8,6,35.6c2,8.9,5.5,17.5,8.3,26.2c1.4,4.3,2.6,8.8,4.6,12.9c4,8,7.9,16.2,13,23.5c4.3,6.2,9.4,12.6,15.7,16.5
	c12.2,7.5,25.3,7.2,37.3-0.2c1.2,1.2,2,2.7,3.3,3.4c3.1,1.8,6.3,3.3,9.6,4.4c12.8,4,30.6,2.3,37.2-13.6c0.5-1.3,2.2-2.2,3.3-3.3
	l0-0.1c-0.1,5.8-2.7,10.5-8.4,14.3c2.4,0,3.7,0.4,4.6-0.1c9.6-4.4,18.1-10.1,23.6-19.4c4.6-7.3,5.3-16.4,2-24.4
	c-4.5-11.3-14.5-17.3-25.3-20.5c-12.7-3.8-25.9-5.7-39.3-4.3c-7,0.7-14.2,1-21.1,2.2c-3.9,0.7-7.5,3-11.2,4.5
	c9.5-7.7,21-8.7,32.5-10.2c-23.2-36.2-41.6-74-42.2-118.2c1.2,0.7,2.1,1.8,2.3,3.2c1.7,11,3.1,22,5.2,32.9c1.4,7.4,3.1,15,6.2,21.9
	c5.9,12.9,12.8,25.4,19.4,38c0.6,1.2,2.3,1.8,3.5,2.6c-0.3,4.2,7.1,17.9,10.6,19.5c0.5,0.2,1.2-0.1,1.8-0.1
	c8.1,1.2,16.1,2.6,24.2,3.7c4.9,0.7,9.9,0.9,14.9,1.3c0.1,0.9-0.2,2.4,0.3,2.7c3.1,2,6.8,3.3,9.6,5.6c3.5,2.9,7.6,6,9.1,9.9
	c5,12.9,4.8,25.9-2.3,38.2c15.7,5.5,21.8,4.8,36.5-1c4.1-1.6,8.4-6.6,9.8-11c4.2-13.4,0.5-20.3-11.8-29.2c-3.2-2.3-6.4-4.6-9.6-6.9
	c11.1,2.4,19.9,9.1,23.9,18.8c5.2,12.7,0.3,23.7-11.5,31.5c9.4-0.5,18.3-1.3,26.8-5.7c8.2-4.2,12-11.3,13.1-19.5
	c0.6-4.7-1.6-10-3.3-14.7c-3-8.2-10.3-12-17.5-15.8c6.4,1.2,12.4,3.9,15.9,9.2c7,10.8,10.7,22.5,2.1,36c2.4-1.2,3.5-1.4,4-2
	c6.2-8.3,10.2-17,5.7-27.6c-5-12-15.2-21.1-27.7-24.7c-9.1-2.6-18.5-4.3-28-5c-11.2-1-22.1,1.4-32.6,5.8
	C323.9,476.7,319.8,478.5,315.6,480.3L315.6,480.3z M282.9,298l0.1-2.2c1.5-5.2-2.9-8.1-5.2-11.4c-2.8-4-6.6-8.1-11-10.1
	c-4-1.8-9.2-0.9-14-1.1c0.2,0.2,0.5,0.5,0.7,0.6c6.1,3.5,12.3,7.2,14.8,14.1c0.8,2.2,0,6.7-1.6,7.6c-3.6,2.2-8.2,4.2-12.2,4
	c-8.8-0.4-17.5-1.7-26.1-3.9c-10.3-2.8-20.2-6.5-29.8-11.1c-6-2.9-10.7-8.3-16.1-12.5c-3.3-2.6-6.2-9.9-4-13c3.1-4.1,1.2-7.4,0-11
	c-5.8-0.7-9.6-0.2-11,7c-1.6,7.8-6.2,15-8.2,22.8c-1.7,6.4-3.9,13.8,0.9,19.7c5.3,6.5,10.1,13.3,18.2,17.5
	c9.9,5.1,19.4,11,29.9,15.1c13.4,5.2,27.1,6.3,41.1,5.6c6.2-0.3,12.5-0.4,17.1-5.1c3.9-3.7,7.1-8,9.7-12.8
	C279.3,311.8,283.9,305.8,282.9,298z M97.1,460c-1.3-1.7-2.6-3.5-3.8-5.4c-6-10.7-8.4-22-1.8-33.1c2.3-3.9,0.4-4.8-1.9-5.5
	c-4.2-1.1-8.1-2.9-13-2.7c-6.8,0.3-11.7,2.5-15.2,7.7c-4.8,7-7.5,13.9-5.2,23.2c2,8.1,5.5,14.8,9.4,21.1l5.5-1.8l0.4,0.7l-3.6,2.8
	l3.7,4.3l-0.5,0.6l-5.3-3c-7.4,6-9.2,9.4-10.9,19.5c-3.3,19.7,5.7,30.8,20.6,40.7c7.2,4.7,15.7,7.4,24.3,7.6
	c5.1,0.2,11.3,0.4,15.2-2c6.4-4,8.2-12,9.8-19.2c0.7-3.1,0.1-6.5,0.1-9.8c0-2.8,0.7-5.9-0.3-8.2c-3.5-8.6-7.6-17-11.5-25.5
	c1.3,1,3,1.9,3.9,3.2c5.5,8.4,8.9,18.1,9.9,28.1c0.8,7.3,0.5,14.6-2.1,21.5c-0.8,2.3-2.7,4.2-4.1,6.2l1.4,1.2
	c4.3-4.6,9.3-8.7,12.7-13.9c5.5-8.4,6.9-18.3,7.1-28.2c0.3-12-1-24-3.8-35.7c-3.2-12.7-9.1-23.6-18.7-32c-5.9-5.2-13.9-8-21.4-4.1
	c-6.1,3.1-8.5,9.9-8.5,16.8c0,6.4,2.2,12.4,5.1,18.1C95.6,455.5,96.4,457.7,97.1,460L97.1,460z M195.5,83.4l12.9,4.1
	c-1.9-5.7,0.6-10.2,4.9-11.7c3.6-1.3,8.3,0.5,13,1c-3.6-2.6-7.3-4.5-10-7.4c-5.4-5.7-12.2-6.4-19.2-6.3c-3.2,0.1-5.1,1.8-5.4,6
	c-0.3,5.8,1.9,9.8,6.3,13.3L195.5,83.4c0-0.4,0.2-1.2,0-1.3c-5.9-4-11-9.2-18.4-11.2c-11.4-3.1-21.3,2.7-23,14.5
	c-0.9,6.4-1.3,12.9-1,19.3c0.5,10.5,3.2,20.5,9.4,29.4c1.2,2.1,2.3,4.2,3.2,6.4l-1.2,0.6c-9.9-11.6-14.4-25.4-15.7-40.6l-1.5-1
	L129,117.1c3.4-8.2,13.1-14.2,20.6-22.5c-15.4-9.7-29.9-9.1-43.4,1.4c-9.8,7.6-11.6,18.2-9.2,30c2,10.3,11.2,22.6,19.7,25.8
	l4.4-17.2c-0.9,19.5-6,39.4,9.3,56l8-5.8c-3.7-5.6-1.3-13.6,5.1-16.5c-5,12-5,12-1.8,16c1.4-2.2,2.6-4.3,3.9-6.3
	c1.9-3.1,5.9-4.2,9.1-2.3c0.3,0.2,0.6,0.4,0.8,0.6c-2.2,1-5.1,1.4-6.4,3c-9.3,11.6-22.1,16.3-36,18.5c-9.2,1.4-18.7,1.4-28.1,2.1
	c-5,0.4-10.1,0.2-14.8,1.5c-10,2.7-19.6,6.8-28.4,12.3c-16.2,10.3-25.4,24-24.8,43.7c0.2,5.5,3.3,10.4,8.2,12.9
	c2.2,1.2,7.8-1.3,10.3-3.7c8.2-8.1,15.7-17.1,23.6-25.6c6.3-6.9,11.3-15.3,20-19.5c9.5-4.6,19.1-8.7,28.9-12.6
	c8.8-3.6,18.1-6,26.6-10.3c9.4-4.8,16-13,20.9-22.5c0,1.7,0.6,3.6-0.1,4.9c-1.9,3.7-4.3,7.1-6.5,10.6c6.2,0.9,11.7-0.1,15.6-6.3
	c0.5,6.9-8.3,10.3-18.9,7.8l2.4,2.5l-8.5,3.9c10.4,9,21.6,15.8,35.6,17.9l-7.1,0.7c1.9,3,3.8,5.5,5.1,8.3c3,6.3,6,12.7,8.3,19.3
	c2.6,7.5,5.5,15.1,6.5,22.9c0.7,5.6,2.8,9,7.6,11.2c6.8,3.1,13.7,5.8,20.3,9.3c11.9,6.2,24.6,8,38,7.6c-2.6-6.9-5.8-13.3-7.3-20
	c-1.2-5.4-4.4-8.7-8-12.1c-1.6-1.5-3.3-3-4.8-4.4c-9.5,1-18.9,1.4-28-2.7s-13.4-11.4-16.7-20.4c-3.4-9.3-0.6-17.7,1.2-26.5
	c-0.2,8.1-1.9,15.9,1,24.2c3.1,8.9,7.7,16.2,15.9,19.6c7.7,3.2,16.1,5.9,24.5,4l-8.3-19.1l1.2-0.6c3.9,6.8,6.3,14.2,11.9,20.2
	c8.1,8.6,17.6,11.9,28.6,11.6c2.9-0.1,5.8-2.6,9.5-4.5c-23.6-11.8-35.5-23.8-33.7-33.4c2.4,4.1,4.7,8.4,7.4,12.5s5.8,8,8.7,11.9
	l2.2-2.1l0.3-5.6l4.6,1.3l-3.7,5.5c17.8,13.9,49.2,11,62-0.1l-8.6-7.9l2.8-1.4l5.1,6.9l0.2-1.5l6.1-0.6
	c20.8-17.5,18.1-59.4-13.2-73.8l-6.1,11.2l1.9,2.6c-5.8-0.3-6.4,0.4-8,9.3l-0.4-6c-4.3,1.8-8.3,3.4-12.2,5.2
	c-3.5,1.7-6.9,3.7-10.4,5.5l0.1-0.1c-0.9-0.3-1.8-0.4-2.8-0.4c-9.2,1.2-18.2,1.5-27.1-1.9c-8.1-3.1-9.4-1.7-9.4,7.2c0,0.7,0,1.3,0,2
	c0,5.8,0,11.7,0,17.5c-1.5-3.5-2.5-7.2-3-11c-1.5-10.5-3-21-11.4-28.8c-1.4-1.3-3.1-2.5-4-4.1c-1.9-3.6-3.5-2-5.1,0
	c-1.7,2.1-3.2,4.4-5.5,7.5c2-12.1,17.5-19.1,25-13.8l-13.9,2.6l-0.4,1.9c4.1,2.8,8.5,5.4,12.3,8.6c5.2,4.5,10.9,6.2,17.7,7.6
	c13.8,2.8,26.9,2.1,39.3-3.8c6.9-3.2,13.9-8.2,18.1-14.2s4.9-14.3,6.6-21.7c0.7-3,0.1-6.4,0.1-9.6c2.5,6.1,4.1,12,1.2,18.3
	c-0.8,2.1-0.5,4.4,0.7,6.3c1.4,1.7,4.2,2.2,6,3.1c2.7-2.1,5.7-3.7,7.6-6.1c2.9-3.6,5.4-7.6,7.4-11.8c2.8-5.9,5.6-12.1,4.9-18.7
	c-1-9.1-4.7-17.6-9.5-25.3c-4-6.3-5.9-6.2-10.7-1.1c-8.5,9-26.1,6.9-32.6-6.1c-0.8-1.7-1.8-3.3-2.7-5.1
	c-12.4,4.5-22.8,10.4-27.2,23.6c-3.9,11.8-3.9,24.5,0.1,36.2c-5.8-8.8-7-18.4-5.5-29.5c-2.2,1.8-4.4,3.4-6.8,4.9
	c-6.6,3.7-9.3,10.4-12.5,16.6c-1.1,2.2-2.5,6.1,2.1,7.7c0.8,0.3,1.2,1.9,2.3,3.9c-20.5-11.8-39.9-6.4-59.1,0l-0.3-1.4l18.6-6.7
	c-4.3-4.6-9.2-9.4-13.8-14.5c-11.8-13.3-18.2-28.7-17.2-46.8c0.5-9.1,5.9-16.2,14.6-17.4C187.4,80.9,191.5,82.7,195.5,83.4
	L195.5,83.4z M206.9,30.6c3.3-0.8,5.4-2.1,6.8-1.5c6.3,2.5,12.5,5.3,18.4,8.6c3.6,2,6,6.1,9.6,8c10.7,5.5,21.3,11.5,34.2,10.3
	c6.5-0.6,12.1-2.4,16.6-7.1c2.2-2.4,2-6.1-0.4-8.3c-0.1-0.1-0.3-0.3-0.5-0.4c-11.7-7.7-25-11.7-38.4-15.1
	c-8.6-2.2-17.7-3.2-26.6-4.1c-8.4-0.8-17,0-23.6,6c-4.7,4.4-9.4,8.9-11.8,15.5c-3,8.7-7.3,16.9-11.1,25.6l7.7,4.2
	c1.2-3.5,2.4-6.3,3.2-9.2c1-3.8,3.8-4.3,7.1-4.5c0.6,0,1.3-1.3,1.8-2.1c6.2-8.8,13.5-16.5,23.9-20.5
	C220.2,29.9,213.3,33.3,206.9,30.6L206.9,30.6z M327.5,99.5c-1.8-9.2-2.8-15.6-8.8-21.1c-5.1-4.7-9.9-7.3-16.1-6.2
	c-6.6,1.2-15.3,17.3-13.5,23.9c0.9,3.1,1.4,6.6,3.2,9.1c3.3,4.5,6.9,9.4,11.5,12.3c6.8,4.3,13.1,2.9,17.1-3.4
	C324.2,109.3,325.9,103.3,327.5,99.5L327.5,99.5z M50.9,432.4c-7.1,2.4-12.4,8.6-13.7,16c-2.3,10.8-2.3,21.8,1.9,32.3
	c3,7.5,6.4,15,10,22.2c1.2,2.5,3.5,4.6,6.1,7.9c-5.8-17.4-4.2-31.8,9.5-43.4C56.5,459.2,51,446.4,50.9,432.4z M248.1,274
	c2.7,7.6,4.8,14.4,7.5,21c1.5,3.7,5,0.9,7.4,0.8c1.1,0,2.9-2.8,3-4.4c0.3-5.5-3.2-8.9-7.6-11.5C255.4,278,252.4,276.4,248.1,274z
	 M183.8,270.6l1.5-0.4l-2.7-11.3l-1.6,0.4C179,263.8,182.8,266.9,183.8,270.6L183.8,270.6z"/>
<path d="M82.9,288.6l-10.2,12.9l3.9,0.7l-0.1,0.5H52.7l18.2-21.9l1.4,1L58,301c4.7,0,8.1,0.3,11.5-0.1c1.6-0.2,3.1-1.9,4.3-3.2
	c2.8-3.2,5.3-6.7,8-10L82.9,288.6z"/>
<path d="M8.7,341.1c-0.4-16.9,4.2-30.8,14-42.9c0,0.7-0.2,1.3-0.5,1.9c-7.4,11-12.5,22.7-10.6,36.4C11.8,337.7,10.1,339,8.7,341.1z"
	/>
<path d="M40.5,343.8c1-7.5,1.3-14.9,7.1-20.5c-0.7,4.3-1.5,8.6-2.2,12.9c-0.3,1.1-0.4,2.2-0.4,3.4C45.6,343.7,45.5,343.9,40.5,343.8
	z"/>
<path d="M61,336l11.1,2.8l5.7-18.1l1.4,0.4l-4.7,16.6l3.6,0.6v1H59.5l1.6-3.2L61,336z"/>
<path d="M81.7,317.4H63.4l7.3-12.9l0.9,0.3l-4.9,11.5c5.8-1.5,11.9,2.8,16.1-3.8L81.7,317.4z"/>
<path d="M55.2,305.8l-6.3,12.1l4.9-0.5l0.2,1.1l-7.9,1.7c2.5-5.6,2.1-12,7.8-15.1L55.2,305.8z"/>
<path d="M10.3,342c0.5,0.6,0.9,1.3,1.2,2c0.8,3.4,2,6.9,2.2,10.3c0.1,1.4,0,5.1-2.8,3.6c-0.5-3-1-5.5-1.3-8s-0.3-5.2-0.5-7.8
	L10.3,342z"/>
<path d="M33,312.4c-1.3,3.6-2.5,7.3-3.9,10.9c-0.8,1.9,1.3,4.9-2.2,5.7c-0.7,0.1-1.4,0.1-2.1,0l6.7-17.1L33,312.4z"/>
<path d="M24.8,347.1l4.7-1.4l-6.1,5.5l1.6-19.9l1.6,0.1L24.8,347.1z"/>
<path d="M33.4,307l6.4-11l0.9,0.4l-2.4,9.3L33.4,307z"/>
<path d="M16.5,376.9l-4.6-16.4l1.6-0.5l4.4,16.3L16.5,376.9z"/>
<path d="M61.1,336.1l2.5-15.4l1.4,0.2c-0.8,4.8-1.5,9.6-2.4,14.5c0,0.3-1.1,0.4-1.7,0.5L61.1,336.1z"/>
<path class="st0" d="M264.2,455.7c-1.2-0.9-2.9-1.5-3.5-2.6c-6.6-12.6-13.5-25-19.4-38c-3.1-6.8-4.7-14.5-6.2-21.9
	c-2.1-10.9-3.4-21.9-5.2-32.9c-0.3-1.3-1.1-2.5-2.3-3.2c0.5,44.2,19,82,42.2,118.2c-11.4,1.5-23,2.5-32.5,10.2
	c3.7-1.6,7.3-3.8,11.2-4.5c7-1.2,14.1-1.5,21.1-2.2c13.4-1.4,26.7,0.5,39.3,4.3c10.8,3.3,20.8,9.2,25.3,20.6c3.3,8,2.6,17.1-2,24.4
	c-5.5,9.3-14.1,15-23.6,19.4c-0.9,0.4-2.2,0.1-4.6,0.1c5.7-3.8,8.3-8.4,8.4-14.3c2.5-5.1,2.2-10.2,0.1-16.1v16.2
	c-1.1,1.1-2.7,2-3.3,3.3c-6.6,15.9-24.4,17.6-37.2,13.6c-3.4-1.1-6.6-2.6-9.7-4.4c-1.3-0.7-2.1-2.1-3.3-3.4
	c-12,7.4-25.1,7.7-37.3,0.2c-6.2-3.9-11.4-10.3-15.7-16.5c-5.1-7.3-9-15.5-13-23.5c-2-4.1-3.2-8.6-4.6-12.9
	c-2.9-8.7-6.3-17.3-8.3-26.2c-2.7-11.7-4.7-23.6-6-35.6c-1.3-12.2-2-24.5-2-36.7c0-11.1,0.9-22.2,5.4-32.7c1.2-2.9,1.1-6.4,1.7-9.6
	l-1.5-0.5c-1.6,5-3.4,10.1-4.7,15.2c-1.4,5.5-3,11-3.6,16.5c-0.6,5.7-0.1,11.6-0.1,18.6c-7.4-10.2-10.2-20.4-9.6-31.8
	c-1.5,11.6-1,22.7,7.1,32.2c1.2,1.4,1.9,3,2.1,4.8c0.5,7.1,0.4,14.2,1.2,21.3c0.8,7.6,2.1,15.1,3.5,22.6c1.9,9.9,3.8,19.8,6.5,29.5
	c2.5,8.7,6.3,17.1,9.5,25.6c1,2.7,2,5.4,3.1,8.2c-17.1,6.7-33.8,1.6-50-0.5c1-11.2,3.3-21.9,1.4-33c-1-6,0.3-12.5-1.2-18.4
	c-2.1-8.1-5.6-15.9-8.8-23.7c-2.8-6.7-7.8-11.9-13.4-16.4c-6.2-5.1-13.5-5.5-21.1-4.3c-2.4,0.3-4.8-0.1-7.1-0.9
	c-4.6-1.6-8.9-3.9-13.5-5.4c-2-0.6-4.3-0.1-6.7-0.1c5.2-10.6,12.9-18.6,22.3-26.1c6.6-5.3,13.9-8.8,21-12.6c8-4.2,16.8-6.7,25.3-10
	c1.5-0.8,3.2-1.2,4.9-1.2l-8.7,10.6l0.6,0.8c2-1.6,4.3-3,6-4.9c2.9-3.1,5.5-6.5,8.1-9.9c7.8-9.9,14.4-20.5,18.6-32.5
	c0.8-2.4,2.4-4.5,3.5-6.7c7.9,4.4,15.4,9,23.3,12.8c14.6,7.1,30.8,10.5,47.1,9.8c7.4-0.4,14.6-3.1,22-4.5c1.8-0.2,3.5,0.4,4.8,1.6
	c5.6,6.4,11.8,12.6,16.2,19.8c3.4,5.6,4.7,12.5,6.4,18.9c1.5,5.4,2.5,11,2.9,16.7c0.5,9-2.9,17-6.1,25.3c-3.1,7.9-7.1,15.5-12,22.4
	c-3.4,4.8-8.3,8.5-12.4,12.9c-0.9,1.2-1.7,2.5-2.3,3.9L264.2,455.7z M232.1,490.7c24.5,4.9,35.1,19.6,31.8,44.5
	c5-13.7,3.4-25-7.2-35.5C250.5,493.6,242.1,489,232.1,490.7L232.1,490.7z M279.1,492.4c6.2,2.3,13.2,3.7,18.7,7.4s9.8,9.7,14.4,14.5
	C311.4,502.4,291,489.4,279.1,492.4L279.1,492.4z M259.1,474.2c-11.8-0.9-32.7,5-35.8,9.1L259.1,474.2z"/>
<path class="st0" d="M279.2,205.8c3.5-1.9,6.9-3.9,10.4-5.5c3.9-1.9,8-3.4,12.2-5.2l0.4,6c1.6-8.9,2.2-9.6,8-9.3l-1.9-2.6l6.1-11.2
	c31.2,14.4,33.9,56.4,13.2,73.8l-6.1,0.6l-0.2,1.5l-5.1-6.9l-2.8,1.4l8.6,7.9c-12.8,11.1-44.2,14-62,0.1l3.8-5.5l-4.6-1.3l-0.3,5.6
	l-2.2,2.1c-2.9-4-6-7.8-8.7-11.9s-4.9-8.4-7.3-12.5c-1.8,9.5,10.1,21.6,33.7,33.4c-3.7,1.8-6.6,4.4-9.5,4.5
	c-11.1,0.3-20.6-3-28.6-11.6c-5.6-6-8-13.5-11.9-20.2l-1.2,0.6l8.4,19.1c-8.4,1.9-16.8-0.7-24.5-4c-8.3-3.4-12.8-10.7-15.9-19.6
	c-2.9-8.3-1.2-16.1-1-24.2c-1.9,8.8-4.6,17.3-1.2,26.5c3.3,9,7.7,16.4,16.7,20.4s18.5,3.7,28,2.7c1.5,1.4,3.2,2.8,4.8,4.4
	c3.6,3.4,6.8,6.7,8,12.1c1.5,6.7,4.7,13.1,7.3,20c-13.4,0.3-26-1.4-38-7.6c-6.6-3.4-13.5-6.1-20.3-9.3c-4.8-2.2-6.8-5.6-7.6-11.2
	c-1-7.8-3.8-15.4-6.5-22.9c-2.3-6.6-5.3-12.9-8.3-19.3c-1.3-2.8-3.2-5.2-5.1-8.3l7.1-0.7c-14-2.1-25.2-8.9-35.6-17.9l8.5-3.9
	l-2.4-2.5c10.6,2.4,19.4-0.9,18.9-7.8c-3.8,6.2-9.3,7.2-15.6,6.3c2.2-3.5,4.6-6.9,6.5-10.6c0.7-1.3,0.1-3.3,0.1-4.9l0.1,0.1
	c-2.8-2.4-7-2-9.3,0.8c-0.2,0.3-0.5,0.6-0.7,0.9c-1.2,2.1-2.5,4.1-3.9,6.3c-3.2-4-3.2-4,1.8-16c-6.4,2.9-8.8,10.9-5.1,16.5l-8,5.8
	c-15.3-16.5-10.2-36.4-9.3-56l-4.4,17.2C108.2,148.6,99,136.3,97,126c-2.3-11.8-0.5-22.4,9.2-30c13.6-10.6,28-11.2,43.4-1.4
	c-7.5,8.4-17.3,14.4-20.7,22.6l18.2-17.7l1.5,1c1.3,15.1,5.9,29,15.7,40.6l1.2-0.6c-0.9-2.2-2-4.4-3.2-6.4
	c-6.2-8.8-8.9-18.8-9.4-29.4c-0.3-6.5,0.1-12.9,1-19.3c1.6-11.8,11.6-17.6,23-14.5c7.4,2,12.5,7.2,18.4,11.2c0.2,0.2,0,0.9,0,1.4
	l0,0c-4-0.8-8.1-2.6-11.9-2.1c-8.7,1.2-14.1,8.3-14.6,17.4c-1,18.1,5.3,33.5,17.2,46.9c4.5,5.1,9.4,10,13.8,14.5l-18.6,6.7l0.3,1.4
	c19.3-6.4,38.6-11.8,59.1,0c-1.1-2-1.5-3.6-2.3-3.9c-4.6-1.6-3.2-5.5-2.1-7.7c3.1-6.2,5.8-12.9,12.5-16.6c2.3-1.5,4.6-3.1,6.8-4.9
	c-1.4,11.1-0.2,20.6,5.5,29.5c-4-11.7-4-24.5-0.1-36.2c4.4-13.2,14.8-19.1,27.2-23.6c1,1.8,1.9,3.4,2.7,5.1
	c6.5,13,24.1,15.1,32.6,6.1c4.8-5.1,6.8-5.2,10.7,1.1c4.8,7.7,8.5,16.2,9.5,25.3c0.7,6.5-2.1,12.8-4.9,18.7c-2,4.2-4.5,8.1-7.4,11.7
	c-1.9,2.4-4.9,4-7.6,6.1c-1.8-0.9-4.6-1.4-6-3.1c-1.2-1.9-1.5-4.2-0.7-6.3c3-6.3,1.3-12.2-1.2-18.3c0,3.2,0.6,6.5-0.1,9.6
	c-1.7,7.4-2.5,15.7-6.6,21.7s-11.3,11-18.1,14.2c-12.4,5.9-25.5,6.6-39.3,3.8c-6.8-1.4-12.5-3.1-17.7-7.6c-3.8-3.2-8.2-5.8-12.3-8.6
	l0.4-1.9l13.9-2.6c-7.5-5.3-23,1.7-25,13.8c2.2-3.1,3.8-5.4,5.5-7.5c1.6-1.9,3.2-3.6,5.1,0c0.9,1.6,2.6,2.8,4,4.1
	c8.4,7.8,9.9,18.3,11.4,28.8c0.5,3.8,1.5,7.5,3,11c0-5.8,0-11.7,0-17.5c0-0.7,0-1.3,0-2c0-9,1.3-10.3,9.4-7.2c9,3.4,18,3.2,27.1,1.9
	c0.9,0,1.9,0.1,2.8,0.4l-2.5,4.2l2.9,1.1l-0.2,0.7H276c1.5,0.8,2.3,1,2.4,1.4c0.7,2.1,1.2,4.3,1.5,6.4c0.1,0.7-1,1.6-1.6,2.4l-2-0.6
	l2.3,4.8l1.2-0.4l4.1-13.2L279.2,205.8z M305.9,228.1l-1.5-7.8l3.4-4.1l-0.9-0.8l-5.3,4.2c0.6,1.4,1,2.4,1.5,3.2c1,1.8,2,3.5,3,5.2
	v5.1l3.5-0.9l0.5,1.4l-6.4,2.9l7.8,2.2v-8L305.9,228.1z"/>
<path class="st0" d="M113.1,472c3.9,8.5,8,16.9,11.5,25.5c1,2.4,0.2,5.5,0.3,8.2c0,3.3,0.6,6.7-0.1,9.8c-1.6,7.2-3.4,15.2-9.8,19.2
	c-4,2.5-10.1,2.2-15.2,2c-8.6-0.2-17.1-2.8-24.3-7.6c-14.9-9.9-23.9-21-20.6-40.7c1.7-10,3.5-13.5,10.9-19.5l5.3,3l0.5-0.6l-3.7-4.3
	l3.6-2.8l-0.4-0.7l-5.5,1.8c-3.9-6.3-7.4-13-9.4-21.1c-2.3-9.3,0.4-16.3,5.2-23.2c3.6-5.2,8.4-7.4,15.2-7.7c4.9-0.2,8.8,1.5,13,2.7
	c2.3,0.6,4.2,1.6,1.9,5.5c-6.6,11.1-4.2,22.4,1.8,33.1c1.2,1.9,2.4,3.7,3.8,5.4l-0.1-0.1c-2.9,0-5.7-0.2-8.6-0.1
	c-3.6,0.1-7.3,0.3-10.9,0.5c4.8,1.3,9.4,1.3,14,1.8c3.2,0.5,6.3,1.1,9.4,1.8L113.1,472z M84.1,489.8c-3.6,1.8-5.1,5-3.9,8.6
	c1,3.5,2.6,6.8,4.8,9.8c1.5,1.9,4.4,3.1,6.8,3.5c1.2,0.2,3.8-1.9,4.1-3.2c1.1-6.1,0.7-12-3.8-17c-2.4-2.6-4.9-3.7-8.1-1.5
	L84.1,489.8z"/>
<path class="st0" d="M282.9,298c1,7.7-3.5,13.8-6.7,20c-2.6,4.7-5.8,9-9.7,12.8c-4.6,4.6-11,4.8-17.1,5.1
	c-14.1,0.7-27.7-0.4-41.1-5.6c-10.5-4.1-20-9.9-29.9-15.1c-8.1-4.2-12.9-11-18.2-17.5c-4.8-5.8-2.6-13.3-0.9-19.7
	c2.1-7.8,6.7-15,8.2-22.8c1.5-7.3,5.2-7.8,11-7c1.3,3.6,3.1,6.9,0,11c-2.3,3.1,0.6,10.3,4,13c5.3,4.2,10.1,9.6,16.1,12.5
	c9.6,4.6,19.6,8.3,29.8,11.1c8.5,2.2,17.3,3.6,26.1,3.9c4.1,0.2,8.7-1.8,12.2-4c1.6-1,2.4-5.5,1.6-7.6c-2.5-7-8.7-10.7-14.8-14.1
	c-0.3-0.2-0.5-0.4-0.7-0.6c4.8,0.3,10-0.7,14,1.1c4.3,2,8.2,6.1,11,10.1c2.3,3.3,6.7,6.2,5.2,11.4c-1.7,1.7-3.4,3.3-5.3,4.8
	c-11.4,8.1-24,9.7-37.4,7c-6.1-1.2-12.2-2.7-18.3-4l-0.3,1.5c3.8,0.8,7.7,1.4,11.4,2.5c12.4,3.6,24.8,5.1,36.8-0.8
	C274.5,304.5,278.6,301,282.9,298z M172.9,275.2c1.2,4.4,7.4,7.4,12.2,11.7l1.3-1.3L172.9,275.2z"/>
<path class="st0" d="M315.6,480.3c4.2-1.8,8.3-3.6,12.5-5.4c10.4-4.4,21.4-6.8,32.6-5.8c9.5,0.7,18.9,2.4,28,5
	c12.5,3.6,22.7,12.7,27.7,24.7c4.6,10.5,0.6,19.3-5.7,27.6c-0.5,0.6-1.6,0.8-4,2c8.6-13.6,4.9-25.2-2.1-36
	c-3.5-5.4-9.5-8.1-15.9-9.2c7.2,3.8,14.5,7.6,17.6,15.8c1.8,4.7,4,10,3.3,14.7c-1.1,8.1-4.9,15.3-13.1,19.5
	c-8.4,4.3-17.3,5.2-26.8,5.7c11.8-7.8,16.7-18.8,11.5-31.5c-4-9.8-12.9-16.4-23.9-18.8c3.2,2.3,6.4,4.6,9.6,6.9
	c12.2,8.9,15.9,15.8,11.8,29.2c-1.4,4.3-5.6,9.3-9.8,11c-14.7,5.8-20.8,6.5-36.5,1c7.1-12.4,7.3-25.4,2.3-38.2
	c-1.5-3.9-5.6-7.1-9.1-9.9c-2.8-2.3-6.5-3.6-9.6-5.6c-0.5-0.3-0.2-1.8-0.3-2.7L315.6,480.3z"/>
<path class="st0" d="M155.3,176.3c-4.8,9.5-11.4,17.7-20.9,22.5c-8.4,4.3-17.8,6.7-26.6,10.3c-9.7,4-19.4,8.1-28.9,12.6
	c-8.8,4.2-13.7,12.6-20,19.5c-7.9,8.5-15.4,17.5-23.6,25.6c-2.5,2.4-8.1,4.9-10.3,3.7c-4.9-2.5-8-7.4-8.2-12.9
	c-0.6-19.6,8.7-33.4,24.8-43.6c8.8-5.5,18.4-9.7,28.4-12.3c4.7-1.3,9.9-1.2,14.8-1.5c9.4-0.7,18.8-0.7,28.1-2.1
	c13.9-2.1,26.7-6.9,36-18.5c1.3-1.7,4.2-2.1,6.4-3L155.3,176.3z"/>
<path class="st0" d="M113.1,472l-12.1-8.1l-4-4l0.1,0.1c-0.7-2.3-1.5-4.6-2.5-6.8c-2.9-5.7-5.1-11.7-5.1-18.1
	c0-6.9,2.5-13.6,8.5-16.8c7.5-3.8,15.5-1.1,21.4,4.1c9.7,8.4,15.6,19.4,18.7,32c2.8,11.7,4.1,23.7,3.8,35.7
	c-0.2,9.9-1.6,19.8-7.1,28.2c-3.4,5.2-8.4,9.3-12.7,13.9l-1.4-1.2c1.4-2.1,3.3-4,4.1-6.2c2.5-7,2.9-14.3,2.1-21.5
	c-1-10-4.4-19.7-10-28.1C116.1,473.9,114.4,473.1,113.1,472z"/>
<path class="st0" d="M206.9,30.7c6.5,2.6,13.3-0.8,17.1,5.5c-10.4,4-17.6,11.7-23.9,20.5c-0.5,0.8-1.2,2-1.8,2.1
	c-3.3,0.2-6,0.7-7.1,4.5c-0.8,2.9-2,5.7-3.2,9.2l-7.7-4.2c3.8-8.7,8.1-16.9,11.1-25.6c2.3-6.7,7-11.2,11.8-15.5
	c6.5-6,15.1-6.8,23.6-6c8.9,0.8,17.9,1.8,26.6,4.1c13.3,3.4,26.6,7.4,38.4,15.1c2.6,1.9,3.2,5.6,1.3,8.2c-0.1,0.2-0.2,0.3-0.4,0.5
	c-4.5,4.7-10.1,6.6-16.6,7.1c-12.9,1.1-23.5-4.8-34.1-10.3c-3.6-1.9-6.1-5.9-9.6-8c-5.9-3.3-12.1-6.2-18.4-8.6
	C212.3,28.6,210.1,29.9,206.9,30.7z"/>
<path class="st0" d="M315.8,480.1c-5-0.4-10-0.6-14.9-1.3c-8.1-1.1-16.1-2.5-24.2-3.7c-0.6-0.1-1.3,0.3-1.8,0.1
	c-3.5-1.6-10.9-15.3-10.6-19.5l-0.1,0.1c1.3-0.5,3-0.6,3.9-1.5c5.3-5.3,11-10.4,15.3-16.5s7.3-13,10.3-18.5
	c5,8.2,10.6,17.2,15.9,26.3c5.5,9.4,13.6,16.2,22.3,23.1l-4.8,0.4v0.6l5,0.3l-16.4,10.2L315.8,480.1z"/>
<path class="st0" d="M327.5,99.5c-1.6,3.8-3.4,9.8-6.6,14.7c-4.1,6.3-10.4,7.7-17.1,3.4c-4.6-2.9-8.2-7.8-11.5-12.3
	c-1.8-2.5-2.3-6-3.2-9.1c-1.8-6.6,6.9-22.6,13.5-23.9c6.3-1.2,11.1,1.5,16.1,6.2C324.8,84,325.8,90.3,327.5,99.5z"/>
<path class="st0" d="M50.9,432.4c0.1,14.1,5.7,26.8,13.9,35.1c-13.7,11.5-15.3,26-9.5,43.4c-2.6-3.3-4.9-5.4-6.1-7.9
	c-3.6-7.3-7-14.7-10-22.2c-4.2-10.5-4.2-21.5-1.9-32.3C38.5,440.9,43.7,434.8,50.9,432.4z"/>
<path class="st0" d="M243.8,127.7c-2-4.5-3.3-9.6-6.3-13.3c-5.8-7.3-11.6-14.8-19.9-19.7c-1.8-1.1-3-3.1-4.8-4.4
	c-3.6-2.6-4.3-6.2-1.6-9.1c1.6-1.7,5.2-2.4,7.8-2.1c7.6,0.8,14.8,3.8,20.8,8.7c7.9,6.3,15.8,12.4,21.1,21.5
	c3.4,5.8,2.7,10.1-1.8,14.3c-2.1-3.1-4-6.7-6.7-9.4c-1.5-1.5-4.5-1.7-6.8-2.4c-0.5,1.9-1.5,3.7-1.6,5.5c-0.3,7.5,5.4,12,9.2,17.6
	l-4.6,1.8l-5-9L243.8,127.7z"/>
<path class="st0" d="M195.5,83.5l2.5-0.9c-4.4-3.5-6.6-7.5-6.3-13.3c0.2-4.2,2.2-5.9,5.4-6c7-0.2,13.8,0.6,19.2,6.3
	c2.7,2.9,6.4,4.8,10,7.4c-4.7-0.5-9.4-2.3-13-1c-4.2,1.5-6.8,6-4.9,11.7L195.5,83.5C195.5,83.4,195.5,83.5,195.5,83.5z"/>
<path class="st0" d="M248.1,274c4.3,2.4,7.3,4,10.3,5.8c4.4,2.6,7.9,6,7.6,11.5c-0.1,1.6-1.9,4.4-3,4.4c-2.4,0.1-5.8,3-7.4-0.8
	C252.9,288.4,250.8,281.6,248.1,274z"/>
<path d="M282.9,298c-4.3,3-8.4,6.5-13,8.8c-12,6-24.4,4.5-36.8,0.8c-3.7-1.1-7.6-1.7-11.4-2.5l0.3-1.5c6.1,1.3,12.2,2.8,18.3,4
	c13.4,2.7,26.1,1.1,37.4-7c1.8-1.5,3.6-3.1,5.3-4.8L282.9,298z"/>
<path class="st0" d="M183.7,270.6c-0.9-3.7-4.8-6.9-2.8-11.2l1.6-0.4l2.7,11.2L183.7,270.6z"/>
<path d="M232.1,490.8c10-1.8,18.4,2.8,24.6,9c10.6,10.5,12.2,21.8,7.2,35.5C267.3,510.4,256.7,495.6,232.1,490.8z"/>
<path d="M279.1,492.4c11.9-3,32.3,10,33.1,21.9c-4.5-4.7-8.7-10.7-14.4-14.5S285.2,494.7,279.1,492.4z"/>
<path d="M259.1,474.3l-35.8,9.1C226.4,479.2,247.3,473.4,259.1,474.3z"/>
<path d="M312.4,533.5v-16.2C314.6,523.3,314.9,528.3,312.4,533.5L312.4,533.5z"/>
<path d="M279.2,205.8l4.7,6.5l-4.1,13.2l-1.2,0.4l-2.3-4.8l2,0.6c0.6-0.8,1.7-1.6,1.6-2.4c-0.3-2.2-0.8-4.3-1.5-6.4
	c-0.1-0.4-0.9-0.5-2.4-1.4h3.5l0.2-0.7l-2.9-1.1l2.5-4.2L279.2,205.8z"/>
<path d="M305.9,228.1l5.6,2.5v8l-7.8-2.2l6.4-2.9l-0.5-1.4l-3.5,0.9V228L305.9,228.1z"/>
<path d="M306.1,228c-1-1.7-2-3.4-3-5.2c-0.5-0.9-0.9-1.9-1.5-3.2l5.3-4.2l0.9,0.8l-3.4,4.1l1.5,7.8L306.1,228z"/>
<path d="M83.9,490c3.2-2.3,5.7-1.1,8.1,1.5c4.5,5,4.9,10.9,3.8,17c-0.2,1.4-2.9,3.4-4.1,3.2c-2.4-0.4-5.4-1.6-6.8-3.5
	c-2.2-2.9-3.8-6.2-4.8-9.8c-1.1-3.7,0.3-6.8,3.9-8.6c-2.3,6.5-1.5,12.5,3.2,17.7c1.1,1.3,2.8,2.1,4.5,2.1c1.1-0.1,2.6-2,2.9-3.4
	C96.4,500.1,91.7,490.8,83.9,490z"/>
<path d="M97,459.9l4,4c-3.1-0.8-6.3-1.4-9.4-1.8c-4.6-0.5-9.2-0.5-14-1.8c3.6-0.2,7.3-0.4,10.9-0.5C91.2,459.8,94.1,459.9,97,459.9z
	"/>
<path d="M172.9,275.3l13.5,10.5l-1.3,1.2C180.3,282.7,174.1,279.7,172.9,275.3z"/>
<path class="st0" d="M83.9,490c7.8,0.7,12.4,10,10.8,16.3c-0.4,1.4-1.8,3.3-2.9,3.4c-1.7-0.1-3.3-0.9-4.5-2.1
	c-4.7-5.2-5.5-11.2-3.2-17.7L83.9,490z"/>
<rect y="6" class="st0" width="427" height="570"/>
</svg>
