<?xml version="1.0" encoding="utf-8"?>
<!-- Generator: Adobe Illustrator 19.2.1, SVG Export Plug-In . SVG Version: 6.00 Build 0)  -->
<svg version="1.1" id="Layer_1" xmlns="http://www.w3.org/2000/svg" xmlns:xlink="http://www.w3.org/1999/xlink" x="0px" y="0px"
	 viewBox="0 0 436.1 463.7" style="enable-background:new 0 0 436.1 463.7;" xml:space="preserve">
<style type="text/css">
	.st0{fill:#FFFFFF;}
</style>
<g id="TPMDqo.tif">
	<g>
		<path class="st0" d="M307.7,0c42.8,0,85.6,0,128.4,0c0,154.6,0,309.1,0,463.7c-145.4,0-290.7,0-436.1,0C0,309.1,0,154.6,0,0
			c102.1,0,204.2,0,306.2,0c-1.8,1.7-1.8,1.7,1.5,5.2c-3.3-0.2-6.9-0.4-10.5-0.4c-1,0-2.3,0.6-2.8,1.3c-0.4,0.5,0.3,1.8,0.4,2.3
			c-3.3,1.4-6.7,2.8-9.9,4.3c-0.6,0.3-1.1,1.4-1,2.1c0,0.4,1.1,0.9,1.7,1.2c0.3,0.2,0.7,0.1,1,0.1c-1.6,1.4-3.1,3.1-4.8,4.2
			c-5.9,3.8-11.8,7.5-17.7,11.2c-5.9,3.7-12.3,5.3-19.2,4.8c-7.7-0.6-14.7-3.4-21.6-6.5c-6.5-2.9-12.8-6.2-19.5-8.5
			c-7-2.5-12.1,0.1-15.5,6.7c-2.5,5-3.6,10.3-3.7,15.8c-0.1,5.7,0.8,11.3,4.1,16.2c2,2.9,4,5.8,6.2,9c-1.6-0.4-3-0.9-4.3-1.1
			c-7.7-1.2-15.4-2.4-23.2-3.4c-11.1-1.5-21.9-4.5-32.6-7.8c-11.5-3.5-22.3-9.1-34.7-9.6c-6.7-0.3-12.5,0.5-17.3,5.7
			c-2.9,3.1-6,6.2-9.5,8.6C65,67.2,56.5,72.7,48,78.2c-0.8,0.5-1.7,0.8-2.6,1.1c-4.3,1.5-8.7,3-12.9,4.6c-3.4,1.3-5.8,3.7-6.8,7.1
			c-1.6,5.3-3.2,10.6-4.2,16c-1.1,5.8-2.5,11.2-5.4,16.5c-3.3,6.1-5.9,12.6-8.3,19.1c-4.5,12.3-6.6,25.3-7,38.3
			c-0.3,9.4-0.6,19,1.1,28.2c2,10.9,6,21.4,9.4,32.1c2.6,8.2,5.8,16.2,8.5,24.3c2.1,6.2,2.6,12.5,0.9,19.1
			c-1.7,6.8-2.2,13.8-1.5,20.7c0.9,8.1,2.2,16.1,3.4,24.2c1.7,11.5,1.7,23.1-1.2,34.4c-2,7.8-4.5,15.4-6.9,23.1
			c-0.7,2.4-1,4.7,0.1,6.9c1.8,3.3,3.5,6.7,5.9,9.6c2,2.4,4.3,4.8,8,4.9c7.4,0.2,14.5-0.6,21.1-4.1c3-1.6,5.7-3.7,6.4-7.2
			c0.5-2.1,0.1-4.3,0.1-6.6c1.3,0.6,2.5,1.3,3.8,1.7c6.6,2.3,13.3,3.8,20.4,2.1c4.4-1,6.2-2.5,6-7c-0.1-2.9-0.6-5.8-1.2-8.7
			c-1.2-4.9-3.1-9.7-3.8-14.7c-2.1-16.4-0.7-32.3,6.9-47.4c5.6-11,10.2-22.4,12.8-34.6c0.9-4.2,1.7-8.5,2.6-12.7
			c15.6,3.6,31.4,4.9,47.1,6.5c5.6,0.6,11.1,1.4,16.2,4.2c2.2,1.2,4,2.7,4.3,5.5c0.2,1.5,0.7,2.9,1.2,4.3c2.7,8.6,5.7,17.1,7.9,25.8
			c3,11.5,4.4,23.1,3.2,35c-0.5,5.2-1.3,10.5-0.6,15.6c0.9,7.3,2.7,14.6,4.6,21.7c2.1,8,3.6,15.9,2.1,24.1
			c-0.7,3.7-2.2,7.2-3.3,10.9c-2,7.1-3.8,14.4-5.9,21.4c-0.9,3.1-0.7,5.7,1.3,8c2.6,3,5.6,5.8,8.4,8.7c1.6,1.7,3.6,2.2,5.8,2
			c9.6-0.7,18.6-3.4,27.3-7.3c4.7-2.1,4.8-2.7,4.1-7.9c-0.2-1.5-0.4-3-0.9-4.4c-3-10.1-6.2-20.1-8.9-30.2
			c-2.5-9.1-4.3-18.3-2.1-27.8c1.2-5.3,1.8-10.6,0.8-16c-0.7-3.6-1.4-7.1-1.8-10.7c-0.8-7.1,0.4-14.1,2.1-20.9
			c3.1-12.2,3.8-24.5,2.7-36.9c-0.2-2.3,0-4.6,0-7.3c1.8,1.1,3.2,2.1,4.7,2.9c4.8,2.6,9.5,5.2,14.5,7.5c1.8,0.8,4.4,1.1,6.2,0.5
			c3-0.9,6-2.4,8.3-4.4c4.3-3.7,8.1-8,12.1-12c1.5-1.5,2.9-3,4.8-5c2.2,9.9,3.4,19,1.3,28.1c-1.8,7.7-2.7,15.4-1.2,23.2
			c1,5.2,1.7,10.4,2.4,15.7c1.4,10.2-0.4,20.4-1.2,30.5c-0.6,7.6-1.2,15.2,1,22.6c1.9,6.3,3.3,12.6,3.3,19.3c0,3.6,0.9,7.2,1.8,10.7
			c0.3,1.2,1.7,2.8,2.8,3.1c12.1,2.6,24,1.2,35.8-2.6c-1.9-8.1-4.4-15.8-8.9-22.8c-1.8-2.8-3.3-5.9-4.7-9c-3.6-7.7-4.1-16-4.5-24.3
			c-0.2-5.1-0.8-10.2-0.2-15.2c0.7-5.4,2.2-10.8,3.9-16.1c2.9-9,5.5-17.9,5.1-27.6c-0.2-5,0.2-10,0.5-14.9
			c1.1-16.5,4.9-32.4,10.9-47.8c3.7-9.4,7.9-18.6,11.3-28.1c5.3-14.9,6.8-30.3,3.1-45.9c-0.4-1.7-1.1-3.6-0.8-5.3
			c2.5-14.5,5.3-28.9,7.7-43.3c2.3-13.7,6.2-27.1,7-41c0.3-5.7,1.7-6.5,7.5-5.6c1,0.2,2,0.5,2.9,0.9c4.8,2.1,9.8,3.1,15,3.2
			c15.4,0.2,29.1-5,41.9-13.1c8.5-5.4,15.3-12.3,19.3-21.6c1-2.3,1.8-4.8,2.1-7.2c1.3-9.6-3.5-14.1-11.7-16
			c-9.7-2.3-19.3-1.1-28.8,1.6c-5.6,1.6-11.1,3.6-16.7,5.1c-2.6,0.7-5.3,0.8-8,1.1c-7.3,1-14.1-0.5-19.1-6c-4-4.4-8.5-8-13.4-11.2
			c-1-0.7-1.8-1.9-2.4-3c-2.1-3.3-4-6.8-6.1-10.1c-0.5-0.8-1.7-1.7-2.6-1.7c-0.7-0.1-1.5,1.1-1.8,1.3C318.7,6.6,313.2,3.3,307.7,0z"
			/>
		<path d="M307.7,0c5.5,3.3,11.1,6.6,16.8,10c0.2-0.2,1-1.3,1.8-1.3c0.9,0.1,2.1,0.9,2.6,1.7c2.1,3.3,4,6.7,6.1,10.1
			c0.7,1.1,1.4,2.3,2.4,3c4.9,3.2,9.4,6.8,13.4,11.2c5.1,5.5,11.8,6.9,19.1,6c2.7-0.3,5.4-0.4,8-1.1c5.6-1.5,11.1-3.5,16.7-5.1
			c9.5-2.7,19.1-3.9,28.8-1.6c8.2,1.9,13,6.4,11.7,16c-0.3,2.5-1.1,4.9-2.1,7.2c-4,9.3-10.8,16.3-19.3,21.6
			c-12.8,8.1-26.5,13.3-41.9,13.1c-5.2-0.1-10.2-1-15-3.2c-0.9-0.4-1.9-0.7-2.9-0.9c-5.8-1-7.2-0.2-7.5,5.6c-0.8,14-4.7,27.4-7,41
			c-2.5,14.5-5.3,28.9-7.7,43.3c-0.3,1.7,0.4,3.6,0.8,5.3c3.7,15.6,2.3,31-3.1,45.9c-3.4,9.5-7.6,18.7-11.3,28.1
			c-6,15.4-9.8,31.3-10.9,47.8c-0.3,5-0.7,10-0.5,14.9c0.4,9.6-2.2,18.6-5.1,27.6c-1.7,5.2-3.2,10.6-3.9,16.1
			c-0.6,5,0,10.1,0.2,15.2c0.4,8.3,0.8,16.6,4.5,24.3c1.4,3.1,2.9,6.2,4.7,9c4.5,7,7.1,14.7,8.9,22.8c-11.8,3.7-23.7,5.2-35.8,2.6
			c-1.1-0.2-2.5-1.9-2.8-3.1c-0.9-3.5-1.8-7.1-1.8-10.7c0-6.7-1.4-13-3.3-19.3c-2.3-7.4-1.7-15-1-22.6c0.8-10.2,2.6-20.3,1.2-30.5
			c-0.7-5.2-1.4-10.5-2.4-15.7c-1.5-7.9-0.6-15.5,1.2-23.2c2.1-9.1,0.9-18.2-1.3-28.1c-1.9,2-3.4,3.5-4.8,5c-4,4-7.8,8.3-12.1,12
			c-2.3,2-5.4,3.5-8.3,4.4c-1.9,0.6-4.4,0.3-6.2-0.5c-4.9-2.2-9.7-4.9-14.5-7.5c-1.5-0.8-2.9-1.8-4.7-2.9c0,2.7-0.2,5,0,7.3
			c1.1,12.5,0.3,24.8-2.7,36.9c-1.7,6.8-2.9,13.8-2.1,20.9c0.4,3.6,1.2,7.2,1.8,10.7c1,5.4,0.4,10.7-0.8,16
			c-2.2,9.5-0.4,18.7,2.1,27.8c2.8,10.1,6,20.1,8.9,30.2c0.4,1.4,0.6,2.9,0.9,4.4c0.7,5.2,0.6,5.8-4.1,7.9
			c-8.7,3.9-17.7,6.6-27.3,7.3c-2.2,0.2-4.2-0.3-5.8-2c-2.8-2.9-5.8-5.6-8.4-8.7c-2-2.3-2.2-4.9-1.3-8c2.2-7.1,3.9-14.3,5.9-21.4
			c1-3.6,2.6-7.2,3.3-10.9c1.5-8.2,0-16.2-2.1-24.1c-1.9-7.2-3.7-14.4-4.6-21.7c-0.6-5.1,0.1-10.4,0.6-15.6
			c1.1-11.9-0.3-23.6-3.2-35c-2.3-8.7-5.3-17.2-7.9-25.8c-0.4-1.4-1-2.9-1.2-4.3c-0.3-2.8-2.1-4.3-4.3-5.5c-5-2.8-10.6-3.6-16.2-4.2
			c-15.7-1.6-31.5-3-47.1-6.5c-0.9,4.2-1.7,8.5-2.6,12.7c-2.6,12.1-7.2,23.5-12.8,34.6c-7.6,15-9,31-6.9,47.4
			c0.6,5,2.6,9.7,3.8,14.7c0.7,2.8,1.1,5.8,1.2,8.7c0.2,4.5-1.6,6-6,7c-7.1,1.7-13.8,0.2-20.4-2.1c-1.3-0.5-2.6-1.1-3.8-1.7
			c0,2.2,0.4,4.5-0.1,6.6c-0.8,3.5-3.4,5.6-6.4,7.2c-6.6,3.5-13.8,4.4-21.1,4.1c-3.7-0.1-6-2.6-8-4.9c-2.4-2.9-4.1-6.3-5.9-9.6
			c-1.2-2.2-0.9-4.5-0.1-6.9c2.4-7.7,4.9-15.3,6.9-23.1c2.9-11.3,2.9-22.9,1.2-34.4c-1.2-8-2.6-16.1-3.4-24.2
			c-0.8-7-0.3-14,1.5-20.7c1.7-6.6,1.2-12.8-0.9-19.1c-2.8-8.1-5.9-16.2-8.5-24.3c-3.4-10.6-7.4-21.2-9.4-32.1
			c-1.7-9.2-1.4-18.8-1.1-28.2c0.4-13.1,2.5-26,7-38.3c2.4-6.5,5-13,8.3-19.1c2.9-5.3,4.3-10.7,5.4-16.5c1-5.4,2.6-10.7,4.2-16
			c1-3.4,3.4-5.9,6.8-7.1c4.3-1.6,8.6-3,12.9-4.6c0.9-0.3,1.8-0.6,2.6-1.1c8.5-5.5,17-11,25.3-16.8c3.5-2.4,6.6-5.5,9.5-8.6
			c4.8-5.2,10.6-6,17.3-5.7c12.4,0.5,23.2,6.1,34.7,9.6c10.7,3.3,21.5,6.3,32.6,7.8c7.7,1,15.5,2.2,23.2,3.4
			c1.4,0.2,2.7,0.7,4.3,1.1c-2.2-3.2-4.2-6-6.2-9c-3.3-4.9-4.2-10.5-4.1-16.2c0.1-5.5,1.1-10.8,3.7-15.8c3.4-6.6,8.5-9.2,15.5-6.7
			c6.7,2.4,13,5.6,19.5,8.5c6.9,3.2,14,5.9,21.6,6.5c6.9,0.6,13.3-1.1,19.2-4.8c5.9-3.7,11.9-7.4,17.7-11.2c1.8-1.2,3.2-2.8,4.8-4.2
			c-0.2,0-0.7,0-1-0.1c-0.7-0.3-1.7-0.8-1.7-1.2c0-0.7,0.4-1.8,1-2.1c3.3-1.5,6.6-2.9,9.9-4.3c-0.1-0.5-0.8-1.7-0.4-2.3
			c0.5-0.8,1.8-1.3,2.8-1.3c3.6,0,7.2,0.3,10.5,0.4c-3.3-3.5-3.3-3.5-1.5-5.2C306.7,0,307.2,0,307.7,0z M187.5,434.6
			c-1.2,4-2.4,7.7-3.4,11.4c-0.2,0.9,0.1,2.1,0.6,2.9c1.7,2.3,3.6,4.4,5.3,6.7c1.9,2.5,4.4,3.2,7.3,2.6c6.4-1.4,12.7-2.9,19.1-4.5
			c2.6-0.7,5.1-1.9,7.6-2.9c-1.4-5.1-2.6-9.8-3.8-14.3c-2.6,0.6-4.8,1.1-7,1.5c0-0.1,0-0.2,0-0.3c2.1-1.4,4.2-2.8,6.2-4.2
			c-1.6-5.1-3.1-9.9-4.6-14.7c-3.5-11.2-4.9-22.7-3.1-34.4c0.8-5.4,1.5-10.8,0.2-16.2c-2.3-9.5-2-19.1,0.2-28.7
			c2.2-9.6,4.1-19.2,3.6-29.1c-0.5-9.7-0.9-19.5-1-29.2c0-3.9,1.1-7.8,4.8-10c2.7-1.6,5.5-3.1,8.2-4.6c-5.3,5.9-10.5,11.8-8.5,20.8
			c0.5,0.2,1.1,0.5,1.7,0.9c5,3.1,10,6.4,15.1,9.3c4.5,2.6,9.3,2.3,13.4-0.9c4.5-3.5,8.8-7.3,12.8-11.3c4.4-4.4,14.7-13,19.2-15.2
			c-1.3,1.4-2.6,2.8-4.3,4.6c3.5-0.6,6.4-1.2,9.9-1.8c-4,2.4-7.4,4.6-11,6.5c-2,1.1-2.4,2.2-1.8,4.5c2.9,9.4,4.1,19,1.7,28.5
			c-2.3,9-1.6,17.8-0.1,26.8c1.2,7.1,1.7,14.4,1.7,21.7c0,6.3-1.1,12.6-1.4,18.9c-0.3,5.7-0.5,11.4,0,17c0.4,4.9,2.1,9.7,2.8,14.6
			c0.6,4.1,0.7,8.3,1,12.4c3.2-0.4,6.2-0.8,9.3-1.3c0,0.2,0.1,0.4,0.1,0.6c-3,0.5-6,1.1-9.1,1.6c0.1,0.6,0,1.3,0.2,1.9
			c1.2,5.1,2.6,6.5,7.9,6.8c5.1,0.3,10.1,0.4,15.2,0.2c2.5-0.1,5-1.3,7.6-2c-1.5-6.4-3.2-12.3-6.9-17.6c-1.8,3-3.9,5.4-7.2,6.4
			c1.7-2.3,3.3-4.6,5-6.7c1-1.2,1-2.2,0.2-3.6c-4.1-7.3-5.9-15.4-7.1-23.6c-0.8-5.3-0.4-10.8-1.2-16.1c-0.9-6.2-0.4-12.1,1.3-18.1
			c0.7-2.6,1.4-5.1,2.3-8.1c-1.2,0.8-2,1.3-3.3,2.2c6.3-7.9,8.2-16.4,8.3-24.1c0-6.8,0.3-13.6,0.8-20.4c0.9-12.5,3.1-24.8,7-36.7
			c3.8-11.7,8.3-23.1,12.8-34.6c6-15.1,7.7-30.7,5.5-46.8c-0.8-6-2.7-12.1-0.6-18.3c0.4-1.3,0.6-2.6,0.8-4
			c-3.7,5.6-7.1,11.3-10.4,17c-3.7,6.4-7.9,12.4-13.7,17.2c-0.9,0.8-1.6,1.7-2.4,2.6c-7.6,8.8-15.3,17.7-22.9,26.5
			c0,0-0.1-0.1-0.1-0.2c0.2-0.5,0.5-1,0.7-1.5c5.8-9.8,12.2-19.3,20.7-27.1c1.3-1.2,2.6-2.6,3.6-4.1c5.4-9,10.9-18,16-27.2
			c3.8-6.9,7.4-14,10.7-21.1c1.4-3,1.9-6.5,2.9-9.8c-0.3-0.1-0.5-0.3-0.8-0.4c-2.8,3.2-6.3,6-8.3,9.6c-2.7,4.8-5.9,8.9-9.8,12.6
			c-3.4,3.3-6.8,6.7-9.6,10.4c-3.4,4.5-7.7,6.9-13,7.9c-5.9,1.1-11.7,0.2-17.5-0.3c-7.6-0.7-13.9-3.5-18.3-10
			c-0.5-0.7-1.7-1-2.6-1.2c-4-0.6-6.4-3-7.3-6.9c-1-4.5-1.9-9-3.3-13.3c-0.8-2.5-0.3-4.5,0.9-6.7c5.5-9.9,10.4-20.1,12.6-31.3
			c0.6-2.9,1.1-5.9,1-8.9c-0.2-6-5.2-10-7-15.4c-0.5,0.2-0.9,0.3-1.3,0.5c-12.2,5.9-24.3,5.7-36.8,0.3c-8.1-3.5-16.5-6.4-25-8.7
			c-6.4-1.7-13.2-2-19.9-2.9c-11.9-1.6-23.6-4.5-34.9-8.3C122.2,58,112,54.4,101,53.4c-5.4-0.5-10.1,0.3-13.9,4.7
			c-6.4,7.2-14.3,12.4-22.9,16.6c-1.7,0.8-3.4,1.7-5.2,2.5c0,0.1,0.1,0.3,0.1,0.4c6.1-0.4,12.3-0.9,18.4-1.3c0,0.2,0.1,0.4,0.1,0.6
			c-8.3,1.8-16.6,3.8-25,5.3c-5.5,1-11.1,1.6-16,4.7c-2.5,1.5-4.3,3.4-5.2,6.2c-0.5,1.6-1.1,3.1-1.4,4.8c-4.4,18.6-6.2,37.6-7,56.6
			c-0.5,10.4-0.7,20.9-1.8,31.3c-1.1,10.6-2.2,21.3-1.6,32c0.1,1.9,0.5,3.9,1,5.8c1.8,6.5,4.1,12.9,5.7,19.5
			c2.4,9.7,3.6,19.6,1.8,29.6c-1.2,6.9-2.9,13.7-4,20.7c-0.9,5.7-2.3,11.6-0.6,17.2c1.8,5.8,4.6,11.3,6.9,16.6
			c-0.9-0.9-2.2-2.1-3.6-3.5c0.1,1.1,0.3,2,0.4,3c0.1,3.6-0.3,7.3,0.3,10.9c1.9,12.9,0.5,25.4-3.5,37.7c-1.6,4.8-1.2,6.3,2.7,9.7
			c0.3,0.3,0.7,0.6,1,0.8c-0.1,0.1-0.2,0.3-0.3,0.4c-1.9-1.3-3.9-2.6-5.8-4c-4.3,9-4.2,7.4-0.6,14.7c3,6.2,6.1,7.6,12.8,6.9
			c0.6-0.1,1.1,0,1.7-0.1c5.6-0.7,11-2.1,15.7-5.5c0.5-0.4,1.2-1.2,1.1-1.8c-0.5-3.9-1.1-7.8-1.6-11.6c-2.9,1.2-5.5,2.3-8.2,3.5
			c-0.1-0.2-0.3-0.5-0.4-0.7c2.2-1.7,4.5-3.4,6.6-5.2c0.6-0.5,1.2-1.5,1.1-2.1c-1.3-6.5-2.5-13-4.2-19.4
			c-3.7-13.8-3.8-27.6-0.5-41.5c1.4-6.2,2.9-12.5,3.4-18.8c0.9-10.8,3-21.2,7.7-31c3.7-7.8,6.3-16,8.1-24.4c0.2-0.8,0.1-1.9-0.3-2.6
			c-10.5-21-20.1-42.4-23.5-65.9c-0.6-3.7-1.2-7.5-1.3-11.3c-0.3-8.2,1.4-16.2,3.7-24c3.8-12.6,10.6-23.7,17.8-34.6
			c0.1,0.3,0,0.6-0.1,0.9c-4.1,11.1-8.3,22.2-12.1,33.4c-5,14.9-6.3,30.1-0.7,45c6.1,16.4,12.8,32.6,19.5,48.8
			c3.5,8.6,9.5,15.3,17.5,20c7.4,4.4,15.3,7.4,23.8,9.2c17.6,3.6,35.4,6.3,53.4,8.1c2.1,0.2,4.2,0.8,6.4,1.3c0-0.5,0-0.8,0-1
			c-2.8-12.5-5.7-24.9-8.3-37.4c-2.4-12-3.1-24,2.1-35.6c0.5-1.1,0.8-2.4,1.1-3.6c1.6-7.1,3-14.2,5-21.2c2.6-9.2,4.8-18.6,10.1-26.7
			c2.4-3.7,5.2-7.3,7.1-11.2c4.7-9.6,12.6-16.9,18.4-25.7c0,0.5-0.1,1-0.4,1.3c-4.1,6.8-8.2,13.5-12.3,20.3
			c-6.3,10.4-12.7,20.7-15.6,32.8c-2.4,10.1-5.1,20.2-8.1,30.2c-1.9,6.3-4.6,12.5-4.1,19.3c0.4,5.8,0.2,11.7,1.2,17.5
			c1.7,9.6,4.3,19.1,6.2,28.7c2.8,14.5,6.1,28.8,11,42.8c5.2,14.7,7.7,29.8,6.7,45.4c-0.4,6.9-1.9,13.7-0.5,20.6
			c1.4,6.9,1.9,14,6.7,19.7c0,0-0.1,0.2-0.2,0.3c-0.5-0.3-1.1-0.6-1.8-1c0.5,2.2,1,4,1.3,5.9c1.2,7.2,1.5,14.2-1,21.3
			c-2,5.5-3.4,11.1-5.2,17.1c4.5,2.4,8.8,4.6,12.1,6.4C196,439,191.5,437.8,187.5,434.6z M293.7,23c-1.4,0.1-2.9,0.8-3.8,0.3
			c-1.6-0.9-2.9-0.2-4.2,0.3c-6.9,2.4-11.5,7.1-14.5,13.7c-2.5,5.5-5.8,10.7-8.4,16.2c-3,6.2-5.7,12.6-8.3,19
			c-1.2,2.9-0.7,3.5,2.2,4.5c3.7,1.3,6.1,4.3,5,7.8c-1.2,3.8-0.8,7.3-0.2,11c0.3,1.8,0,3.6-0.2,5.4c-0.2,1.9-0.5,3.8-0.7,5.7
			c0.2,0,0.3,0.1,0.5,0.1c1.6-3.9,3.2-7.8,4.8-11.7c-0.6,3.7-1.8,7.2-2.9,10.8c-0.5,1.5-0.7,3.3-2.9,3.6c-0.4,0-0.7,0.9-0.9,1.5
			c-0.6,1.5-1,3.2-1.7,4.7c-3.2,6.9-6.4,13.8-9.8,20.6c-1.2,2.5-1.6,4.7-0.7,7.4c1.3,4.1,2.2,8.4,3.1,12.6c0.4,2.1,1.5,3.3,3.6,3.5
			c2,0.2,4,0,5.9,0.2c7.7,0.7,15.4,1.8,23.2,2.2c5.4,0.3,11,0.3,15.3-4c0.6-0.6,1.9-0.9,2.6-0.6c0.8,0.3,1.7,1.3,1.9,2.1
			c0.1,0.6-1,2.1-1.4,2c-2.2-0.3-3.2,1.4-4.7,2.3c-1,0.6-2.2,1.1-3.3,1.2c-7.2,0.6-14.4,0.7-21.5-0.7c-4-0.8-8.1-0.9-12.1-1.3
			c2.8,2.9,5.7,5.6,9.8,6.1c2.8,0.4,5.6,0.8,8.5,1c4.8,0.3,9.6-0.1,14.2-1.9c-0.3,0.6-0.5,1.2-0.9,1.9c4.9-0.7,8.4-2.9,11.2-6.7
			c3.5-4.7,7.5-9,11.2-13.5c1-1.2,2.6-1.6,3.5-2.5c1.9-1.9,3.8-4.3,4.5-6.8c0.8-2.9,2.6-4.6,4.5-6.4c1.6-1.6,3.5-3,5-4.7
			c1.7-2.1,3.7-4.3,4.4-6.8c2.7-9.6,5.6-19.2,6.9-29.2c0.8-6.1,2.6-12,5.5-18.1c0,0.8,0,1.1,0,1.4c-0.6,5.7-1.8,4.8,4.3,6.8
			c8,2.6,16.2,3.5,24.6,2.4c13.9-1.8,26.6-6.5,37.9-14.9c7.3-5.5,13-12.2,15.4-21.3c1.7-6.4-0.6-10.6-6.8-12.8
			c-5.3-1.9-10.8-1.8-16.2-1.2c-11.3,1.2-21.8,5-31.9,10.1c-5.1,2.6-10,5.7-15,8.5c0-0.1-0.1-0.1-0.1-0.2c3.8-2.9,7.6-5.9,11.2-8.7
			c-2.8,0-5.8,0.3-8.7-0.1c-2.9-0.4-5.7-1.5-8.8-2.4c2.3,7.5,0.8,14.8-1.5,21.8c-0.7-5-1.9-10.1-2.1-15.2
			c-0.6-12.3-8.2-19.1-18.1-24.3c-4.7,0-6-4.9-9.4-6.9c3,0.6,6.1,1.1,9.4,1.7c-1.2-2.1-2.3-4.1-3.4-6c-0.1,0.1-0.3,0.1-0.4,0.2
			c0.5,1.4,1,2.9,1.6,4.3c-6.2-6.1-12.1-12.2-20.3-15.4c-0.2,0.2-0.3,0.4-0.5,0.6c3,2.5,6.1,5.1,9.5,7.9c-5.8-1.7-11-3.2-16.3-4.8
			c-0.1,0.3-0.1,0.5-0.2,0.8c2,0.5,3.9,1,5.9,1.5c0,0.1-0.1,0.3-0.1,0.4c-5.2,0.8-10.5,1.6-15.7,2.4c0,0.3,0.1,0.6,0.1,0.8
			c3.4,0,6.9,0,10.3,0c0,0.1,0,0.3,0,0.4c-4.1,1.3-8.1,2.6-12.2,3.8c0.1,0.3,0.1,0.6,0.2,0.9c3.8,0,7.5-0.1,11.3,0
			c1,0,2,0.6,3.4,1.1c-5.3,3.5-10,6.7-14.9,9.9C289.8,26.4,292.2,25,293.7,23z M99.8,268.2c-3.5-1.3-6.3-2.4-9.1-3.4
			c-7.5-2.8-14.2-6.9-19.9-12.6c-0.5-0.5-1.6-1-2.1-0.8c-0.7,0.3-1.2,1.2-1.6,2c-0.3,0.7-0.3,1.6-0.2,2.3c0.5,6.4,1.1,12.8,1.7,19.1
			c1.1,11,0.8,22-0.9,32.9c-1,6.2-3.1,12.3-1.1,18.8c-0.7-1.2-1.4-2.4-2.3-3.9c-0.7,2.6-1.6,4.9-2,7.2c-0.9,5.3-1.2,10.7-2.2,16
			c-1.3,6.9-3.2,13.7-4.7,20.5c-0.7,3.4-1.2,6.8-1.8,10.3c1.8,0.5,3.3,0.9,5.1,1.5c-1.8,0.3-3.3,0.5-4.8,0.8c0.3,1.6,0.5,3,0.8,4.4
			c0.1,0.5,0.4,1.1,0.7,1.3c8.2,4.7,16.7,7,26.1,4.1c1.3-0.4,1.9-1,1.6-2.3c-1.1-5.1-2.2-10.3-3.2-15.2c-3.3,1.2-6,2.2-8.7,3.2
			c2-1.8,4.2-3.1,6.1-4.6c0.6-0.5,1.1-1.8,1-2.6c-0.5-4.6-1.5-9.2-1.9-13.8c-0.8-10,0.1-19.8,3.7-29.2c2.8-7.3,6.6-14.2,9.1-21.6
			C93.1,291.3,96.3,279.8,99.8,268.2z M266.5,36.7c-0.2-0.2-0.4-0.3-0.6-0.5c-9.3,5.5-19.3,6.6-29.5,3.6c-6.7-1.9-13.1-5-19.6-7.6
			c-4.7-1.9-9.1-4.4-13.9-6.1c-5.5-1.9-8.6-0.5-10.8,4.9c-4.4,10.7-4.3,21.1,3.1,30.4c3.4,4.2,7.5,8,11.8,11.2
			c12.2,8.8,25.4,11.1,39.5,4.4c1.2-0.6,1.9-1.2,2.1-2.7c0.2-2,1-3.9,1.8-5.8c1.6-3.8,3.4-7.5,5.2-11.2c-9.5-2.2-16.9-7.8-24.9-12.5
			c3.2,1.2,6.2,2.7,9.4,3.9c4.4,1.6,9,3,13.5,4.3c1.5,0.4,3.5,1.2,4.5-0.7C261.1,47.2,263.8,41.9,266.5,36.7z M63.2,267
			c-0.3,0.4-0.4,0.5-0.5,0.6c-0.5,1.1-0.9,2.2-1.4,3.2c-4,8.2-6.9,16.8-7.2,26c-0.3,7.2-1.6,14.2-3.5,21.2
			c-2.7,10.1-5,20.3-3.4,30.9c0.8,5.4,2.2,10.7,3.3,16c1.3-2.5,2.2-4.8,2.8-7.3c1.2-4.5,2.5-8.9,3.3-13.5c1.1-6.1,1.2-12.5,2.8-18.5
			C64.6,306.5,65.6,287,63.2,267z M23.5,264c0.1-8.3-1.2-16.4-3.3-24.3c-3.3-12.1-7.4-23.9-8.5-36.6c-1.3-14.1-0.5-27.9,2.9-41.7
			c0.9-3.7,1.7-7.4,2.1-11.1c0.6-5.4,0.7-10.9,1.1-16.3c0.1-1.5,0.3-2.9,0.5-4.4c-0.6,0.3-0.8,0.6-1,1c-6.9,14.6-10.2,30-11.1,46
			c-1.1,19.2,0.2,38.1,5.9,56.6c2.3,7.7,5.7,15,8.6,22.5C21.6,258.4,22.5,261.2,23.5,264z M16.6,165.7c-2.2,5.2-3.3,24.3-1.4,28.6
			C15.7,184.7,16.1,175.2,16.6,165.7z"/>
		<path class="st0" d="M187.5,434.6c4,3.3,8.5,4.5,12.2,4.7c-3.3-1.8-7.6-4-12.1-6.4c1.8-5.9,3.2-11.6,5.2-17.1
			c2.6-7.1,2.2-14.1,1-21.3c-0.3-1.9-0.8-3.7-1.3-5.9c0.8,0.4,1.3,0.7,1.8,1c0.1-0.1,0.2-0.3,0.2-0.3c-4.8-5.7-5.3-12.8-6.7-19.7
			c-1.4-6.9,0.1-13.7,0.5-20.6c0.9-15.6-1.6-30.8-6.7-45.4c-4.9-14-8.2-28.3-11-42.8c-1.9-9.6-4.5-19.1-6.2-28.7
			c-1-5.7-0.8-11.6-1.2-17.5c-0.5-6.8,2.2-12.9,4.1-19.3c3-10,5.7-20.1,8.1-30.2c2.9-12.1,9.3-22.4,15.6-32.8
			c4.1-6.7,8.2-13.5,12.3-20.3c0.2-0.4,0.3-0.8,0.4-1.3c-5.8,8.8-13.8,16-18.4,25.7c-1.9,4-4.6,7.5-7.1,11.2
			c-5.4,8.2-7.6,17.5-10.1,26.7c-2,7-3.3,14.2-5,21.2c-0.3,1.2-0.6,2.5-1.1,3.6c-5.2,11.6-4.6,23.6-2.1,35.6
			c2.5,12.5,5.5,25,8.3,37.4c0,0.2,0,0.5,0,1c-2.2-0.5-4.3-1.1-6.4-1.3c-17.9-1.8-35.7-4.5-53.4-8.1c-8.4-1.7-16.3-4.8-23.8-9.2
			c-8.1-4.7-14-11.4-17.5-20c-6.7-16.2-13.4-32.4-19.5-48.8c-5.6-15-4.4-30.2,0.7-45c3.8-11.2,8.1-22.3,12.1-33.4
			c0.1-0.3,0.2-0.5,0.1-0.9c-7.2,10.9-14,22-17.8,34.6c-2.4,7.8-4,15.8-3.7,24c0.1,3.8,0.8,7.5,1.3,11.3c3.5,23.5,13,44.9,23.5,65.9
			c0.4,0.7,0.5,1.8,0.3,2.6c-1.8,8.4-4.4,16.6-8.1,24.4c-4.7,9.8-6.8,20.2-7.7,31c-0.5,6.3-2,12.6-3.4,18.8
			c-3.2,13.9-3.2,27.7,0.5,41.5c1.7,6.4,2.9,12.9,4.2,19.4c0.1,0.6-0.5,1.6-1.1,2.1c-2.1,1.8-4.4,3.5-6.6,5.2
			c0.1,0.2,0.3,0.5,0.4,0.7c2.6-1.1,5.3-2.2,8.2-3.5c0.6,3.8,1.2,7.7,1.6,11.6c0.1,0.5-0.6,1.4-1.1,1.8c-4.7,3.4-10.1,4.8-15.7,5.5
			c-0.5,0.1-1.1,0.1-1.7,0.1c-6.7,0.7-9.8-0.7-12.8-6.9c-3.6-7.4-3.7-5.7,0.6-14.7c1.9,1.3,3.9,2.6,5.8,4c0.1-0.1,0.2-0.3,0.3-0.4
			c-0.3-0.3-0.7-0.6-1-0.8c-3.9-3.4-4.2-4.9-2.7-9.7c4-12.3,5.4-24.8,3.5-37.7c-0.5-3.6-0.2-7.2-0.3-10.9c0-0.9-0.2-1.9-0.4-3
			c1.4,1.3,2.7,2.6,3.6,3.5c-2.2-5.3-5-10.8-6.9-16.6c-1.8-5.6-0.3-11.5,0.6-17.2c1.1-6.9,2.8-13.7,4-20.7c1.8-10,0.6-19.9-1.8-29.6
			c-1.6-6.6-3.8-13-5.7-19.5c-0.5-1.9-0.9-3.9-1-5.8c-0.6-10.7,0.5-21.3,1.6-32c1.1-10.4,1.3-20.8,1.8-31.3c0.8-19.1,2.7-38,7-56.6
			c0.4-1.6,0.9-3.2,1.4-4.8c0.9-2.8,2.7-4.7,5.2-6.2c4.9-3.1,10.5-3.7,16-4.7c8.4-1.5,16.7-3.5,25-5.3c0-0.2-0.1-0.4-0.1-0.6
			c-6.1,0.4-12.3,0.9-18.4,1.3c0-0.1-0.1-0.3-0.1-0.4c1.7-0.8,3.5-1.7,5.2-2.5c8.6-4.2,16.6-9.4,22.9-16.6c3.8-4.4,8.5-5.1,13.9-4.7
			c11,1,21.2,4.6,31.5,8.1c11.3,3.9,23,6.8,34.9,8.3c6.6,0.9,13.5,1.2,19.9,2.9c8.5,2.3,16.9,5.2,25,8.7c12.5,5.4,24.6,5.6,36.8-0.3
			c0.3-0.2,0.7-0.3,1.3-0.5c1.8,5.4,6.8,9.4,7,15.4c0.1,2.9-0.4,6-1,8.9c-2.2,11.2-7.1,21.4-12.6,31.3c-1.2,2.2-1.7,4.1-0.9,6.7
			c1.4,4.4,2.3,8.9,3.3,13.3c0.9,4,3.3,6.3,7.3,6.9c0.9,0.1,2.1,0.5,2.6,1.2c4.4,6.5,10.7,9.3,18.3,10c5.8,0.5,11.6,1.3,17.5,0.3
			c5.4-1,9.7-3.4,13-7.9c2.9-3.8,6.2-7.2,9.6-10.4c3.9-3.7,7.2-7.9,9.8-12.6c2-3.6,5.5-6.4,8.3-9.6c0.3,0.1,0.5,0.3,0.8,0.4
			c-0.9,3.3-1.5,6.7-2.9,9.8c-3.3,7.2-6.8,14.2-10.7,21.1c-5.1,9.2-10.6,18.2-16,27.2c-0.9,1.5-2.2,2.9-3.6,4.1
			c-8.5,7.8-14.8,17.3-20.7,27.1c-0.3,0.5-0.5,1-0.7,1.5c0,0,0.1,0.1,0.1,0.2c7.6-8.8,15.3-17.7,22.9-26.5c0.8-0.9,1.5-1.9,2.4-2.6
			c5.7-4.8,9.9-10.8,13.7-17.2c3.3-5.7,6.7-11.4,10.4-17c-0.3,1.3-0.4,2.7-0.8,4c-2.1,6.2-0.2,12.2,0.6,18.3
			c2.2,16.1,0.5,31.6-5.5,46.8c-4.5,11.4-9,22.9-12.8,34.6c-3.9,11.9-6.2,24.2-7,36.7c-0.5,6.8-0.8,13.6-0.8,20.4
			c0,7.7-2,16.2-8.3,24.1c1.3-0.9,2.2-1.4,3.3-2.2c-0.8,2.9-1.6,5.5-2.3,8.1c-1.6,5.9-2.2,11.9-1.3,18.1c0.8,5.3,0.4,10.8,1.2,16.1
			c1.3,8.2,3,16.3,7.1,23.6c0.8,1.4,0.7,2.4-0.2,3.6c-1.7,2.1-3.3,4.4-5,6.7c3.3-1.1,5.4-3.4,7.2-6.4c3.7,5.4,5.3,11.2,6.9,17.6
			c-2.6,0.7-5,1.9-7.6,2c-5,0.3-10.1,0.2-15.2-0.2c-5.3-0.3-6.6-1.7-7.9-6.8c-0.2-0.7-0.2-1.4-0.2-1.9c3.1-0.5,6.1-1.1,9.1-1.6
			c0-0.2-0.1-0.4-0.1-0.6c-3.1,0.4-6.1,0.8-9.3,1.3c-0.3-4.1-0.4-8.3-1-12.4c-0.7-4.9-2.4-9.7-2.8-14.6c-0.5-5.6-0.2-11.4,0-17
			c0.3-6.3,1.5-12.6,1.4-18.9c-0.1-7.2-0.5-14.5-1.7-21.7c-1.5-9-2.2-17.7,0.1-26.8c2.4-9.6,1.2-19.2-1.7-28.5
			c-0.7-2.2-0.3-3.4,1.8-4.5c3.5-1.9,6.9-4.1,11-6.5c-3.5,0.6-6.4,1.2-9.9,1.8c1.7-1.8,3-3.2,4.3-4.6c-4.5,2.2-14.8,10.8-19.2,15.2
			c-4,4-8.3,7.8-12.8,11.3c-4.1,3.2-8.9,3.4-13.4,0.9c-5.1-2.9-10.1-6.2-15.1-9.3c-0.6-0.4-1.2-0.7-1.7-0.9c-2-9,3.2-14.9,8.5-20.8
			c-2.7,1.5-5.5,3-8.2,4.6c-3.7,2.3-4.8,6.1-4.8,10c0.1,9.7,0.5,19.5,1,29.2c0.5,9.9-1.4,19.5-3.6,29.1c-2.2,9.6-2.5,19.1-0.2,28.7
			c1.3,5.5,0.6,10.8-0.2,16.2c-1.8,11.7-0.4,23.2,3.1,34.4c1.5,4.8,3,9.6,4.6,14.7c-2.1,1.4-4.1,2.8-6.2,4.2c0,0.1,0,0.2,0,0.3
			c2.2-0.5,4.5-1,7-1.5c1.2,4.5,2.4,9.2,3.8,14.3c-2.5,1-4.9,2.2-7.6,2.9c-6.3,1.6-12.7,3.1-19.1,4.5c-2.9,0.7-5.4-0.1-7.3-2.6
			c-1.7-2.3-3.7-4.4-5.3-6.7c-0.5-0.7-0.8-2-0.6-2.9C185.1,442.2,186.3,438.6,187.5,434.6z M213.7,177.9c-0.2-0.1-0.3-0.3-0.5-0.4
			c-3.5,3.4-7,6.8-10.5,10.2c-2,1.9-3.2,4.1-3.4,6.8c-0.2,3.5-0.5,7.1-0.7,11.2c0.8-2.4,1.6-4.2,2-6.1c1.1-5,3.4-9.2,6.9-13
			C209.8,184.1,211.6,180.9,213.7,177.9z M97,83c3.6-1.9,6.9-3.8,10.3-5.4c3.3-1.6,6.8-3.1,10.2-4.4c3.5-1.3,7.1-2.2,10.3-3.2
			C118.3,70.3,108.2,74.5,97,83z M176.5,259.4c1.8,6.9,3.7,13.9,5.1,19.2C182,272.9,180.6,265.9,176.5,259.4z M99.4,107.6
			c5-6,10.3-12.2,15.3-18.2C108.8,93.8,101.6,102.4,99.4,107.6z M95.2,80.9c-5.3,1.2-10,3.7-14,7.6c2.3-1,4.5-2.1,6.6-3.3
			C90.3,83.8,92.7,82.4,95.2,80.9z M276.6,333.5c0-3.3,0-6.5,0-10.2C274.8,327,275.4,330.2,276.6,333.5z M42.7,318.3
			c-1.9,1.7-4.2,3.8-6.3,5.7C38.7,324.7,40.7,323,42.7,318.3z M209.6,381.9c-0.3-0.1-0.5-0.2-0.8-0.3c-0.7,2-1.4,4-2,6
			c0.3,0.1,0.6,0.2,0.8,0.3C208.2,385.9,208.9,383.9,209.6,381.9z M84.8,78.3c0.1,0.2,0.1,0.4,0.2,0.6c2.6-0.8,5.1-1.6,7.7-2.4
			c-0.1-0.2-0.1-0.4-0.2-0.6C89.9,76.7,87.4,77.5,84.8,78.3z"/>
		<path class="st0" d="M293.7,23c-1.4,2-3.9,3.4-3.4,6.2c4.8-3.2,9.6-6.4,14.9-9.9c-1.4-0.5-2.4-1.1-3.4-1.1c-3.8-0.1-7.5,0-11.3,0
			c-0.1-0.3-0.1-0.6-0.2-0.9c4.1-1.3,8.1-2.6,12.2-3.8c0-0.1,0-0.3,0-0.4c-3.4,0-6.9,0-10.3,0c0-0.3-0.1-0.6-0.1-0.8
			c5.2-0.8,10.5-1.6,15.7-2.4c0-0.1,0.1-0.3,0.1-0.4c-2-0.5-3.9-1-5.9-1.5c0.1-0.3,0.1-0.5,0.2-0.8c5.2,1.5,10.5,3.1,16.3,4.8
			c-3.5-2.9-6.5-5.4-9.5-7.9c0.2-0.2,0.3-0.4,0.5-0.6c8.2,3.1,14.1,9.3,20.3,15.4c-0.5-1.4-1-2.9-1.6-4.3c0.1-0.1,0.3-0.1,0.4-0.2
			c1.1,1.9,2.2,3.9,3.4,6c-3.3-0.6-6.4-1.2-9.4-1.7c3.4,2,4.7,6.8,9.4,6.9c9.9,5.3,17.5,12,18.1,24.3c0.2,5.1,1.4,10.2,2.1,15.2
			c2.3-7.1,3.7-14.4,1.5-21.8c3.1,0.9,5.9,2,8.8,2.4c2.9,0.4,5.9,0.1,8.7,0.1c-3.6,2.8-7.4,5.7-11.2,8.7c0,0.1,0.1,0.1,0.1,0.2
			c5-2.9,9.9-5.9,15-8.5c10.1-5.1,20.6-8.9,31.9-10.1c5.4-0.6,10.9-0.6,16.2,1.2c6.2,2.2,8.5,6.4,6.8,12.8
			c-2.4,9.1-8.1,15.8-15.4,21.3c-11.3,8.4-24,13.1-37.9,14.9c-8.4,1.1-16.6,0.2-24.6-2.4c-6.1-2-4.9-1.2-4.3-6.8c0-0.3,0-0.6,0-1.4
			c-2.9,6.1-4.7,12-5.5,18.1c-1.3,10-4.3,19.6-6.9,29.2c-0.7,2.5-2.7,4.7-4.4,6.8c-1.4,1.8-3.4,3.1-5,4.7c-1.8,1.9-3.7,3.6-4.5,6.4
			c-0.7,2.5-2.6,4.9-4.5,6.8c-0.9,0.9-2.5,1.3-3.5,2.5c-3.7,4.5-7.7,8.8-11.2,13.5c-2.9,3.8-6.4,6-11.2,6.7c0.3-0.7,0.6-1.4,0.9-1.9
			c-4.6,1.8-9.3,2.2-14.2,1.9c-2.8-0.2-5.6-0.6-8.5-1c-4.1-0.5-6.9-3.2-9.8-6.1c4,0.4,8.1,0.5,12.1,1.3c7.2,1.4,14.3,1.4,21.5,0.7
			c1.1-0.1,2.3-0.6,3.3-1.2c1.5-0.9,2.5-2.6,4.7-2.3c0.4,0.1,1.5-1.4,1.4-2c-0.2-0.8-1.1-1.8-1.9-2.1c-0.7-0.2-2,0.1-2.6,0.6
			c-4.4,4.3-10,4.3-15.3,4c-7.7-0.4-15.4-1.5-23.2-2.2c-2-0.2-4,0-5.9-0.2c-2.1-0.2-3.1-1.4-3.6-3.5c-0.9-4.2-1.8-8.5-3.1-12.6
			c-0.9-2.7-0.6-4.9,0.7-7.4c3.4-6.8,6.6-13.7,9.8-20.6c0.7-1.5,1.1-3.1,1.7-4.7c0.2-0.6,0.6-1.4,0.9-1.5c2.2-0.3,2.4-2.1,2.9-3.6
			c1.2-3.5,2.3-7,2.9-10.8c-1.6,3.9-3.2,7.8-4.8,11.7c-0.2,0-0.3-0.1-0.5-0.1c0.2-1.9,0.5-3.8,0.7-5.7c0.2-1.8,0.5-3.7,0.2-5.4
			c-0.6-3.7-1-7.2,0.2-11c1.1-3.5-1.3-6.5-5-7.8c-2.9-1-3.4-1.5-2.2-4.5c2.6-6.4,5.3-12.8,8.3-19c2.6-5.5,5.9-10.6,8.4-16.2
			c3-6.7,7.6-11.4,14.5-13.7c1.4-0.5,2.6-1.1,4.2-0.3C290.8,23.8,292.3,23.1,293.7,23z M335.8,78.2c1.3-5.7,0.9-7.4-4.2-17.5
			c0,5.7,3.8,11.2,0.8,17.1c-3.5,0.4-7.5-0.9-10.3,3.1c-3.1,4.4-3.7,6.6-1,10.2c3.1-1.6,6.4-2.9,9.1-5c2.8-2.1,5-5,7.5-7.7
			C337.1,78.4,336.4,78.3,335.8,78.2z M355.6,67.3C367,56.5,380,48.3,394,41.5C378.9,46.6,364.7,53.1,355.6,67.3z M282.7,144.7
			c-1.4,0.5-2.6,1-3.9,1.3c-5.7,1-6.9,2.4-7.2,8.3c-0.1,2.4,0.1,4.8,2.6,5.8c2.7,1.1,5.4,0.8,8.1-0.5c-1.5-1.6-1.5-1.6-5-1.8
			c-1-0.1-2.4-0.5-2.7-1.2c-1.5-3.1,0.4-6.8,3.8-7.9C280.4,148.1,282.3,147.3,282.7,144.7z M253,156.8c0.9,2.2,1.6,2.6,2.7,1.7
			c1.6-1.4,3.2-2.8,4.6-4.4c1.5-1.8,1.5-4,0-5.6c-2.3-2.4-5-4.4-7.5-6.6c-0.3,0.2-0.6,0.4-0.8,0.7c0.4,0.9,0.6,2,1.2,2.8
			c1.1,1.3,2.4,2.5,3.7,3.7c1.5,1.4,1.8,2.7,0,4.1c-0.8,0.7-1.4,1.7-2.1,2.5C254.2,156,253.7,156.3,253,156.8z M251.5,136
			c3.4,6,14.4,5.8,22.9,2C266.7,139.2,259.2,139.3,251.5,136z M421.7,50.9c-0.9,2.1-1.8,4.6-3.1,6.8c-1.4,2.3-3,4.5-4.8,6.4
			c-1.8,1.9-3.9,3.4-6.1,5.3C417.9,64.7,422.4,58.6,421.7,50.9z M407.2,40.4c-5,0.3-9.6,1.3-13.4,4.8
			C398.2,43.6,402.7,42,407.2,40.4z M311.4,143.3c-0.3-0.1-0.5-0.2-0.8-0.3c-2,4.2-4.1,8.4-6.1,12.6c0.3,0.1,0.6,0.3,0.8,0.4
			c1.8-3.5,3.6-7,5.3-10.5C311,144.7,311.1,144,311.4,143.3z M295.3,71.2c-2.4,4.2-2.2,5.8,0.9,9.1C295.9,77.3,295.6,74,295.3,71.2z
			 M399.3,74.9c-4.3,1.1-8.6,2.2-12.9,3.2C391,78.4,395.4,77.4,399.3,74.9z M298.3,39.9c1.2-2.8,2.6-6.2,4.1-9.8
			C298.7,32.9,298.5,36.8,298.3,39.9z M311.6,110.3c1.5-3.8,2.8-7.2,4.1-10.7C313.7,102.9,310.9,105.8,311.6,110.3z M369,82.9
			c0.1-0.3,0.1-0.6,0.2-0.9c-3.1-0.6-6.3-1.2-9.4-1.8c0,0.3-0.1,0.5-0.1,0.8C362.7,81.7,365.9,82.3,369,82.9z M278.8,68.7
			c-0.2,2.3-0.3,4.9-0.5,7.1C280.6,72.8,280.7,71.7,278.8,68.7z M416.7,42.9c-3.1-1.4-5.9-1.9-8.7,0
			C410.8,42.9,413.6,42.9,416.7,42.9z M374,80.9c1.7,0,4.8,0,7.9,0c0-0.2,0-0.4,0-0.6C378.8,80.5,375.7,80.7,374,80.9z"/>
		<path class="st0" d="M99.8,268.2c-3.5,11.6-6.7,23-10.6,34.3c-2.5,7.4-6.3,14.3-9.1,21.6c-3.6,9.4-4.5,19.2-3.7,29.2
			c0.4,4.6,1.3,9.2,1.9,13.8c0.1,0.8-0.3,2.1-1,2.6c-1.9,1.6-4.1,2.9-6.1,4.6c2.7-1,5.4-2,8.7-3.2c1,5,2.1,10.1,3.2,15.2
			c0.3,1.3-0.3,1.9-1.6,2.3c-9.4,2.9-17.9,0.6-26.1-4.1c-0.4-0.2-0.6-0.9-0.7-1.3c-0.3-1.4-0.5-2.8-0.8-4.4c1.6-0.3,3.1-0.5,4.8-0.8
			c-1.9-0.5-3.4-1-5.1-1.5c0.6-3.5,1-6.9,1.8-10.3c1.5-6.9,3.4-13.6,4.7-20.5c1-5.3,1.4-10.7,2.2-16c0.4-2.4,1.2-4.6,2-7.2
			c0.9,1.5,1.6,2.7,2.3,3.9c-2-6.5,0.2-12.6,1.1-18.8c1.7-10.9,2-21.9,0.9-32.9c-0.6-6.4-1.2-12.8-1.7-19.1
			c-0.1-0.8-0.1-1.6,0.2-2.3c0.3-0.8,0.9-1.7,1.6-2c0.5-0.2,1.6,0.3,2.1,0.8c5.7,5.7,12.4,9.8,19.9,12.6
			C93.5,265.9,96.3,266.9,99.8,268.2z"/>
		<path class="st0" d="M266.5,36.7c-2.7,5.2-5.4,10.5-8.3,15.6c-1,1.9-3.1,1.1-4.5,0.7c-4.6-1.3-9.1-2.7-13.5-4.3
			c-3.2-1.1-6.2-2.7-9.4-3.9c7.9,4.7,15.4,10.3,24.9,12.5c-1.7,3.7-3.5,7.5-5.2,11.2c-0.8,1.8-1.5,3.8-1.8,5.8
			c-0.2,1.5-0.8,2.2-2.1,2.7c-14.1,6.7-27.3,4.4-39.5-4.4c-4.4-3.2-8.5-7-11.8-11.2c-7.4-9.3-7.6-19.7-3.1-30.4
			c2.2-5.4,5.3-6.8,10.8-4.9c4.7,1.7,9.2,4.1,13.9,6.1c6.5,2.7,12.9,5.7,19.6,7.6c10.2,3,20.2,1.9,29.5-3.6
			C266.1,36.4,266.3,36.5,266.5,36.7z M210.4,38.3c-3-5.9-6.9-7.8-10-5.9C203.4,34.2,206.7,36.1,210.4,38.3z M231.3,48.1
			c-4.4-3.4-8.8-6.8-13.2-10.2C221.6,42.4,225.7,46.3,231.3,48.1z M217.4,43.2c0.3-0.3,0.6-0.6,0.8-0.9c-2.1-3.8-5.2-6.6-8.8-8.7
			c-0.2,0.2-0.5,0.5-0.7,0.7C211.6,37.2,214.5,40.2,217.4,43.2z M243,73.3c-2.9,0.6-5.6,1.2-8.7,1.9C238,76.9,240.4,75.2,243,73.3z
			 M218.9,72c-3.3-1.9-6-3.5-8.7-5.1C212,70,215,71,218.9,72z M200.3,35.5c-2.6-1.5-4.6-0.4-5.1,2.5
			C196.8,37.3,198.6,36.4,200.3,35.5z"/>
		<path class="st0" d="M63.2,267c2.4,20,1.5,39.5-3.8,58.8c-1.6,6-1.7,12.3-2.8,18.5c-0.8,4.6-2.1,9-3.3,13.5
			c-0.6,2.4-1.5,4.8-2.8,7.3c-1.1-5.3-2.5-10.6-3.3-16c-1.6-10.6,0.7-20.8,3.4-30.9c1.9-7,3.2-14,3.5-21.2c0.3-9.3,3.2-17.8,7.2-26
			c0.5-1.1,1-2.2,1.4-3.2C62.8,267.5,62.9,267.4,63.2,267z"/>
		<path class="st0" d="M23.5,264c-1-2.8-1.9-5.6-3-8.4c-2.9-7.5-6.3-14.9-8.6-22.5C6.3,214.7,5,195.8,6,176.6
			c0.9-16.1,4.2-31.4,11.1-46c0.2-0.3,0.3-0.7,1-1c-0.2,1.5-0.4,2.9-0.5,4.4c-0.4,5.4-0.5,10.9-1.1,16.3c-0.4,3.7-1.2,7.5-2.1,11.1
			c-3.4,13.7-4.1,27.5-2.9,41.7c1.1,12.7,5.2,24.5,8.5,36.6C22.3,247.7,23.5,255.8,23.5,264z"/>
		<path class="st0" d="M16.6,165.7c-0.5,9.5-1,19.1-1.4,28.6C13.4,190,14.4,170.9,16.6,165.7z"/>
		<path d="M213.7,177.9c-2.1,2.9-3.8,6.2-6.3,8.8c-3.5,3.8-5.7,8-6.9,13c-0.4,1.9-1.2,3.7-2,6.1c0.3-4.2,0.5-7.7,0.7-11.2
			c0.2-2.8,1.4-5,3.4-6.8c3.5-3.4,7-6.8,10.5-10.2C213.3,177.7,213.5,177.8,213.7,177.9z"/>
		<path d="M97,83c11.1-8.4,21.2-12.7,30.8-12.9c-3.3,1-6.9,1.9-10.3,3.2c-3.5,1.3-6.9,2.8-10.2,4.4C103.9,79.2,100.7,81.1,97,83z"/>
		<path d="M176.5,259.4c4.1,6.5,5.6,13.5,5.1,19.2C180.1,273.3,178.3,266.4,176.5,259.4z"/>
		<path d="M99.4,107.6c2.2-5.2,9.4-13.8,15.3-18.2C109.7,95.4,104.5,101.6,99.4,107.6z"/>
		<path d="M95.2,80.9c-2.4,1.4-4.9,2.9-7.3,4.3c-2.2,1.2-4.4,2.4-6.6,3.3C85.2,84.7,89.9,82.2,95.2,80.9z"/>
		<path d="M276.6,333.5c-1.3-3.3-1.9-6.6,0-10.2C276.6,327,276.6,330.3,276.6,333.5z"/>
		<path d="M42.7,318.3c-2,4.6-4,6.4-6.3,5.7C38.5,322.1,40.8,320,42.7,318.3z"/>
		<path d="M209.6,381.9c-0.7,2-1.4,4-2,6c-0.3-0.1-0.6-0.2-0.8-0.3c0.7-2,1.4-4,2-6C209,381.7,209.3,381.8,209.6,381.9z"/>
		<path d="M84.8,78.3c2.6-0.8,5.1-1.6,7.7-2.4c0.1,0.2,0.1,0.4,0.2,0.6c-2.6,0.8-5.1,1.6-7.7,2.4C84.9,78.7,84.9,78.5,84.8,78.3z"/>
		<path d="M335.8,78.2c0.7,0.1,1.3,0.2,1.9,0.3c-2.5,2.7-4.7,5.6-7.5,7.7c-2.7,2.1-6.1,3.4-9.1,5c-2.7-3.6-2.1-5.9,1-10.2
			c2.9-4,6.8-2.8,10.3-3.1c3.1-5.9-0.8-11.4-0.8-17.1C336.7,70.8,337.1,72.5,335.8,78.2z"/>
		<path d="M355.6,67.3c9-14.1,23.2-20.6,38.4-25.7C380,48.3,367,56.5,355.6,67.3z"/>
		<path d="M282.7,144.7c-0.4,2.6-2.3,3.3-4.3,4c-3.4,1.1-5.3,4.8-3.8,7.9c0.3,0.7,1.8,1.1,2.7,1.2c3.6,0.2,3.6,0.2,5,1.8
			c-2.7,1.3-5.5,1.6-8.1,0.5c-2.6-1-2.7-3.4-2.6-5.8c0.2-5.9,1.4-7.3,7.2-8.3C280,145.7,281.2,145.2,282.7,144.7z"/>
		<path d="M253,156.8c0.7-0.5,1.3-0.8,1.7-1.3c0.7-0.8,1.3-1.8,2.1-2.5c1.8-1.4,1.5-2.7,0-4.1c-1.3-1.2-2.6-2.3-3.7-3.7
			c-0.6-0.8-0.8-1.9-1.2-2.8c0.3-0.2,0.6-0.4,0.8-0.7c2.5,2.2,5.2,4.2,7.5,6.6c1.5,1.6,1.5,3.9,0,5.6c-1.4,1.6-3,3-4.6,4.4
			C254.5,159.4,253.9,159,253,156.8z"/>
		<path d="M251.5,136c7.6,3.3,15.1,3.2,22.9,2C265.9,141.8,255,142,251.5,136z"/>
		<path d="M421.7,50.9c0.7,7.6-3.7,13.7-14.1,18.5c2.2-1.9,4.4-3.4,6.1-5.3c1.8-1.9,3.5-4.1,4.8-6.4C419.9,55.5,420.8,53,421.7,50.9
			z"/>
		<path d="M407.2,40.4c-4.5,1.6-8.9,3.2-13.4,4.8C397.6,41.7,402.2,40.6,407.2,40.4z"/>
		<path d="M311.4,143.3c-0.2,0.7-0.4,1.5-0.7,2.1c-1.8,3.5-3.6,7-5.3,10.5c-0.3-0.1-0.6-0.3-0.8-0.4c2-4.2,4.1-8.4,6.1-12.6
			C310.8,143,311.1,143.1,311.4,143.3z"/>
		<path d="M295.3,71.2c0.3,2.8,0.6,6.1,0.9,9.1C293,77,292.9,75.4,295.3,71.2z"/>
		<path d="M399.3,74.9c-4,2.5-8.3,3.4-12.9,3.2C390.7,77.1,395,76,399.3,74.9z"/>
		<path d="M298.3,39.9c0.2-3.1,0.4-7,4.1-9.8C300.9,33.7,299.5,37.1,298.3,39.9z"/>
		<path d="M311.6,110.3c-0.6-4.5,2.1-7.5,4.1-10.7C314.3,103.1,313,106.5,311.6,110.3z"/>
		<path d="M369,82.9c-3.1-0.6-6.3-1.2-9.4-1.8c0-0.3,0.1-0.5,0.1-0.8c3.1,0.6,6.3,1.2,9.4,1.8C369.1,82.3,369.1,82.6,369,82.9z"/>
		<path d="M278.8,68.7c1.9,3,1.9,4.1-0.5,7.1C278.4,73.6,278.6,71,278.8,68.7z"/>
		<path d="M416.7,42.9c-3.2,0-5.9,0-8.7,0C410.9,41,413.6,41.6,416.7,42.9z"/>
		<path d="M374,80.9c1.7-0.1,4.8-0.4,7.9-0.6c0,0.2,0,0.4,0,0.6C378.9,80.9,375.7,80.9,374,80.9z"/>
		<path d="M210.4,38.3c-3.7-2.2-6.9-4.1-10-5.9C203.4,30.5,207.3,32.4,210.4,38.3z"/>
		<path d="M231.3,48.1c-5.6-1.8-9.7-5.6-13.2-10.2C222.5,41.3,226.9,44.7,231.3,48.1z"/>
		<path d="M217.4,43.2c-2.9-3-5.8-6-8.7-8.9c0.2-0.2,0.5-0.5,0.7-0.7c3.6,2.2,6.7,5,8.8,8.7C218,42.6,217.7,42.9,217.4,43.2z"/>
		<path d="M243,73.3c-2.6,1.9-5,3.6-8.7,1.9C237.5,74.5,240.1,73.9,243,73.3z"/>
		<path d="M218.9,72c-3.8-0.9-6.8-2-8.7-5.1C212.8,68.5,215.6,70,218.9,72z"/>
		<path d="M200.3,35.5c-1.8,0.9-3.6,1.8-5.1,2.5C195.7,35.2,197.8,34,200.3,35.5z"/>
	</g>
</g>
</svg>
