<?xml version="1.0" encoding="utf-8"?>
<!-- Generator: Adobe Illustrator 19.2.1, SVG Export Plug-In . SVG Version: 6.00 Build 0)  -->
<svg version="1.1" id="Layer_1" xmlns="http://www.w3.org/2000/svg" xmlns:xlink="http://www.w3.org/1999/xlink" x="0px" y="0px"
	 viewBox="0 0 490.2 490.6" style="enable-background:new 0 0 490.2 490.6;" xml:space="preserve">
<style type="text/css">
	.st0{fill:#FFFFFF;}
</style>
<g>
	<path d="M490.2,245.9c3,119.9-97.8,248.7-253.7,244.6C119.5,487.4,1,392.2,0,245.9C-0.9,110.4,108.4,0.4,244.4,0
		C386.2-0.4,492.1,116.1,490.2,245.9z M245.3,4.7C112.9,2.4,2.7,114.7,4.5,245.2C2.2,369.8,104.9,485.7,244.3,486.5
		c132,0.7,242.2-106.5,242-241.5C486.1,108.8,373.3,2.4,245.3,4.7z"/>
	<path class="st0" d="M245.3,4.7c128-2.3,240.9,104.1,241,240.3c0.2,135-110,242.2-242,241.5C104.9,485.7,2.2,369.8,4.5,245.2
		C2.7,114.7,112.9,2.4,245.3,4.7z M245.3,15.1C119,13.5,15.3,119,14.7,243.8C14,368,114.2,475.4,244.4,475.9
		c127.8,0.4,231.8-103,231.4-230.4C475.3,109.9,363.7,13.1,245.3,15.1z"/>
	<path d="M245.3,15.1c118.4-2,230.1,94.8,230.5,230.4c0.4,127.4-103.6,230.8-231.4,230.4C114.2,475.4,14,368,14.7,243.8
		C15.3,119,119,13.5,245.3,15.1z M19.3,245.5c-2,119.8,96.4,221.4,216.5,226c128.5,4.9,235.6-96.9,235.7-226.2
		C471.6,120.5,370.4,19,245.9,18.8C116.7,18.7,17.2,126,19.3,245.5z"/>
	<path class="st0" d="M19.3,245.5C17.2,126,116.7,18.7,245.9,18.8C370.4,19,471.6,120.5,471.5,245.3
		c-0.1,129.3-107.2,231.1-235.7,226.2C115.7,466.8,17.3,365.3,19.3,245.5z M154.9,415.8c-7.5,10.7-4.1,25.4,6.4,29.7
		c5.1,2.1,10.3,2.2,15.4,0.2c7.3-2.9,10.5-8.9,11.8-16.8c12.1,23,30.5,35.9,56.1,36.2c25.8,0.3,44.2-12.9,56.9-34.4
		c2.1,3.7,3.7,7.5,6.2,10.6c2.5,3.2,6.3,5,10.5,5.5c4.2,0.5,8.2,0.1,12-2c3.8-2,6.8-4.9,8.2-8.9c2.5-7.2,1.5-14.1-3-20.7
		c24.9,7.3,47.2,3.6,65.5-14.8c18.3-18.3,21.9-40.6,14.7-65.2c14,9.3,26.5,1.9,30.2-6.4c2.2-5,2-10.1,0.1-15.1
		c-2.7-7.3-8.8-10.2-16.3-11.8c22.6-12.7,35.8-31.1,35.7-57.1c-0.1-25.9-13.5-44.1-35.9-56.4c14.5-4.2,20.8-13.4,17-25
		c-2.1-6.4-6.5-10.5-13.1-12.1c-6.3-1.5-12.2-0.1-17.4,3.6c6-24.5,3.7-46.9-15.1-65.2c-18.5-18-40.6-22.2-65.3-14.8
		c7.9-10.1,3.9-25.7-5.1-29.7c-5.3-2.4-10.7-2.5-16.2-0.7c-7.5,2.4-10.4,8.5-11.9,16.2c-2.2-3.3-4-6.1-5.9-8.8
		c-20.3-29.3-60.4-35.6-88.6-14c-6,4.6-10.8,10.3-15,16.5c-1.2,1.8-2.8,3.4-4.4,5.4c-4.4-13.8-14.6-19.7-25.8-15.4
		c-4.6,1.8-8.3,4.8-10,9.5c-2.7,7.3-1.7,14.3,2.9,21c-24.9-7.4-47-3.4-65.5,14.8c-18.7,18.4-21.3,40.8-14.9,65.2
		c-8.7-4-11.7-4.6-16.5-3.9c-6.3,0.9-10.7,4.2-13.3,9.9c-2.4,5.2-2.3,10.6-0.3,15.9c2.7,7.3,8.9,9.8,16.2,11.5
		c-1.4,0.9-2.5,1.5-3.5,2.1c-7.1,4.1-13.3,9.3-18.5,15.8c-18.1,22.3-17.9,56,0.3,78.1c4.5,5.4,9.8,9.7,15.6,13.6
		c1.7,1.2,3.3,2.6,5.3,4.2c-16,2.9-18.7,16.9-15.5,25.7c3.7,10.2,16.9,16,30.5,7.3c-7.4,24.6-3.2,46.6,14.6,65.1
		C107.9,419.4,130.5,421.8,154.9,415.8z"/>
	<path d="M154.9,415.8c-24.4,6-46.9,3.6-65.2-15.3C71.8,382,67.6,360,75,335.4c-13.6,8.7-26.8,2.9-30.5-7.3
		c-3.2-8.8-0.5-22.8,15.5-25.7c-2-1.6-3.6-3-5.3-4.2c-5.8-3.9-11.1-8.2-15.6-13.6c-18.3-22.1-18.4-55.8-0.3-78.1
		c5.2-6.4,11.4-11.6,18.5-15.8c1-0.6,2.1-1.2,3.5-2.1c-7.2-1.7-13.5-4.3-16.2-11.5c-2-5.3-2-10.7,0.3-15.9c2.6-5.7,7-9,13.3-9.9
		c4.9-0.7,7.9-0.1,16.5,3.9c-6.4-24.4-3.8-46.8,14.9-65.2c18.5-18.2,40.6-22.2,65.5-14.8c-4.6-6.8-5.6-13.7-2.9-21
		c1.7-4.7,5.4-7.7,10-9.5c11.3-4.3,21.4,1.6,25.8,15.4c1.6-2,3.1-3.6,4.4-5.4c4.2-6.2,9-11.9,15-16.5c28.3-21.6,68.3-15.3,88.6,14
		c1.9,2.7,3.7,5.5,5.9,8.8c1.6-7.6,4.4-13.8,11.9-16.2c5.4-1.7,10.8-1.6,16.2,0.7c9,4,13,19.6,5.1,29.7c24.7-7.4,46.8-3.2,65.3,14.8
		c18.8,18.2,21.1,40.7,15.1,65.2c5.2-3.7,11.1-5,17.4-3.6c6.6,1.5,11,5.7,13.1,12.1c3.8,11.6-2.5,20.8-17,25
		c22.4,12.3,35.8,30.4,35.9,56.4c0.1,25.9-13.1,44.4-35.7,57.1c7.4,1.6,13.6,4.5,16.3,11.8c1.9,5,2.1,10.1-0.1,15.1
		c-3.7,8.3-16.3,15.7-30.2,6.4c7.2,24.6,3.6,46.9-14.7,65.2c-18.3,18.4-40.6,22.1-65.5,14.8c4.5,6.6,5.5,13.5,3,20.7
		c-1.4,4.1-4.4,6.9-8.2,8.9c-3.8,2-7.8,2.5-12,2c-4.2-0.5-7.9-2.3-10.5-5.5c-2.5-3.1-4.1-6.9-6.2-10.6
		c-12.7,21.4-31.1,34.7-56.9,34.4c-25.6-0.3-44-13.3-56.1-36.2c-1.3,7.8-4.5,13.9-11.8,16.8c-5.1,2-10.2,1.9-15.4-0.2
		C150.8,441.2,147.4,426.5,154.9,415.8z M204.2,400.3c-4.4-1.4-8.5-2.8-12.7-4c-3.2-0.9-4.4-0.2-4.2,3.2c0.3,5.2,0.6,10.5,1.6,15.7
		c6.3,33.5,43.6,54.5,75.7,42.6c22.7-8.4,38.1-30.1,38.6-54.5c0.1-2.6-0.3-5.2-0.5-8.1c-1.2,0.3-2,0.5-2.7,0.7
		c-3.7,1.2-7.4,2.6-11.2,3.7c-1.6,0.5-2.2,1.3-2.3,2.9c-0.2,3-0.3,6-0.9,8.9c-3.6,20.2-22.4,37.9-48.5,33.1
		c-13.1-2.4-22.8-10.6-28.6-22.7C205.2,415.2,203.7,408.1,204.2,400.3z M395.1,302.6c1.9,0.3,3,0.6,4.1,0.5
		c5.1-0.3,10.2-0.2,15.2-1.2c29.5-5.6,50.7-35.3,46.1-64.9c-4.1-26.7-27.1-51-62.2-49.8c-2.2,0.1-3,1-2.4,3.1
		c1.2,3.9,2.3,7.9,3.6,11.8c0.2,0.7,1.2,1.3,2,1.5c2.6,0.5,5.2,0.7,7.8,1c20,2.4,34.4,18.3,35.8,39.3c1.2,18-12,36-30.2,40.7
		c-3.8,1-7.8,1.1-11.7,1.7c-1.1,0.2-2.9,0.4-3.2,1.1C398.3,292.3,396.9,297.3,395.1,302.6z M95.2,302.8c-1.5-5-2.8-9.4-4.1-13.9
		c-0.4-1.5-1-2.1-2.6-2.2c-4.3-0.5-8.8-0.9-13-2c-16.7-4.5-28.8-19-30.3-36.5c-1.2-12.9,5.1-30.1,21.4-38.8c6.9-3.7,14.3-5,22-5.6
		c1.5-0.1,2.1-0.7,2.5-2.1c1-3.6,2.2-7.2,3.2-10.8c0.8-3,0.4-3.6-2.8-3.6c-16.9,0.1-32.2,4.3-44.4,16.9
		c-14.6,15-20.7,32.6-16.3,53.1c4.3,20,16.7,33.5,35.2,41.7C75.1,303.1,84.7,303.3,95.2,302.8z M302.5,95.1c1.2-6,0.7-11.4-0.1-16.7
		c-2.6-17-11.9-29.8-25.7-39.4c-11.4-7.9-24.5-10.7-38.3-9.1c-16.4,1.9-29.2,10.2-39.3,23c-9.2,11.6-11.7,25.2-11.7,39.5
		c0,1.7,0.6,2.8,2.5,2.2c3.8-1.2,7.7-2.2,11.5-3.7c1.1-0.4,2-2.1,2.3-3.3c0.8-3.2,1-6.6,1.7-9.8c4.1-22.2,27.8-36.5,48.8-31.6
		c18,4.2,30.4,19,32.1,38.6c0.5,5.7,0.5,5.8,6,7.5C295.6,93.3,298.9,94.1,302.5,95.1z M310.4,391.8c16.3,18.3,36,27.3,60.1,21.2
		c23.3-5.9,38.1-21.7,43.1-45.2c5-23.3-4.7-41.8-21.7-57.4c-1.8,3.6-3.6,7.2-5.3,10.7c-2.5,5-2.3,4.8,1.4,9.1
		c11.1,13.1,14.7,27.9,7.6,43.7c-7,15.5-19.1,24.8-37,24.6c-1.8,0-3.5,0.2-5.3-0.1c-3.2-0.5-6.4-0.9-9.4-2.1
		c-6.1-2.4-11.5-6.1-16-10.8c-0.9-0.9-1.6-1.6-3.1-0.9C320,387.2,315.3,389.4,310.4,391.8z M180.1,391.9c-4.7-2.3-9.2-4.4-13.6-6.8
		c-1.5-0.8-2.4-0.5-3.6,0.6c-9.1,8.5-19.3,13.9-32.4,13c-6-0.4-11.5-1.5-16.8-4.4c-15.1-8.3-23.5-24.1-21.9-41.1
		c1-9.9,5.4-18.1,12.5-24.7c2.1-1.9,2.2-3.4,0.8-5.7c-2.4-3.6-4.4-7.5-6.8-11.7c-16,13.7-23.8,30.2-22.2,50.7
		c1.8,22.4,16.4,42.5,39.5,50.1C139.3,419.6,161.7,412.2,180.1,391.9z M391.8,180.1c19-16.6,27.3-38.3,21.1-60.3
		C406,95.2,389.4,80,363.8,76.4c-21.7-3-39,6.1-53.3,22.1c4.5,2.5,9,4.9,13.4,7.5c1.6,0.9,2.3,0.5,3.5-0.7
		c10-10.2,22-15.5,36.5-13.4c28.3,4,43.8,35.9,29.5,60.6c-2.3,3.9-5.3,7.4-7.9,11.1c-0.4,0.6-0.9,1.7-0.7,2.2
		C387,170.7,389.4,175.4,391.8,180.1z M180,98.6c-16.7-18.3-36.3-26.5-61-20.8c-20.4,4.7-40.7,25.7-42.8,49.6
		c-1.9,21.4,6.2,38.4,22,52.3c0.3-0.2,0.5-0.4,0.6-0.6c1.8-3.2,3.7-6.4,5.2-9.7c2.5-5.2,3-4.2-1.3-9c-8.5-9.4-12.2-20.3-10.9-32.9
		c3.3-29.6,37.9-45.8,62.8-29.3c2.8,1.9,5.4,4.2,8,6.4c1.5,1.3,2.8,1.7,4.7,0.6C171.5,103,175.6,100.9,180,98.6z M357.8,172.9
		c-7.4,1.1-14.1-1.1-20.2-5.1c-14.8-9.8-22.2-23.4-20.1-41.3c0.5-4.4,2.5-8.7,4.1-12.9c1.1-3.1,1.1-3.7-1.8-5.2
		c-2.9-1.6-6-2.9-8.9-4.5c-2.3-1.2-3.5-0.5-4.5,1.6c-6.6,13.2-9.1,27-5.5,41.5c6.4,25.5,27.7,43,54,44.3c10.9,0.5,21-2.3,30.5-7.4
		c1.8-1,2.3-2,1.3-4c-1.6-3.2-3.1-6.5-4.5-9.8c-0.9-2.2-2.1-2.8-4.4-1.6C371.5,171.9,365,173.9,357.8,172.9z M130.9,191.3
		c11.2,0,18.8-1.5,26.1-4.9c23.1-10.5,37.3-35.9,33.9-61c-1-7.3-3.7-14-7.2-20.5c-0.9-1.7-2-2.2-3.8-1.2c-3.3,1.7-6.7,3.4-10.1,5.1
		c-1.4,0.7-1.9,1.7-1.3,3.2c0.8,2,1.5,4.1,2.2,6.2c3,8.7,3.9,17.9,0.9,26.3c-7.2,19.9-23.9,31.7-47.3,28.1
		c-3.9-0.6-7.6-2.4-11.4-3.8c-2.2-0.8-3.6-0.5-4.7,1.7c-1.3,2.9-2.9,5.6-4.2,8.5c-1.6,3.4-1.5,3.5,1.7,5.2
		C114.4,188.9,123.4,191.6,130.9,191.3z M191.5,356c-0.1-1.3-0.3-3.3-0.5-5.3c-2.4-20.1-13.3-34.9-30.4-44.6
		c-12.5-7.1-26.6-9.3-40.9-5c-4.9,1.5-9.7,3.4-14.5,5.4c-2,0.8-2.7,2.3-1.5,4.4c1.7,2.9,3.3,5.8,4.8,8.7c1.2,2.4,2.8,2.7,5.3,1.8
		c7.6-2.9,15.4-5.1,23.8-4.1c18.7,2.2,36.8,19.2,35.6,43.4c-0.3,6.3-2.3,12-5,17.6c-0.8,1.7-0.6,2.7,1.3,3.5c3.1,1.3,6,2.9,9,4.3
		c3.7,1.7,3.8,1.7,5.9-2C189.2,375.6,191.3,366.4,191.5,356z M299.2,358.6c0.3,2.2,0.4,6.2,1.4,9.9c1.5,5.5,3.3,10.9,5.4,16.1
		c1.2,3.1,2,3.2,5.1,1.8c2.1-0.9,4.1-1.9,6.2-2.9c5.7-2.9,5.8-2.9,3.4-8.8c-3-7.5-4.3-15.2-3.1-23.2c3.2-20.3,20.6-34.8,41.2-34.6
		c6.8,0.1,13.2,1.8,19.1,5.1c2,1.1,3.1,0.7,4-1.4c1.4-3.4,3-6.7,4.7-10c1.2-2.2,0.5-3.4-1.5-4.4c-0.6-0.3-1.1-0.6-1.6-0.9
		c-17.4-7.9-35.2-9.1-52.2-0.1C310.9,316.1,299.8,333.4,299.2,358.6z M396,204.7c-1.5-4.9-2.9-9.4-4.4-14c-0.2-0.6-1.5-1.2-2.1-1.1
		c-2.8,0.6-5.7,1.1-8.3,2.3c-31.8,15-42.2,46.1-31.5,74.3c6.6,17.5,19.5,28.8,37.2,34.5c2.9,0.9,3.8,0.6,4.9-2.2
		c0.8-2,1.5-4.1,2.1-6.2c1.9-6.2,1.8-6.1-4.1-8.7c-16.4-7.1-25.1-19.9-26.3-37.4c-1.1-16.2,10.3-32.9,25.5-38.8
		C391.2,206.5,393.5,205.6,396,204.7z M188.4,100c3.8,10.9,8.2,20.8,16.7,28.6c14.1,12.9,30.2,18.7,49.3,15.7
		c14.5-2.3,26.1-9.8,35.6-20.7c5.2-5.9,8.6-12.9,10.8-20.5c0.7-2.4,0.1-3.6-2.3-4.3c-2.1-0.6-4.1-1.4-6.2-2.1c-6.3-2-6.3-2-8.7,4
		c-0.2,0.4-0.3,0.8-0.5,1.2c-7.7,18.1-27.6,28.6-46.7,24.1c-14.3-3.3-24.1-12.4-29.5-26c-0.7-1.8-1.4-3.5-2.1-5.5
		C199.2,96.4,194,98.1,188.4,100z M145.2,245.2c-0.2-2.6-0.4-4.9-0.6-7.3c0-0.5-0.1-1-0.2-1.6c-3.4-18.9-14.1-32.5-30.4-42
		c-3.3-1.9-7.3-2.9-11-4c-1-0.3-3.2,0.5-3.5,1.3c-1.6,3.9-2.8,7.9-3.9,11.9c-0.2,0.7,1.1,2.4,1.8,2.5c5.2,0.8,9.2,3.8,13.2,6.7
		c19.1,14.1,21.9,42.1,6,59.8c-5.2,5.7-11.6,9.6-18.8,12.2c-2.2,0.8-3.2,1.9-2.4,4.3c1.1,3.2,2.2,6.5,3.3,9.7
		c0.8,2.4,2.5,3.1,4.8,2.2c2.7-1,5.4-2.1,8-3.4C133.1,286.6,143.9,268.8,145.2,245.2z M189.9,389c0.7,0.7,1.4,2.2,2.6,2.7
		c2.3,1.2,4.9,1.9,7.4,2.7c4.9,1.7,4.9,1.6,6.5-3.4c0.1-0.3,0.2-0.5,0.3-0.7c5.8-15.2,17.3-23.6,32.8-26.3c15.3-2.7,28,3.1,37.7,15
		c3.2,3.9,5,9,7.2,13.6c1,2,1.9,3.3,4.4,2.5c2.6-0.9,5.4-1.6,8-2.5c4.8-1.7,5.3-2.8,3.5-7.6c-3.6-9.7-9.5-17.9-17.1-24.9
		c-11.3-10.6-25.2-14.9-40.2-14.4c-18.7,0.7-33.6,9.4-44.7,24.5C194.1,375.6,191.2,381.5,189.9,389z M117.2,341.7
		c-2.8-4.1-5.6-8.1-8.4-12.1c-18.5,17.6-16,43.4,0.7,57c17.9,14.6,41.2,7.4,51.1-5.1c-3.9-2.8-7.8-5.5-11.9-8.4
		c-4.5,4.3-9.4,7.2-15.7,7c-6.2-0.2-11.6-2.4-16.1-6.8C108.7,365.2,108.8,354.3,117.2,341.7z M329.5,381.6
		c10.6,10.8,22.7,15.4,37.4,11.7c15.1-3.7,24.4-15.4,26.7-26.9c2.8-14.2-1-26.6-12.1-36.7c-1.5,2.2-2.9,4.1-4.2,6
		c-1.4,2-2.7,4-4.1,6c8.6,13.3,8.9,21.6,1.2,30.5c-3.3,3.7-7.3,6.2-12.1,7.4c-8.1,2-14.6-1.6-20.6-6.3
		C337.6,376.1,333.8,378.7,329.5,381.6z M341.7,117.3c1-0.8,1.9-1.5,2.8-2.1c10.7-7.8,24.9-5.4,31.7,5.5c5.3,8.6,4.7,17.1-0.7,25.4
		c-1,1.6-1.8,3-0.7,4.8c2.1,3.3,4.3,6.5,6.6,10c11.2-10.2,15.3-22.8,12.1-36.9c-3.1-13.6-12.1-23.3-25.9-26.8
		c-14.6-3.8-27.5,0.4-38.1,11.7C333.7,111.8,337.7,114.5,341.7,117.3z M89.3,208.2c-2.4,0.2-4.6,0.4-6.7,0.7
		c-14.2,1.9-24.7,9.3-30.2,22.4c-5.1,12.3-4,24.6,4.2,35.6c7.3,9.8,17.1,15,29.5,15.3c2.3,0.1,3.3-0.6,2.7-3.1
		c-0.6-2.3-0.9-4.6-1.3-7c-0.8-4.4-0.8-4.4-5.2-5.2c-9.1-1.7-16.7-9.6-17.7-18.5c-1.2-10.8,3.7-19.3,13.3-23.2
		c2.1-0.8,4.4-1.1,6.5-2.1c1.2-0.6,2.5-1.8,2.8-3C88,216.4,88.5,212.5,89.3,208.2z M160.7,109.1c-10.3-11.7-23.7-15.7-39.6-11.3
		c-13.6,3.7-23.8,17.3-24.9,32c-0.9,12.4,3.5,22.4,12.8,31c2.6-3.8,5-7.1,7.2-10.6c0.4-0.7,0.4-2.2-0.1-2.8c-2.8-2.9-4-6.5-4.8-10.3
		c-2.1-9.4,1.8-18,10.3-23.3c8.6-5.4,19.2-3.1,25.3,2c1.4,1.1,2.4,1.1,3.7,0.2C153.8,113.7,157.2,111.5,160.7,109.1z M281.9,89.3
		c0.6-14.2-5.7-27.7-18.7-34.8c-13.4-7.3-26.8-7-39.3,2.1c-11,8-15.7,19.2-15.7,32.7c3.3-0.6,6.4-1.1,9.4-1.6c5-0.8,4.8-0.9,6-5.9
		c1.9-7.7,6.5-13.6,14.2-16c8-2.6,15.8-1.7,22.2,4.5c3.9,3.8,6.4,8.3,7.1,13.8c0.2,1.8,1.1,2.9,2.9,3.2
		C274,87.9,277.9,88.6,281.9,89.3z M281.8,401.6c-4.2,0.7-8.3,1.2-12.3,2c-0.9,0.2-1.6,1.7-2.1,2.7c-0.3,0.6-0.1,1.4-0.3,2.1
		c-3.7,16.9-23.4,23.4-36.5,12.2c-4.6-3.9-6.2-9.1-7.5-14.6c-0.2-0.9-0.8-2.3-1.5-2.4c-4.3-0.8-8.6-1.3-12.9-1.9
		c-2.4,9,4.6,24.6,14.5,32c11.9,8.9,28.1,9.6,41,1.8C276.3,428.3,282.7,414.8,281.8,401.6z M401.1,208.3c0.5,2.5,1,4.8,1.4,7.1
		c1.3,7.6-0.1,6.7,8.2,8.9c9,2.4,15.5,11.1,15.6,20.5c0.2,9.5-6.2,18.5-15,21.3c-1.6,0.5-3.3,0.6-4.8,1.3c-1.1,0.5-2.4,1.6-2.7,2.7
		c-0.9,3.3-1.4,6.7-2.1,10c-0.3,1.7,0.8,2.1,2,1.9c2.7-0.2,5.4-0.5,8-1.1c27.2-6.2,36.5-35.7,23.1-55.8
		C426.9,213.3,415.3,208.4,401.1,208.3z M198.1,201.9c-2.9,0.2-6.2,0.3-9.5,0.7c-8.1,1-15.8,3.1-22.2,8.5c-0.7,0.6-1.3,1.8-1.1,2.6
		c1.8,8,4.5,15.6,9.9,22.1c5.7,6.7,5.9,6.9,14.1,3.4c13.8-5.9,27.4-5.7,40.9,1.1c1.2,0.6,2.4,1.1,3.7,1.4c0.5,0.1,1.2-0.3,1.8-0.5
		c-0.2-0.6-0.3-1.5-0.8-1.8c-1-0.7-2.2-1.1-3.3-1.5c-11.5-4.3-21.3-10.8-27.1-22C202.1,211.5,200.3,206.9,198.1,201.9z M296.9,288.6
		c2-0.2,4-0.3,6-0.6c7.2-1,13.9-3.3,19.9-7.6c1.9-1.4,2.7-2.9,2-5.4c-2.3-8.3-5.7-16-11.5-22.5c-3.4-3.8-5.3-4.2-9.9-2.1
		c-14.6,6.9-29.1,6.9-43.5-0.3c-1-0.5-2.1-1-3.2-1.2c-0.6-0.1-1.3,0.3-2,0.5c0.3,0.7,0.5,1.5,1,1.9c0.8,0.6,1.9,0.9,2.9,1.2
		c15.4,5.4,26.1,15.7,31.7,31.1C292.1,288.4,292,288.4,296.9,288.6z M201.9,198.7c1.9,0.5,3.6,0.9,5.2,1.5
		c15.3,5.9,25.8,16.4,31,32.1c0.3,1,0.8,1.9,1.4,2.8c0.3,0.4,1.1,0.4,1.6,0.5c0.2-0.5,0.6-1.2,0.4-1.6c-0.4-1.5-1.1-2.9-1.6-4.4
		c-1.6-5.4-3.7-10.8-4.6-16.3c-1.5-9.5,0.8-18.6,5-27.2c1.9-4,1.7-4.9-1.5-8c-6.2-5.9-13.5-9.9-21.9-11.8c-4.6-1-5.4-0.6-8,3.4
		C203.2,178.4,202.1,188.3,201.9,198.7z M241.9,255.1c-0.5-0.2-1-0.4-1.5-0.6c-1,2.1-2.3,4.1-3.1,6.3c-5.7,15.4-16.9,25-32.2,30.1
		c-2.2,0.7-3.2,1.9-3,3.9c0.5,4.9,0.7,10,2,14.7c1.3,4.6,3.6,9.1,5.9,13.4c0.6,1.1,2.8,2.3,4,2.1c8.6-1.5,16.3-5.1,23.1-10.7
		c5.2-4.3,5.3-5.2,2.7-11.4c-0.3-0.8-0.7-1.6-1-2.4c-3.6-8.7-4.9-17.8-2.9-27c1.1-5,3.3-9.7,5-14.6
		C241.2,257.6,241.5,256.3,241.9,255.1z M193.6,288.4c4.9,0,5,0,6.4-4.6c0.5-1.6,1-3.2,1.8-4.7c5.9-12.5,15.6-20.9,28.4-25.9
		c1.2-0.5,2.6-0.8,3.6-1.5c0.8-0.5,1.2-1.6,1.8-2.5c-1,0-2-0.4-2.9-0.1c-1.5,0.5-2.9,1.3-4.3,1.9c-8.9,4.3-18.2,5.3-27.9,3.8
		c-5.9-0.9-11.2-3.2-16.5-5.8c-0.8-0.4-2.3-0.4-2.9,0.1c-8.1,7-13.2,15.7-15.3,26.3c-0.5,2.5,0.1,4.3,2.4,5.7
		C176,285.9,184.5,288.3,193.6,288.4z M254.7,241.8c1.3-0.3,2.4-0.3,3.3-0.7c2.5-0.9,4.9-1.9,7.3-2.9c8.3-3.3,16.8-4.4,25.5-2.4
		c4.5,1,8.8,2.8,13.1,4.5c2.7,1,5.3,1.9,7.6-0.4c7-7,11.8-15.1,12.9-25.2c0.3-2.5-0.7-4.1-2.8-5.4c-9-5.7-18.9-7.6-29.4-7.2
		c-1.2,3.1-2.2,6.2-3.5,9.1c-5.9,13.4-16.3,21.8-29.8,26.7C257.2,238.6,255,238.6,254.7,241.8z M288.5,297.2
		c-0.4-2.2,0.8-5.1-2.6-6.1c-16.4-5.1-27.6-15.8-33.2-32.1c-0.4-1.1-1-2.3-1.7-3.2c-0.3-0.4-1.1-0.5-1.7-0.8
		c-0.2,0.6-0.6,1.3-0.4,1.8c0.6,1.7,1.3,3.4,2.1,5.1c3.1,6.4,4.8,13.1,4.8,20.3c0,7.8-2.1,15-5.3,22c-2.1,4.6-1.9,5.4,1.7,8.9
		c6,5.8,13.3,9.3,21.3,11.4c4.1,1.1,5.3,0.7,7.7-2.9C286.1,314.3,287.9,305.9,288.5,297.2z M288.4,198.8c0.4-11-1.5-21.1-7.4-30.4
		c-1.6-2.6-3.7-3.2-6.5-2.6c-10.7,2.2-19.2,8.1-26.5,16.2c0.9,2,1.8,4,2.7,5.9c2.9,6.3,4.8,12.9,5,20c0.2,8.1-2.1,15.5-5.5,22.7
		c-0.6,1.2-1.1,2.4-1.4,3.6c-0.1,0.4,0.1,1.1,0.4,1.3c0.4,0.2,1.2,0.1,1.4-0.2c0.7-1.2,1.5-2.4,1.9-3.7c1.6-5.7,4.4-10.7,8.1-15.2
		C267.8,207.5,277.1,201.8,288.4,198.8z M368,246c-0.6,15.1,10,28.9,25.4,34.4c2.7,1,3.7,0.5,4.3-2.3c0.5-2.6,0.7-5.2,1.2-7.8
		c0.5-2.4-0.3-3.5-2.6-4.6c-8.2-3.9-13.5-10.1-13.7-19.5c-0.2-8.8,3.7-15.5,11.4-20c1.4-0.8,3-1.4,4.4-2.3c0.6-0.4,1.3-1.3,1.2-1.9
		c-0.5-3.1-1-6.2-1.8-9.3c-0.8-3.2-1.6-3.6-4.7-2.3C379.5,215.8,367.4,226.9,368,246z M244.4,368.1c-6.5-0.5-13.2,1.5-19.2,5.8
		c-6.9,4.9-12.1,11.1-14.9,19.2c-1.1,3.1-0.6,4.2,2.7,4.8c2.8,0.5,5.7,0.9,8.6,1c0.9,0,2.4-0.8,2.6-1.5c2.2-6.9,7.6-10.5,13.7-13.4
		c3.5-1.7,7.3-2.3,11.3-1.4c7.9,2,13.6,6.7,16.9,14.1c0.9,2.1,2.1,3,4.4,2.5c2.5-0.6,5-1,7.4-1.5c3-0.7,3.5-1.5,2.4-4.4
		C274.9,378.2,261.3,367.2,244.4,368.1z M122.5,245.1c0-4.7-0.4-9.5-2.5-14.1c-4.6-10.2-12.3-16.8-22.6-20.8c-2.8-1.1-4-0.5-4.6,2.4
		c-0.6,3-0.9,6.1-1.4,9.1c-0.3,1.7,0.4,2.4,2,3c10.8,3.6,17,15.3,14,26.3c-2.1,7.6-7.1,12.5-14.3,15.3c-1.2,0.5-2.6,0.7-2.2,2.6
		c0.7,3.1,1.2,6.2,2,9.2c0.7,2.6,1.8,3.1,4.3,2.2C112.3,274.8,123.2,261.5,122.5,245.1z M244.4,122.8c2.3-0.2,4.7-0.4,7-0.8
		c14.7-2.5,23.7-11.5,28.9-25c0.9-2.4,0.2-3.7-2.3-4.2c-2.6-0.6-5.2-0.7-7.8-1.2c-2.4-0.5-3.7-0.1-4.6,2.6
		c-3.4,9.8-15.4,16.2-25.3,13.4c-7.4-2-12.9-6.6-15.7-13.9c-0.9-2.3-1.9-3.4-4.6-2.4c-2.6,0.9-5.4,1.3-8.2,1.9
		c-2,0.4-2.5,1.5-1.9,3.4C214.8,112.7,230.8,123.4,244.4,122.8z M327.4,112.4c-7.9,11-9,31.9,4.1,45.5c13.4,13.9,32.7,13.4,46.3,5.6
		c-1.7-2.7-3.2-5.4-5-8c-2.5-3.7-2.9-3.8-7.1-2.4c-5.4,1.9-10.6,2-15.9-0.3c-11.5-5-16.5-17-12.1-29.4c0.6-1.6,0.8-2.9-0.7-4
		C333.8,117.1,330.6,114.8,327.4,112.4z M112.4,327.3c1.7,2.6,3.3,5.1,5.1,7.5c2.9,4,3,4,7.7,2.5c10.5-3.2,20.4,0.4,26,9.5
		c4.1,6.6,4.1,13.6,1.3,20.7c-0.7,1.8-0.5,3,1,4.1c3.2,2.2,6.5,4.3,9.7,6.5c9-14.2,7.4-33.9-5.4-46.4
		C144.8,318.8,124.2,319.2,112.4,327.3z M327.3,378c2.1-1.4,4.2-2.8,6.3-4.2c5.1-3.6,5.1-3.6,3.4-9.6c-2.4-8.3-0.5-15.7,5.7-21.7
		c6.9-6.5,15.1-8.2,24-4.7c1.9,0.8,3.4,0.5,4.6-1.1c2.3-3.1,4.5-6.2,6.8-9.3c-10.7-7.8-32.2-9.2-46.1,5
		C318.2,346.3,319.7,367.7,327.3,378z M163.5,112.5c-3.4,2.3-6.9,4.5-10.2,6.9c-0.7,0.5-1,2-0.9,3c0.1,1.5,0.8,2.9,1.2,4.3
		c3.3,12-3.6,23.9-15.6,27.2c-5.3,1.5-10.4,0.4-15.5-1.3c-0.9-0.3-2.5-0.2-2.9,0.4c-2.5,3.4-4.7,6.9-7,10.4
		c12.1,9,31.9,7.3,44.3-3.6C169.9,148.4,172.8,128.8,163.5,112.5z M161.5,215.9c-16.4,16.7-15,44.3,0.1,58.9
		c1.9-11.9,8.2-21.2,16.6-29.7C169.3,237.2,164.2,227.4,161.5,215.9z M216.5,328.8c2.9,6.1,14.8,11.3,25.9,11.8
		c12.3,0.6,23.2-2.5,32.4-11.8c-12.1-2-21.3-8.2-29.6-16.4C237,320.7,227.8,326.5,216.5,328.8z M328.8,274.7
		c16.1-13.4,15.2-47,0-58.7c-1.6,11.9-8.3,21-16.3,29.3C320.7,253.6,326.7,262.9,328.8,274.7z M274.6,161.5
		c-15.4-16.9-48.2-13.9-58.4,0.2c11.4,2.2,20.8,7.9,29.1,16.4C253.3,169.3,263.2,164.2,274.6,161.5z M197.1,292.8
		c-2.8-0.1-6-0.1-9.2-0.5c-7-0.7-13.4-3.3-19.6-6.4c-0.8-0.4-1.8-0.3-2.7-0.5c-0.1,0.9-0.2,1.8-0.1,2.7c0.1,1.1,0.5,2.2,0.8,3.3
		c5,18.1,16.6,29.1,34.9,33.2c1.2,0.3,2.5,0,3.8,0c-0.2-1.1-0.4-2.2-0.7-3.2c-1.5-3.9-3.4-7.7-4.4-11.8
		C198.5,304.2,198,298.6,197.1,292.8z M292.5,197.5c4.6,0.4,8.9,0.2,12.9,1.2c5.4,1.3,10.6,3.6,15.8,5.4c1,0.4,2.1,0.5,3.2,0.7
		c0.1-1.2,0.6-2.5,0.2-3.5c-2-5.4-3.5-11.1-6.4-16c-7.6-12.5-19.5-18.3-34.2-20.4C289.9,175.4,293.5,185.9,292.5,197.5z
		 M325.2,284.2c-10.3,5.9-20.9,9.3-32.8,8.4c0,3.9,0.3,7.3-0.1,10.7c-0.4,3.4-1.3,6.9-2.4,10.2c-1,3-2.5,5.8-3.7,8.7
		c-0.3,0.8-0.3,1.8-0.5,2.7c0.9,0.1,1.8,0.3,2.7,0.1c2.2-0.5,4.4-1.1,6.6-1.8C314.6,317,323.9,299.6,325.2,284.2z M197.1,197.9
		c0.8-6.1,1.1-11.8,2.5-17.1c1.4-5.3,3.9-10.3,5.9-15.5c-19.4,0.3-43.2,24.1-39.6,40.4C175.9,200.7,186.2,196.9,197.1,197.9z
		 M294.4,365.7c0.6-7.1,0.5-14,1.9-20.7c1.3-6.8,4-13.2,6.2-20c-0.5,0.1-0.8,0.2-1.2,0.4c-4.9,1.3-9.8,2.5-14.7,3.9
		c-2.9,0.8-5.9,1.6-8.5,3.1c-4.2,2.4-8,5.3-12.1,7.9c-1.4,0.9-3,1.7-5.2,2.9C274.8,347.4,286,354.8,294.4,365.7z M147.4,261
		c-4.1,14-11.8,25-22.4,34.1c14.5-1.8,27.7,1.8,40.2,8.3c-1.6-7.2-3-14-4.7-20.7c-0.4-1.6-1.3-3-2.2-4.4c-2.8-4.4-5.8-8.8-8.6-13.2
		C149,264,148.4,262.8,147.4,261z M261.8,147.3c6.1,4.2,12.1,8.4,18.1,12.4c1.1,0.7,2.6,1.1,3.9,1.3c6.1,0.6,12.1,1.8,17.7,4.5
		c0.4,0.2,0.9,0.2,2,0.4c-6.6-13.1-10.2-26.3-8.5-40.8C286,135.8,274.8,143.2,261.8,147.3z M365.6,195.4
		c-14.4,1.7-27.7-1.8-40.2-7.8c1.4,6.6,2.6,12.8,4.1,19c0.5,2.1,1.6,4.2,2.8,6.1c2.8,4.6,5.8,9.1,8.7,13.7c0.5,0.8,0.9,1.5,1.7,2.8
		C347.8,215.7,354.7,204.3,365.6,195.4z M187.5,165.4c1.6-0.4,2.7-0.7,3.8-1c4.9-1.2,9.9-2.2,14.8-3.5c2.1-0.5,4.2-1.3,6-2.4
		c5-3,9.8-6.3,14.8-9.5c0.8-0.5,1.6-0.9,2.6-1.5c-13.8-4.4-24.9-12-34.1-22.7C197.4,139.2,193.3,152.2,187.5,165.4z M165,187.5
		c-12.5,6.3-25.9,9.5-40.2,7.9c10.9,9.2,18.4,20.4,22.7,34c0.3-0.5,0.6-0.8,0.8-1.2c3.2-5,6.4-10,9.5-15.1c1.1-1.8,2.2-3.6,2.7-5.6
		C162.2,201,163.5,194.4,165,187.5z M229.4,343.1c-1.1-0.7-1.5-1-2-1.2c-5.2-3.4-10.4-6.8-15.7-10c-1.7-1.1-3.8-1.8-5.8-2.3
		c-3.2-0.8-6.6-1-9.8-1.8c-2.8-0.7-5.5-1.8-8.3-2.8c-0.2,0.1-0.4,0.2-0.6,0.3c6.4,12.6,9.6,25.8,8.2,40
		C204.8,355.1,215.5,347.1,229.4,343.1z M325.6,303.2c12.1-6.4,25.3-9.6,39.6-7.8c-4.6-5.4-9.5-10.1-13.2-15.7
		c-3.7-5.5-6.2-11.8-9.3-17.8c0,0.1-0.3,0.3-0.5,0.6c-3.3,5.1-6.7,10.2-9.8,15.5c-1.2,1.9-2.2,4-2.7,6.2
		C328.1,290.5,326.9,296.8,325.6,303.2z M370.8,144.8c6.1-6.3,6.3-16.7,0.5-23.6c-6-7.1-14.4-8.4-22.8-3.9c-1.6,0.9-1.7,2.1-0.9,3.5
		c0.5,0.8,1,1.7,1.7,2.3c6.8,7,13.6,13.9,20.4,20.9C370,144.4,370.4,144.6,370.8,144.8z M119.1,346.2c-1,1.8-2.7,3.9-3.5,6.3
		c-2.3,7.3-0.1,13.5,5.4,18.5c5.3,4.9,11.4,6.1,18.2,3.2c5.1-2.2,5.5-3.2,1.7-7.1C133.9,360.2,126.6,353.5,119.1,346.2z
		 M119.5,144.3c6.6-6.4,13.1-12.6,19.6-18.9c1.4-1.4,2.7-3,4-4.6c1.1-1.3,1-2.1-0.6-3.1c-8-5-17.3-3.5-23.6,4
		C113.8,127.6,112.6,137.7,119.5,144.3z M375.8,356.7c-0.4-1.5-1-4.2-2-6.6c-1.7-4.1-3.2-4.3-6.2-1.2c-3.4,3.4-6.5,7.1-9.9,10.5
		c-3.1,3.1-6.5,5.9-9.6,9c-2.1,2.1-1.8,3.4,0.7,4.9c6.1,3.4,12.2,3.3,18.2-0.2C372.7,369.7,375.4,364.4,375.8,356.7z M405.1,263.1
		c8.3-0.8,14.3-5.6,16.1-12.8c2.4-9.4-2.1-17.8-11.6-22c-3.2-1.4-4.3-1-4.4,2.5c-0.2,10.7-0.2,21.3-0.3,32
		C405,262.9,405,263,405.1,263.1z M227.2,405.7c1.9,9.8,10.1,16.9,18.2,16.4c9.7-0.6,16.8-7.5,17.5-17.2
		C251.1,405.1,239.2,404.3,227.2,405.7z M263.8,85.4c-1.4-3.3-2.3-6.6-4.1-9.2c-3.9-5.6-9.6-8.4-16.5-7.6
		c-7.6,0.9-12.1,5.8-14.9,12.4c-1.3,3.1-0.8,4.1,2.6,4.1c10.2,0.3,20.5,0.3,30.7,0.4C262,85.7,262.5,85.6,263.8,85.4z M85.2,245.3
		C85.2,245.3,85.2,245.3,85.2,245.3c0-4.8,0.2-9.6,0-14.4c-0.1-3.4-1-3.8-4.1-2.7c-7.8,3-12.6,9.7-12.6,17.6
		c0,6.7,5.6,14.1,12.8,16.7c2.7,1,3.7,0.5,3.8-2.5C85.3,255.1,85.2,250.2,85.2,245.3z M335.3,61.8c0-7.9-6.1-14.1-13.9-14.1
		c-8.4-0.1-14.6,5.9-14.6,14.3c0,8,5.2,14.2,14,14.3C328.4,76.4,335,71.5,335.3,61.8z M183.6,428.3c0-7.8-6.2-13.9-14.1-13.9
		c-8.4,0-14.5,6.1-14.3,14.5c0.2,8.4,5.9,14.2,14.2,14.1C177.9,442.8,183.5,437,183.6,428.3z M414.3,321.3
		c0.2,8.2,5.6,14.2,14.1,14.2c8.1,0,14.2-5.4,14.4-14.6c0.1-7.8-6.1-14-14-14C420.4,306.9,414.3,312.9,414.3,321.3z M306.8,428.7
		c0.1,8,5.3,14.2,14,14.3c7.7,0.1,14.3-4.9,14.4-14.5c0.1-7.9-6.1-14-13.9-14.1C313,414.3,306.9,420.3,306.8,428.7z M76.1,320.9
		c0-7.8-6.1-14-14-14.1c-8.4,0-14.6,6-14.5,14.4c0.1,8.1,5.4,14.2,14,14.2C69.6,335.5,75.9,330.3,76.1,320.9z M442.8,169.1
		c0-7.8-6.2-13.9-14.1-13.9c-8.4,0-14.5,6.1-14.4,14.5c0.1,8.4,5.8,14.2,14.2,14.1C436.9,183.7,442.6,178,442.8,169.1z M76.1,169.3
		c0-7.9-6.1-14.1-13.9-14.1c-8.4-0.1-14.6,5.9-14.5,14.3c0,8,5.2,14.2,14,14.3C69.3,183.9,75.8,178.9,76.1,169.3z M183.6,61.9
		c0-7.9-6.1-14.1-13.9-14.2c-8.4-0.1-14.6,5.9-14.6,14.3c0,7.9,5,14.2,14,14.3C176.6,76.4,183.3,71.5,183.6,61.9z M245.2,304.5
		c0.9-1.5,1.6-2.6,2-3.6c4.1-9,4.6-18.5,2.9-28c-0.6-3.6-2.1-7-3.4-10.4c-0.7-1.9-2-1.7-3,0c-0.5,0.8-0.9,1.7-1.2,2.6
		c-3.6,8.6-3.8,17.5-2.3,26.6C240.9,296.1,242.4,300.2,245.2,304.5z M245.2,187.2c-8,8.6-7.4,35.1,0.1,42.9
		C253.4,220.8,252.4,193.4,245.2,187.2z M186.4,245.3c9.5,7.7,37.4,7.5,43.6-0.2C220.6,237.6,196.8,237.6,186.4,245.3z M304,245.4
		c-9.9-8.2-35.3-7.5-43.7,0.2C272.9,254.3,294.9,251.8,304,245.4z M89.2,245.9c0.2,3.4,0.3,8.1,0.6,12.7c0.3,3.1,1.4,3.8,3.8,2.8
		c6.4-2.7,10.1-8.9,9.9-16.8c-0.1-6.7-4.5-13.2-10.4-15.5c-1.7-0.7-2.8-0.6-3,1.7C90,235.4,89.6,240,89.2,245.9z M401.2,244.5
		c-0.2-4.1-0.3-8.4-0.7-12.6c-0.2-2.7-1.4-3.7-3.4-2.9c-5.7,2.2-11.1,11.2-10.6,17.5c0.5,6,4.3,10,8.4,13.7c1,0.9,2.8,2,3.5,1.6
		c1-0.6,1.4-2.4,2.1-3.7c0.1-0.2,0.1-0.5,0.1-0.8C400.8,253.2,401,249,401.2,244.5z M245,104c7.4-0.4,12.8-4.1,16.4-10.5
		c1.2-2.2,0.8-3-1.8-3.1c-5.3-0.4-10.7-0.9-16-0.9c-4.3,0-8.6,0.5-12.8,0.9c-1.9,0.2-2.7,1.5-1.6,3.2
		C232.8,99.4,237.6,103.6,245,104z M245,400.7C245,400.7,245,400.7,245,400.7c4.3,0,8.6,0.1,12.9-0.1c1.4-0.1,3.1-0.7,3.8-1.6
		c0.4-0.6-0.5-2.6-1.2-3.6c-8-11.7-22.4-11.6-30.5,0.3c-0.7,1-1.3,2.7-1,3.7c0.3,0.7,2.2,1.2,3.4,1.3
		C236.6,400.8,240.8,400.7,245,400.7z M147.4,124.2c-4.4,2.5-21.7,20.1-23.2,23.4c4.3,4.4,14.4,3.3,20.3-2.2
		C150.7,139.6,152.2,129.4,147.4,124.2z M146.8,366.9c5.2-5.3,3.6-16.5-2.3-21.7c-6.7-5.9-16.2-6.7-20.7-1.4
		C131.4,351.4,139,359.1,146.8,366.9z M366.6,147.5c-1.1-1.3-1.8-2.4-2.7-3.3c-6.1-6-12.2-12.1-18.4-18c-2.6-2.5-3.5-2.1-4.5,1.3
		c-2.6,8.6,2.5,18.9,11,21.7C356.9,150.9,361.8,151,366.6,147.5z M342.9,366.6c0.9-0.6,1.6-1,2.1-1.5c6.5-6.5,13-13,19.4-19.6
		c2.4-2.5,2-3.3-1.4-4.3c-9.8-3-20.2,3.4-22.5,13.7C339.5,359.1,340.3,362.9,342.9,366.6z M204.1,204.1c0.3,1.6,0.4,2.6,0.7,3.5
		c0.5,1.4,1,2.8,1.7,4.1c5.1,9.1,12.1,16.3,21.8,20.5c1.4,0.6,3.1,0.6,4.6,1c-0.2-1.6-0.1-3.4-0.7-4.8c-4.8-10.6-12.6-18.2-23.1-23
		C207.7,204.8,206.1,204.6,204.1,204.1z M257.6,256.7c-0.3,0.3-0.6,0.5-0.9,0.8c0.8,2.3,1.4,4.8,2.6,6.9
		c5.1,9.1,12.1,16.3,21.8,20.5c1.4,0.6,3,0.7,4.4,1.1c-0.2-1.7,0.1-3.5-0.6-5c-4.1-9.5-11.1-16.5-20.1-21.5
		C262.6,258.3,260,257.6,257.6,256.7z M285.7,204.6c-10.2,0.5-26.7,16.8-28.7,28.3C267.5,234.8,287.3,212.9,285.7,204.6z M233,257.2
		c-10.6,0.8-27.2,17.4-28.6,28.4C213.8,287.3,234.3,267.1,233,257.2z M81.1,322.7c4.8-5.1,9.6-10.3,14.5-15.7c-6.8,0-13.5,0-20.2,0
		c1.3,2.6,2.8,4.9,3.7,7.5C80.1,317.2,80.5,320,81.1,322.7z M395,307c5,5.6,10.1,11.3,15.1,16.8c-1-6.1,1.2-11.6,5.2-16.8
		C408.2,307,401.5,307,395,307z M183.4,415.3c0-6.8,0-13.5,0-20.3c-5.5,5.1-10.8,10.1-16,14.9c2.6,0.4,5.5,0.4,8.1,1.3
		C178.3,412.1,180.7,413.9,183.4,415.3z M322.1,408.9c-4.8-4.4-10-9.2-15.1-13.9c0,6.6,0,13.3,0,19.5
		C312.2,412.6,317.5,410.6,322.1,408.9z M321.8,81.7c-4.9-1.9-9.9-3.7-14.7-5.6c0,6.3,0,13.1,0,19.5
		C312.1,90.9,317.2,86.1,321.8,81.7z M183.4,76.1c-5,1.9-10,3.7-14.8,5.6c4.7,4.4,9.7,9.1,14.8,13.8C183.4,89,183.4,82.3,183.4,76.1
		z M408.9,168.6c-4.4,4.7-9.2,9.8-13.9,14.9c6.6,0,13.2,0,19.4,0C412.5,178.4,410.7,173.4,408.9,168.6z M80.8,167.8
		c0,6.1-2.3,11-5.6,15.7c7,0,13.6,0,20.5,0C90.6,178.2,85.9,173.2,80.8,167.8z M250.3,245.3c-0.1-2.3-3-5.2-5.2-5.1
		c-2.3,0.1-5.2,3.1-5,5.2c0.2,2.2,3,5,5,5C247.4,250.3,250.4,247.4,250.3,245.3z"/>
	<path class="st0" d="M204.2,400.3c-0.5,7.7,1.1,14.9,4.2,21.5c5.8,12.1,15.5,20.3,28.6,22.7c26.1,4.7,44.9-12.9,48.5-33.1
		c0.5-2.9,0.7-5.9,0.9-8.9c0.1-1.6,0.7-2.5,2.3-2.9c3.8-1.1,7.5-2.4,11.2-3.7c0.7-0.2,1.5-0.4,2.7-0.7c0.2,3,0.5,5.5,0.5,8.1
		c-0.5,24.4-15.9,46.1-38.6,54.5c-32,11.9-69.4-9.1-75.7-42.6c-1-5.1-1.2-10.4-1.6-15.7c-0.2-3.4,0.9-4.2,4.2-3.2
		C195.6,397.5,199.8,398.9,204.2,400.3z"/>
	<path class="st0" d="M395.1,302.6c1.7-5.3,3.2-10.3,5-15.1c0.3-0.7,2.1-0.9,3.2-1.1c3.9-0.6,7.9-0.7,11.7-1.7
		c18.2-4.7,31.4-22.7,30.2-40.7c-1.4-21.1-15.9-36.9-35.8-39.3c-2.6-0.3-5.2-0.6-7.8-1c-0.7-0.1-1.8-0.8-2-1.5
		c-1.3-3.9-2.4-7.9-3.6-11.8c-0.6-2.1,0.2-3,2.4-3.1c35.1-1.2,58.1,23.1,62.2,49.8c4.6,29.6-16.6,59.2-46.1,64.9
		c-5,0.9-10.1,0.9-15.2,1.2C398.2,303.2,397.1,302.9,395.1,302.6z"/>
	<path class="st0" d="M95.2,302.8c-10.5,0.4-20.1,0.2-29.2-3.8c-18.5-8.2-30.9-21.7-35.2-41.7c-4.4-20.6,1.6-38.2,16.3-53.1
		c12.3-12.5,27.6-16.7,44.4-16.9c3.2,0,3.6,0.6,2.8,3.6c-1,3.6-2.2,7.2-3.2,10.8c-0.4,1.4-1,1.9-2.5,2.1c-7.6,0.6-15.1,2-22,5.6
		c-16.4,8.7-22.6,25.9-21.4,38.8c1.6,17.5,13.7,31.9,30.3,36.5c4.2,1.1,8.6,1.6,13,2c1.6,0.2,2.2,0.8,2.6,2.2
		C92.4,293.4,93.8,297.8,95.2,302.8z"/>
	<path class="st0" d="M302.5,95.1c-3.5-1-6.9-1.8-10.2-2.8c-5.5-1.7-5.5-1.7-6-7.5c-1.7-19.7-14.2-34.5-32.1-38.6
		c-21.1-4.9-44.7,9.4-48.8,31.6c-0.6,3.3-0.9,6.6-1.7,9.8c-0.3,1.3-1.2,2.9-2.3,3.3c-3.7,1.5-7.6,2.5-11.5,3.7
		c-1.9,0.6-2.5-0.6-2.5-2.2c0.1-14.3,2.5-27.9,11.7-39.5c10.1-12.8,22.9-21,39.3-23c13.8-1.6,26.9,1.2,38.3,9.1
		c13.8,9.5,23.1,22.4,25.7,39.4C303.2,83.7,303.7,89.1,302.5,95.1z"/>
	<path class="st0" d="M310.4,391.8c4.9-2.4,9.7-4.7,14.3-7.1c1.5-0.8,2.2-0.1,3.1,0.9c4.5,4.8,9.9,8.4,16,10.8
		c2.9,1.2,6.2,1.6,9.4,2.1c1.7,0.3,3.5,0.1,5.3,0.1c17.9,0.2,30-9.1,37-24.6c7.1-15.8,3.5-30.7-7.6-43.7c-3.6-4.3-3.8-4.1-1.4-9.1
		c1.8-3.5,3.5-7,5.3-10.7c17.1,15.6,26.7,34.1,21.7,57.4c-5,23.5-19.9,39.3-43.1,45.2C346.4,419.1,326.6,410.1,310.4,391.8z"/>
	<path class="st0" d="M180.1,391.9c-18.4,20.4-40.8,27.7-64.5,19.9c-23.1-7.6-37.7-27.6-39.5-50.1c-1.6-20.5,6.2-37,22.2-50.7
		c2.4,4.2,4.5,8,6.8,11.7c1.5,2.3,1.3,3.8-0.8,5.7c-7.2,6.7-11.6,14.9-12.5,24.7c-1.7,17.1,6.8,32.8,21.9,41.1
		c5.3,2.9,10.8,4,16.8,4.4c13.1,0.9,23.3-4.4,32.4-13c1.2-1.1,2-1.4,3.6-0.6C170.9,387.4,175.4,389.6,180.1,391.9z"/>
	<path class="st0" d="M391.8,180.1c-2.4-4.7-4.8-9.4-7-14.1c-0.3-0.5,0.2-1.6,0.7-2.2c2.6-3.7,5.6-7.2,7.9-11.1
		c14.3-24.7-1.2-56.6-29.5-60.6c-14.5-2.1-26.5,3.2-36.5,13.4c-1.2,1.2-1.9,1.6-3.5,0.7c-4.4-2.6-8.8-5-13.4-7.5
		c14.3-16,31.6-25.1,53.3-22.1c25.6,3.6,42.2,18.8,49.1,43.3C419.1,141.8,410.8,163.5,391.8,180.1z"/>
	<path class="st0" d="M180,98.6c-4.4,2.3-8.6,4.4-12.6,6.7c-1.9,1.1-3.2,0.7-4.7-0.6c-2.6-2.2-5.2-4.5-8-6.4
		c-24.9-16.5-59.6-0.4-62.8,29.3c-1.4,12.5,2.4,23.5,10.9,32.9c4.3,4.8,3.7,3.8,1.3,9c-1.6,3.3-3.5,6.5-5.2,9.7
		c-0.1,0.2-0.4,0.3-0.6,0.6c-15.8-13.9-23.9-30.9-22-52.3c2.1-23.9,22.5-44.9,42.8-49.6C143.7,72.1,163.3,80.3,180,98.6z"/>
	<path class="st0" d="M357.8,172.9c7.2,1,13.7-1,20-4.3c2.3-1.2,3.4-0.6,4.4,1.6c1.4,3.3,2.9,6.6,4.5,9.8c1,2,0.5,3-1.3,4
		c-9.5,5.1-19.7,8-30.5,7.4c-26.3-1.3-47.6-18.9-54-44.3c-3.7-14.5-1.1-28.3,5.5-41.5c1-2.1,2.3-2.8,4.5-1.6c2.9,1.6,6,2.9,8.9,4.5
		c2.9,1.6,2.9,2.2,1.8,5.2c-1.6,4.2-3.5,8.5-4.1,12.9c-2.1,17.9,5.3,31.5,20.1,41.3C343.7,171.9,350.4,174,357.8,172.9z"/>
	<path class="st0" d="M130.9,191.3c-7.5,0.3-16.5-2.4-25.1-7.1c-3.2-1.8-3.3-1.9-1.7-5.2c1.3-2.9,2.9-5.6,4.2-8.5
		c1-2.2,2.5-2.5,4.7-1.7c3.7,1.4,7.5,3.2,11.4,3.8c23.4,3.6,40.1-8.2,47.3-28.1c3.1-8.5,2.2-17.6-0.9-26.3c-0.7-2.1-1.4-4.1-2.2-6.2
		c-0.6-1.5-0.1-2.6,1.3-3.2c3.4-1.7,6.8-3.3,10.1-5.1c1.8-0.9,2.9-0.4,3.8,1.2c3.5,6.4,6.2,13.2,7.2,20.5
		c3.4,25.1-10.8,50.5-33.9,61C149.7,189.8,142.1,191.3,130.9,191.3z"/>
	<path class="st0" d="M191.5,356c-0.3,10.4-2.4,19.6-7.1,28.1c-2,3.6-2.2,3.7-5.9,2c-3-1.4-6-2.9-9-4.3c-1.8-0.8-2.1-1.8-1.3-3.5
		c2.6-5.6,4.7-11.3,5-17.6c1.2-24.3-16.9-41.2-35.6-43.4c-8.4-1-16.2,1.2-23.8,4.1c-2.5,1-4.1,0.7-5.3-1.8c-1.5-3-3.1-5.9-4.8-8.7
		c-1.2-2.1-0.5-3.6,1.5-4.4c4.8-1.9,9.6-3.9,14.5-5.4c14.3-4.3,28.4-2.1,40.9,5c17.1,9.6,27.9,24.5,30.4,44.6
		C191.3,352.7,191.4,354.7,191.5,356z"/>
	<path class="st0" d="M299.2,358.6c0.6-25.2,11.8-42.6,32.1-53.3c17-9,34.8-7.8,52.2,0.1c0.6,0.3,1.1,0.6,1.6,0.9
		c2,1,2.7,2.2,1.5,4.4c-1.7,3.2-3.3,6.6-4.7,10c-0.9,2.1-2,2.5-4,1.4c-5.9-3.2-12.3-5-19.1-5.1c-20.6-0.2-37.9,14.3-41.2,34.6
		c-1.3,8,0.1,15.7,3.1,23.2c2.4,5.9,2.3,5.9-3.4,8.8c-2,1-4.1,2-6.2,2.9c-3,1.3-3.8,1.3-5.1-1.8c-2.1-5.3-4-10.6-5.4-16.1
		C299.6,364.8,299.4,360.8,299.2,358.6z"/>
	<path class="st0" d="M396,204.7c-2.5,1-4.8,1.9-7,2.7c-15.3,5.9-26.7,22.6-25.5,38.8c1.2,17.6,9.9,30.3,26.3,37.4
		c5.9,2.6,6,2.5,4.1,8.7c-0.6,2.1-1.3,4.2-2.1,6.2c-1.1,2.8-1.9,3.2-4.9,2.2c-17.8-5.7-30.6-17-37.2-34.5
		c-10.7-28.2-0.3-59.4,31.5-74.3c2.6-1.2,5.5-1.7,8.3-2.3c0.6-0.1,1.9,0.5,2.1,1.1C393.1,195.2,394.5,199.8,396,204.7z"/>
	<path class="st0" d="M188.4,100c5.6-1.9,10.8-3.6,16.3-5.4c0.7,2,1.4,3.7,2.1,5.5c5.5,13.6,15.2,22.7,29.5,26
		c19.1,4.4,39-6,46.7-24.1c0.2-0.4,0.3-0.8,0.5-1.2c2.4-6,2.4-6,8.7-4c2.1,0.7,4.1,1.5,6.2,2.1c2.4,0.6,3,1.9,2.3,4.3
		c-2.2,7.6-5.6,14.6-10.8,20.5c-9.5,10.8-21.1,18.4-35.6,20.7c-19,3-35.2-2.8-49.3-15.7C196.6,120.8,192.2,110.8,188.4,100z"/>
	<path class="st0" d="M145.2,245.2c-1.4,23.7-12.2,41.4-33.7,52.3c-2.6,1.3-5.3,2.4-8,3.4c-2.3,0.9-4,0.2-4.8-2.2
		c-1.1-3.2-2.2-6.5-3.3-9.7c-0.8-2.4,0.2-3.5,2.4-4.3c7.2-2.6,13.6-6.4,18.8-12.2c15.9-17.7,13.2-45.7-6-59.8c-4-2.9-8-6-13.2-6.7
		c-0.8-0.1-2-1.8-1.8-2.5c1-4,2.3-8.1,3.9-11.9c0.3-0.8,2.5-1.6,3.5-1.3c3.8,1,7.7,2,11,4c16.3,9.5,27,23.1,30.4,42
		c0.1,0.5,0.2,1,0.2,1.6C144.8,240.2,145,242.6,145.2,245.2z"/>
	<path class="st0" d="M189.9,389c1.4-7.5,4.3-13.4,8.3-18.9c11.1-15.1,26.1-23.8,44.7-24.5c15-0.6,28.9,3.7,40.2,14.4
		c7.5,7.1,13.5,15.2,17.1,24.9c1.8,4.8,1.3,5.9-3.5,7.6c-2.6,0.9-5.4,1.6-8,2.5c-2.5,0.8-3.4-0.5-4.4-2.5c-2.3-4.6-4-9.7-7.2-13.6
		c-9.7-11.8-22.4-17.6-37.7-15c-15.5,2.7-27,11.1-32.8,26.3c-0.1,0.2-0.2,0.5-0.3,0.7c-1.5,5-1.5,5.1-6.5,3.4
		c-2.5-0.8-5-1.5-7.4-2.7C191.3,391.2,190.5,389.8,189.9,389z"/>
	<path class="st0" d="M117.2,341.7c-8.4,12.6-8.5,23.5-0.3,31.7c4.4,4.4,9.8,6.6,16.1,6.8c6.3,0.2,11.3-2.7,15.7-7
		c4,2.9,8,5.6,11.9,8.4c-9.9,12.5-33.2,19.7-51.1,5.1c-16.6-13.5-19.2-39.3-0.7-57C111.6,333.6,114.4,337.6,117.2,341.7z"/>
	<path class="st0" d="M329.5,381.6c4.2-2.9,8.1-5.6,12.2-8.4c6,4.7,12.5,8.3,20.6,6.3c4.8-1.2,8.9-3.7,12.1-7.4
		c7.7-8.8,7.4-17.2-1.2-30.5c1.3-1.9,2.7-4,4.1-6c1.3-1.9,2.7-3.9,4.2-6c11.1,10.1,14.9,22.6,12.1,36.7
		c-2.3,11.5-11.6,23.2-26.7,26.9C352.2,397,340.1,392.5,329.5,381.6z"/>
	<path class="st0" d="M341.7,117.3c-4.1-2.8-8.1-5.6-12.1-8.4c10.6-11.3,23.4-15.5,38.1-11.7c13.8,3.6,22.7,13.2,25.9,26.8
		c3.2,14.1-0.9,26.6-12.1,36.9c-2.3-3.5-4.4-6.7-6.6-10c-1.2-1.8-0.4-3.2,0.7-4.8c5.4-8.3,6.1-16.9,0.7-25.4
		c-6.8-10.9-21-13.3-31.7-5.5C343.6,115.9,342.8,116.6,341.7,117.3z"/>
	<path class="st0" d="M89.3,208.2c-0.8,4.3-1.3,8.2-2.2,11.9c-0.3,1.2-1.6,2.5-2.8,3c-2,1-4.4,1.3-6.5,2.1
		c-9.6,3.9-14.5,12.4-13.3,23.2c1,8.9,8.6,16.9,17.7,18.5c4.4,0.8,4.4,0.8,5.2,5.2c0.4,2.3,0.7,4.7,1.3,7c0.6,2.4-0.4,3.1-2.7,3.1
		c-12.3-0.3-22.1-5.5-29.5-15.3c-8.2-11-9.3-23.3-4.2-35.6c5.5-13.1,16-20.5,30.2-22.4C84.7,208.6,86.9,208.4,89.3,208.2z"/>
	<path class="st0" d="M160.7,109.1c-3.5,2.4-6.8,4.6-10.2,6.8c-1.3,0.9-2.3,0.9-3.7-0.2c-6.1-5.1-16.7-7.3-25.3-2
		c-8.5,5.3-12.4,13.9-10.3,23.3c0.9,3.8,2,7.4,4.8,10.3c0.5,0.5,0.5,2.1,0.1,2.8c-2.2,3.5-4.6,6.8-7.2,10.6
		c-9.3-8.6-13.7-18.6-12.8-31c1.1-14.6,11.3-28.2,24.9-32C136.9,93.4,150.4,97.4,160.7,109.1z"/>
	<path class="st0" d="M281.9,89.3c-4.1-0.7-7.9-1.4-11.8-2c-1.8-0.3-2.7-1.4-2.9-3.2c-0.7-5.4-3.2-10-7.1-13.8
		c-6.4-6.3-14.2-7.1-22.2-4.5c-7.7,2.4-12.2,8.3-14.2,16c-1.3,5.1-1,5.1-6,5.9c-3,0.5-6,1-9.4,1.6c0-13.5,4.7-24.8,15.7-32.7
		c12.5-9.1,25.9-9.4,39.3-2.1C276.3,61.6,282.6,75.1,281.9,89.3z"/>
	<path class="st0" d="M281.8,401.6c0.9,13.2-5.5,26.7-17.5,33.9c-12.9,7.8-29.1,7.1-41-1.8c-9.9-7.4-16.9-23-14.5-32
		c4.3,0.6,8.6,1.1,12.9,1.9c0.6,0.1,1.2,1.5,1.5,2.4c1.3,5.5,2.9,10.7,7.5,14.6c13.1,11.2,32.8,4.7,36.5-12.2
		c0.1-0.7-0.1-1.5,0.3-2.1c0.6-1,1.3-2.5,2.1-2.7C273.5,402.7,277.6,402.2,281.8,401.6z"/>
	<path class="st0" d="M401.1,208.3c14.3,0.1,25.8,5,33.8,17c13.3,20.1,4.1,49.6-23.1,55.8c-2.6,0.6-5.4,0.8-8,1.1
		c-1.2,0.1-2.3-0.3-2-1.9c0.7-3.3,1.2-6.7,2.1-10c0.3-1.1,1.6-2.1,2.7-2.7c1.5-0.7,3.2-0.9,4.8-1.3c8.9-2.8,15.2-11.8,15-21.3
		c-0.2-9.4-6.7-18.1-15.6-20.5c-8.3-2.2-6.8-1.3-8.2-8.9C402.1,213.2,401.6,210.9,401.1,208.3z"/>
	<path class="st0" d="M198.1,201.9c2.2,4.9,4,9.6,6.3,14c5.8,11.2,15.6,17.7,27.1,22c1.1,0.4,2.3,0.8,3.3,1.5
		c0.4,0.3,0.5,1.2,0.8,1.8c-0.6,0.2-1.3,0.6-1.8,0.5c-1.3-0.3-2.5-0.8-3.7-1.4c-13.5-6.8-27-7-40.9-1.1c-8.2,3.5-8.4,3.3-14.1-3.4
		c-5.4-6.4-8.1-14.1-9.9-22.1c-0.2-0.7,0.5-2,1.1-2.6c6.4-5.4,14.1-7.6,22.2-8.5C191.9,202.2,195.2,202.1,198.1,201.9z"/>
	<path class="st0" d="M296.9,288.6c-4.9-0.1-4.8-0.2-6.6-4.9c-5.6-15.4-16.3-25.7-31.7-31.1c-1-0.3-2-0.6-2.9-1.2
		c-0.5-0.4-0.7-1.3-1-1.9c0.7-0.2,1.4-0.6,2-0.5c1.1,0.2,2.2,0.7,3.2,1.2c14.5,7.2,29,7.2,43.5,0.3c4.6-2.2,6.5-1.8,9.9,2.1
		c5.8,6.5,9.2,14.2,11.5,22.5c0.7,2.5-0.1,4-2,5.4c-6,4.2-12.7,6.6-19.9,7.6C301,288.2,298.9,288.4,296.9,288.6z"/>
	<path class="st0" d="M201.9,198.7c0.1-10.4,1.3-20.3,7-29.2c2.5-4,3.4-4.4,8-3.4c8.4,1.8,15.7,5.9,21.9,11.8c3.3,3.1,3.5,4,1.5,8
		c-4.2,8.6-6.5,17.7-5,27.2c0.9,5.5,3,10.9,4.6,16.3c0.4,1.5,1.1,2.9,1.6,4.4c0.1,0.5-0.3,1.1-0.4,1.6c-0.5-0.2-1.3-0.2-1.6-0.5
		c-0.6-0.8-1.1-1.8-1.4-2.8c-5.2-15.7-15.7-26.2-31-32.1C205.5,199.6,203.8,199.2,201.9,198.7z"/>
	<path class="st0" d="M241.9,255.1c-0.4,1.2-0.7,2.5-1.1,3.7c-1.7,4.9-3.9,9.6-5,14.6c-2,9.2-0.7,18.3,2.9,27c0.3,0.8,0.7,1.6,1,2.4
		c2.6,6.2,2.5,7.1-2.7,11.4c-6.7,5.6-14.5,9.2-23.1,10.7c-1.2,0.2-3.4-1-4-2.1c-2.3-4.3-4.6-8.7-5.9-13.4c-1.3-4.7-1.5-9.8-2-14.7
		c-0.2-2,0.8-3.2,3-3.9c15.3-5.1,26.5-14.7,32.2-30.1c0.8-2.2,2.1-4.2,3.1-6.3C240.9,254.7,241.4,254.9,241.9,255.1z"/>
	<path class="st0" d="M193.6,288.4c-9.1-0.1-17.6-2.5-25.4-7.3c-2.3-1.4-2.9-3.2-2.4-5.7c2.1-10.5,7.1-19.3,15.3-26.3
		c0.6-0.5,2.1-0.5,2.9-0.1c5.3,2.6,10.6,4.9,16.5,5.8c9.7,1.5,19,0.5,27.9-3.8c1.4-0.7,2.8-1.5,4.3-1.9c0.9-0.3,1.9,0,2.9,0.1
		c-0.6,0.8-1,1.9-1.8,2.5c-1.1,0.7-2.4,1-3.6,1.5c-12.8,5-22.4,13.4-28.4,25.9c-0.7,1.5-1.3,3.1-1.8,4.7
		C198.6,288.4,198.5,288.4,193.6,288.4z"/>
	<path class="st0" d="M254.7,241.8c0.3-3.2,2.5-3.3,4.2-3.9c13.5-4.9,24-13.3,29.8-26.7c1.3-3,2.3-6,3.5-9.1
		c10.5-0.4,20.4,1.5,29.4,7.2c2.1,1.3,3,2.9,2.8,5.4c-1.1,10.1-5.8,18.2-12.9,25.2c-2.3,2.3-4.9,1.4-7.6,0.4
		c-4.3-1.6-8.6-3.5-13.1-4.5c-8.7-2-17.2-0.9-25.5,2.4c-2.4,1-4.9,2-7.3,2.9C257.1,241.5,256,241.6,254.7,241.8z"/>
	<path class="st0" d="M288.5,297.2c-0.6,8.7-2.3,17-7.3,24.4c-2.4,3.6-3.6,4-7.7,2.9c-8-2.1-15.3-5.5-21.3-11.4
		c-3.6-3.5-3.8-4.4-1.7-8.9c3.3-7,5.3-14.2,5.3-22c0-7.1-1.7-13.9-4.8-20.3c-0.8-1.7-1.5-3.3-2.1-5.1c-0.2-0.5,0.3-1.2,0.4-1.8
		c0.6,0.2,1.4,0.3,1.7,0.8c0.7,1,1.3,2.1,1.7,3.2c5.6,16.4,16.8,27,33.2,32.1C289.2,292.1,288,295,288.5,297.2z"/>
	<path class="st0" d="M288.4,198.8c-11.2,3-20.6,8.8-27.8,17.7c-3.7,4.5-6.5,9.5-8.1,15.2c-0.4,1.3-1.2,2.5-1.9,3.7
		c-0.2,0.3-1,0.4-1.4,0.2c-0.3-0.2-0.5-0.9-0.4-1.3c0.4-1.2,0.9-2.5,1.4-3.6c3.4-7.2,5.7-14.6,5.5-22.7c-0.2-7-2.1-13.6-5-20
		c-0.9-2-1.8-4-2.7-5.9c7.3-8,15.8-14,26.5-16.2c2.8-0.6,4.8,0,6.5,2.6C286.8,177.6,288.8,187.7,288.4,198.8z"/>
	<path class="st0" d="M368,246c-0.6-19,11.5-30.2,24.9-35.6c3.1-1.2,3.9-0.9,4.7,2.3c0.8,3,1.4,6.2,1.8,9.3c0.1,0.6-0.6,1.5-1.2,1.9
		c-1.4,0.9-3,1.5-4.4,2.3c-7.6,4.5-11.6,11.2-11.4,20c0.2,9.4,5.5,15.7,13.7,19.5c2.3,1.1,3.1,2.2,2.6,4.6c-0.5,2.6-0.7,5.2-1.2,7.8
		c-0.6,2.8-1.5,3.3-4.3,2.3C377.9,274.9,367.3,261.1,368,246z"/>
	<path class="st0" d="M244.4,368.1c16.9-0.8,30.5,10.2,35.9,25.2c1,2.9,0.6,3.7-2.4,4.4c-2.5,0.6-5,0.9-7.4,1.5
		c-2.3,0.6-3.5-0.3-4.4-2.5c-3.3-7.4-9-12.1-16.9-14.1c-3.9-1-7.7-0.3-11.3,1.4c-6.1,2.9-11.4,6.5-13.7,13.4
		c-0.2,0.7-1.7,1.5-2.6,1.5c-2.9-0.1-5.8-0.5-8.6-1c-3.2-0.6-3.8-1.7-2.7-4.8c2.8-8.1,8.1-14.3,14.9-19.2
		C231.2,369.6,237.9,367.5,244.4,368.1z"/>
	<path class="st0" d="M122.5,245.1c0.7,16.4-10.2,29.7-25.3,35.3c-2.5,0.9-3.6,0.4-4.3-2.2c-0.8-3-1.3-6.2-2-9.2
		c-0.5-1.9,1-2.2,2.2-2.6c7.2-2.8,12.2-7.7,14.3-15.3c3-11-3.2-22.7-14-26.3c-1.6-0.5-2.3-1.3-2-3c0.5-3,0.8-6.1,1.4-9.1
		c0.6-2.9,1.8-3.4,4.6-2.4c10.3,3.9,18,10.6,22.6,20.8C122,235.6,122.5,240.4,122.5,245.1z"/>
	<path class="st0" d="M244.4,122.8c-13.5,0.6-29.6-10.1-34.4-26.3c-0.6-1.9-0.1-3,1.9-3.4c2.7-0.5,5.5-1,8.2-1.9
		c2.7-0.9,3.7,0.1,4.6,2.4c2.8,7.3,8.3,11.9,15.7,13.9c9.9,2.7,21.9-3.6,25.3-13.4c0.9-2.7,2.2-3.1,4.6-2.6c2.6,0.6,5.2,0.7,7.8,1.2
		c2.6,0.6,3.3,1.8,2.3,4.2c-5.2,13.4-14.3,22.5-28.9,25C249.1,122.5,246.7,122.6,244.4,122.8z"/>
	<path class="st0" d="M327.4,112.4c3.2,2.4,6.5,4.7,9.7,7.1c1.4,1.1,1.2,2.4,0.7,4c-4.4,12.4,0.6,24.4,12.1,29.4
		c5.3,2.3,10.5,2.1,15.9,0.3c4.3-1.5,4.6-1.4,7.1,2.4c1.8,2.6,3.3,5.3,5,8c-13.6,7.9-32.9,8.4-46.3-5.6
		C318.3,144.3,319.5,123.5,327.4,112.4z"/>
	<path class="st0" d="M112.4,327.3c11.8-8.1,32.3-8.5,45.5,4.3c12.8,12.5,14.4,32.1,5.4,46.4c-3.2-2.2-6.5-4.3-9.7-6.5
		c-1.5-1-1.7-2.3-1-4.1c2.8-7.1,2.8-14-1.3-20.7c-5.6-9.1-15.4-12.7-26-9.5c-4.7,1.4-4.8,1.5-7.7-2.5
		C115.8,332.3,114.2,329.8,112.4,327.3z"/>
	<path class="st0" d="M327.3,378c-7.6-10.3-9.1-31.7,4.6-45.6c14-14.1,35.5-12.7,46.1-5c-2.2,3.1-4.5,6.2-6.8,9.3
		c-1.2,1.6-2.6,1.9-4.6,1.1c-9-3.5-17.1-1.8-24,4.7c-6.2,5.9-8.1,13.3-5.7,21.7c1.7,6,1.7,6-3.4,9.6
		C331.5,375.2,329.4,376.6,327.3,378z"/>
	<path class="st0" d="M163.5,112.5c9.2,16.3,6.4,35.9-6.6,47.3c-12.4,10.9-32.1,12.5-44.3,3.6c2.3-3.5,4.5-7,7-10.4
		c0.4-0.6,2-0.7,2.9-0.4c5.1,1.7,10.1,2.8,15.5,1.3c12-3.3,18.9-15.2,15.6-27.2c-0.4-1.4-1-2.8-1.2-4.3c-0.1-1,0.2-2.5,0.9-3
		C156.6,117,160.1,114.8,163.5,112.5z"/>
	<path class="st0" d="M161.5,215.9c2.8,11.5,7.8,21.3,16.7,29.3c-8.3,8.4-14.7,17.7-16.6,29.7C146.4,260.2,145.1,232.6,161.5,215.9z
		"/>
	<path class="st0" d="M216.5,328.8c11.3-2.3,20.5-8.2,28.7-16.3c8.3,8.1,17.6,14.3,29.6,16.4c-9.1,9.3-20.1,12.4-32.4,11.8
		C231.3,340.1,219.4,334.9,216.5,328.8z"/>
	<path class="st0" d="M328.8,274.7c-2.1-11.8-8.1-21-16.3-29.4c8-8.3,14.7-17.4,16.3-29.3C344,227.7,344.9,261.3,328.8,274.7z"/>
	<path class="st0" d="M274.6,161.5c-11.3,2.7-21.3,7.8-29.3,16.6c-8.3-8.4-17.8-14.2-29.1-16.4C226.3,147.6,259.2,144.6,274.6,161.5
		z"/>
	<path class="st0" d="M197.1,292.8c0.9,5.8,1.4,11.4,2.7,16.9c0.9,4,2.9,7.8,4.4,11.8c0.4,1,0.5,2.1,0.7,3.2c-1.3,0-2.6,0.3-3.8,0
		c-18.3-4-30-15.1-34.9-33.2c-0.3-1.1-0.6-2.2-0.8-3.3c-0.1-0.9,0.1-1.8,0.1-2.7c0.9,0.1,1.9,0.1,2.7,0.5c6.2,3.1,12.6,5.6,19.6,6.4
		C191.1,292.7,194.3,292.7,197.1,292.8z"/>
	<path class="st0" d="M292.5,197.5c1-11.6-2.6-22.1-8.4-32.5c14.7,2,26.7,7.9,34.2,20.4c2.9,4.9,4.4,10.6,6.4,16
		c0.4,1-0.1,2.3-0.2,3.5c-1.1-0.2-2.2-0.4-3.2-0.7c-5.3-1.8-10.4-4.1-15.8-5.4C301.4,197.8,297.1,197.9,292.5,197.5z"/>
	<path class="st0" d="M325.2,284.2c-1.3,15.4-10.6,32.8-30.3,39c-2.2,0.7-4.4,1.3-6.6,1.8c-0.8,0.2-1.8-0.1-2.7-0.1
		c0.1-0.9,0.1-1.9,0.5-2.7c1.2-2.9,2.8-5.7,3.7-8.7c1.1-3.3,2-6.7,2.4-10.2c0.4-3.4,0.1-6.8,0.1-10.7
		C304.3,293.5,314.9,290.1,325.2,284.2z"/>
	<path class="st0" d="M197.1,197.9c-10.9-1-21.2,2.8-31.2,7.7c-3.6-16.2,20.3-40.1,39.6-40.4c-2,5.2-4.5,10.2-5.9,15.5
		C198.3,186.2,198,191.8,197.1,197.9z"/>
	<path class="st0" d="M294.4,365.7c-8.4-10.9-19.6-18.3-33.5-22.6c2.2-1.2,3.8-2,5.2-2.9c4-2.6,7.9-5.5,12.1-7.9
		c2.6-1.5,5.6-2.2,8.5-3.1c4.9-1.4,9.8-2.6,14.7-3.9c0.4-0.1,0.8-0.2,1.2-0.4c-2.2,6.8-4.9,13.2-6.2,20
		C295,351.6,295,358.6,294.4,365.7z"/>
	<path class="st0" d="M147.4,261c1,1.7,1.6,3,2.3,4.1c2.9,4.4,5.8,8.7,8.6,13.2c0.9,1.4,1.8,2.9,2.2,4.4c1.6,6.8,3.1,13.6,4.7,20.7
		c-12.5-6.5-25.7-10.1-40.2-8.3C135.7,286,143.3,275,147.4,261z"/>
	<path class="st0" d="M261.8,147.3c13-4.1,24.2-11.5,33.3-22.2c-1.7,14.4,1.9,27.7,8.5,40.8c-1.1-0.2-1.6-0.2-2-0.4
		c-5.6-2.7-11.6-3.9-17.7-4.5c-1.3-0.1-2.8-0.5-3.9-1.3C273.9,155.7,268,151.5,261.8,147.3z"/>
	<path class="st0" d="M365.6,195.4c-10.9,8.9-17.8,20.3-22.8,33.8c-0.8-1.3-1.2-2.1-1.7-2.8c-2.9-4.6-5.9-9.1-8.7-13.7
		c-1.2-1.9-2.3-4-2.8-6.1c-1.5-6.2-2.7-12.4-4.1-19C337.9,193.6,351.2,197.1,365.6,195.4z"/>
	<path class="st0" d="M187.5,165.4c5.8-13.2,9.9-26.2,7.8-40.6c9.2,10.7,20.3,18.3,34.1,22.7c-1,0.6-1.8,1-2.6,1.5
		c-4.9,3.2-9.8,6.5-14.8,9.5c-1.8,1.1-3.9,1.9-6,2.4c-4.9,1.3-9.8,2.3-14.8,3.5C190.1,164.7,189.1,165,187.5,165.4z"/>
	<path class="st0" d="M165,187.5c-1.5,6.9-2.9,13.5-4.5,20c-0.5,2-1.6,3.8-2.7,5.6c-3.1,5.1-6.3,10.1-9.5,15.1
		c-0.2,0.4-0.5,0.7-0.8,1.2c-4.3-13.6-11.8-24.8-22.7-34C139.1,197,152.5,193.8,165,187.5z"/>
	<path class="st0" d="M229.4,343.1c-13.9,4-24.6,11.9-34,22.2c1.4-14.2-1.7-27.5-8.2-40c0.2-0.1,0.4-0.2,0.6-0.3
		c2.8,0.9,5.5,2.1,8.3,2.8c3.2,0.8,6.6,1.1,9.8,1.8c2,0.5,4,1.2,5.8,2.3c5.3,3.2,10.5,6.7,15.7,10
		C227.9,342.1,228.3,342.4,229.4,343.1z"/>
	<path class="st0" d="M325.6,303.2c1.3-6.4,2.5-12.8,4-19c0.5-2.2,1.5-4.3,2.7-6.2c3.2-5.2,6.5-10.3,9.8-15.5
		c0.2-0.3,0.4-0.5,0.5-0.6c3.1,6,5.6,12.3,9.3,17.8c3.7,5.5,8.6,10.3,13.2,15.7C350.9,293.6,337.7,296.8,325.6,303.2z"/>
	<path class="st0" d="M370.8,144.8c-0.3-0.2-0.8-0.4-1-0.7c-6.8-7-13.6-13.9-20.4-20.9c-0.7-0.7-1.2-1.5-1.7-2.3
		c-0.8-1.4-0.7-2.7,0.9-3.5c8.4-4.6,16.8-3.2,22.8,3.9C377.1,128.1,376.8,138.5,370.8,144.8z"/>
	<path class="st0" d="M119.1,346.2c7.6,7.2,14.8,14,21.8,21c3.9,3.9,3.5,4.9-1.7,7.1c-6.8,2.9-12.9,1.7-18.2-3.2
		c-5.5-5-7.7-11.3-5.4-18.5C116.4,350.2,118.1,348.1,119.1,346.2z"/>
	<path class="st0" d="M119.5,144.3c-6.9-6.6-5.6-16.7-0.6-22.6c6.3-7.5,15.5-9,23.6-4c1.6,1,1.6,1.8,0.6,3.1c-1.3,1.5-2.5,3.2-4,4.6
		C132.6,131.6,126.1,137.9,119.5,144.3z"/>
	<path class="st0" d="M375.8,356.7c-0.4,7.8-3,13.1-8.8,16.4c-6,3.5-12.1,3.6-18.2,0.2c-2.6-1.5-2.9-2.8-0.7-4.9
		c3.1-3.1,6.5-5.9,9.6-9c3.4-3.4,6.6-7.1,9.9-10.5c3-3.1,4.6-2.9,6.2,1.2C374.7,352.5,375.3,355.2,375.8,356.7z"/>
	<path class="st0" d="M405.1,263.1c0-0.1-0.1-0.1-0.1-0.2c0.1-10.7,0.1-21.3,0.3-32c0.1-3.5,1.2-3.9,4.4-2.5
		c9.5,4.1,13.9,12.6,11.6,22C419.4,257.5,413.4,262.2,405.1,263.1z"/>
	<path class="st0" d="M227.2,405.7c12-1.5,23.9-0.6,35.8-0.9c-0.7,9.8-7.8,16.6-17.5,17.2C237.3,422.6,229.2,415.6,227.2,405.7z"/>
	<path class="st0" d="M263.8,85.4c-1.3,0.1-1.8,0.2-2.3,0.2c-10.2-0.1-20.5-0.2-30.7-0.4c-3.4-0.1-3.9-1.1-2.6-4.1
		c2.9-6.7,7.4-11.6,14.9-12.4c6.9-0.8,12.6,2,16.5,7.6C261.5,78.8,262.3,82.1,263.8,85.4z"/>
	<path class="st0" d="M85.2,245.3c0,4.9,0.1,9.8,0,14.7c-0.1,3-1.1,3.5-3.8,2.5c-7.2-2.7-12.8-10-12.8-16.7
		c0-7.9,4.8-14.6,12.6-17.6c3.1-1.2,4-0.7,4.1,2.7C85.3,235.7,85.2,240.5,85.2,245.3C85.2,245.3,85.2,245.3,85.2,245.3z"/>
	<path class="st0" d="M335.3,61.8c-0.3,9.6-6.9,14.6-14.5,14.5c-8.8-0.1-13.9-6.3-14-14.3c0-8.4,6.1-14.4,14.6-14.3
		C329.2,47.8,335.3,54,335.3,61.8z M330,62.2c0-5.2-4-9.2-9.1-9.2c-4.9,0-8.8,4-8.7,8.9c0.1,4.9,4.3,9.4,8.8,9.5
		C325.6,71.4,330,66.9,330,62.2z"/>
	<path class="st0" d="M183.6,428.3c-0.1,8.7-5.7,14.5-14.3,14.7c-8.2,0.1-14-5.6-14.2-14.1c-0.2-8.4,6-14.5,14.3-14.5
		C177.4,414.3,183.6,420.5,183.6,428.3z M169.2,419.7c-4.9,0-8.8,3.9-8.8,8.8c0,4.9,4.2,9.4,8.7,9.5c4.6,0.1,9.1-4.4,9.1-9.1
		C178.3,423.8,174.3,419.7,169.2,419.7z"/>
	<path class="st0" d="M414.3,321.3c0-8.4,6.1-14.4,14.5-14.4c7.9,0,14.1,6.2,14,14c-0.1,9.2-6.3,14.6-14.4,14.6
		C419.9,335.5,414.5,329.5,414.3,321.3z M437.5,321.4c0-5.2-4-9.2-9.1-9.2c-4.9,0-8.8,4-8.7,8.9c0.1,4.9,4.3,9.4,8.8,9.4
		C433.1,330.6,437.5,326.1,437.5,321.4z"/>
	<path class="st0" d="M306.8,428.7c0-8.4,6.1-14.4,14.6-14.3c7.8,0.1,14.1,6.3,13.9,14.1c-0.2,9.6-6.8,14.6-14.4,14.5
		C312.1,442.9,307,436.7,306.8,428.7z M330,428.8c0-5.2-4-9.2-9.1-9.2c-4.9,0-8.8,4-8.7,8.9c0.1,4.9,4.3,9.4,8.8,9.5
		C325.6,438,330,433.6,330,428.8z"/>
	<path class="st0" d="M76.1,320.9c-0.2,9.4-6.5,14.6-14.4,14.5c-8.6,0-14-6.1-14-14.2c-0.1-8.4,6.1-14.4,14.5-14.4
		C70,306.9,76.1,313.1,76.1,320.9z M53,321c0,4.9,4.2,9.4,8.7,9.5c4.6,0.1,9.1-4.4,9.1-9.1c0-5.2-4-9.3-9-9.3
		C56.9,312.2,52.9,316.2,53,321z"/>
	<path class="st0" d="M442.8,169.1c-0.2,8.8-5.9,14.5-14.3,14.7c-8.3,0.1-14-5.7-14.2-14.1c-0.1-8.4,6-14.5,14.4-14.5
		C436.6,155.2,442.8,161.3,442.8,169.1z M428.4,160.5c-4.9,0-8.9,3.9-8.8,8.8c0,4.9,4.1,9.4,8.7,9.5c4.6,0.1,9.1-4.4,9.1-9.1
		C437.5,164.6,433.5,160.5,428.4,160.5z"/>
	<path class="st0" d="M76.1,169.3c-0.3,9.6-6.9,14.6-14.5,14.5c-8.8-0.1-13.9-6.3-14-14.3c0-8.4,6.1-14.4,14.5-14.3
		C70.1,155.2,76.2,161.4,76.1,169.3z M70.8,169.7c0-5.2-4-9.2-9.1-9.2c-4.9,0-8.8,4-8.7,8.9c0.1,4.9,4.3,9.4,8.8,9.4
		C66.4,178.8,70.8,174.4,70.8,169.7z"/>
	<path class="st0" d="M183.6,61.9c-0.3,9.7-7,14.6-14.5,14.5c-8.9-0.1-13.9-6.5-14-14.3c0-8.4,6.2-14.4,14.6-14.3
		C177.5,47.8,183.6,54,183.6,61.9z M160.4,61.8c0,4.9,4.2,9.4,8.7,9.5c4.6,0.1,9.1-4.4,9.1-9.1c0-5.2-4-9.2-9-9.2
		C164.3,53,160.4,57,160.4,61.8z"/>
	<path class="st0" d="M245.2,304.5c-2.9-4.3-4.3-8.4-5-12.9c-1.4-9-1.3-18,2.3-26.6c0.4-0.9,0.8-1.8,1.2-2.6c1-1.7,2.2-1.9,3,0
		c1.3,3.4,2.8,6.8,3.4,10.4c1.7,9.6,1.2,19-2.9,28C246.8,301.9,246.1,302.9,245.2,304.5z"/>
	<path class="st0" d="M245.2,187.2c7.2,6.1,8.2,33.5,0.1,42.9C237.8,222.4,237.2,195.8,245.2,187.2z"/>
	<path class="st0" d="M186.4,245.3c10.4-7.7,34.2-7.7,43.6-0.2C223.8,252.8,195.9,253,186.4,245.3z"/>
	<path class="st0" d="M304,245.4c-9.1,6.4-31.1,8.9-43.7,0.2C268.7,237.9,294.1,237.2,304,245.4z"/>
	<path class="st0" d="M89.2,245.9c0.4-5.9,0.8-10.5,1-15.1c0.1-2.3,1.3-2.4,3-1.7c5.9,2.3,10.2,8.8,10.4,15.5
		c0.1,7.8-3.5,14.1-9.9,16.8c-2.4,1-3.6,0.4-3.8-2.8C89.5,253.9,89.4,249.3,89.2,245.9z"/>
	<path class="st0" d="M401.2,244.5c-0.2,4.4-0.4,8.6-0.6,12.8c0,0.3,0,0.6-0.1,0.8c-0.6,1.3-1,3.1-2.1,3.7c-0.7,0.4-2.6-0.7-3.5-1.6
		c-4.1-3.7-7.9-7.7-8.4-13.7c-0.5-6.3,4.9-15.3,10.6-17.5c2-0.8,3.2,0.2,3.4,2.9C400.9,236.2,401,240.5,401.2,244.5z"/>
	<path class="st0" d="M245,104c-7.4-0.4-12.2-4.6-15.9-10.4c-1.1-1.7-0.2-3,1.6-3.2c4.3-0.5,8.5-1,12.8-0.9c5.3,0,10.7,0.5,16,0.9
		c2.6,0.2,3,0.9,1.8,3.1C257.8,100,252.4,103.6,245,104z"/>
	<path class="st0" d="M245,400.7c-4.2,0-8.4,0.1-12.6-0.1c-1.2,0-3.1-0.5-3.4-1.3c-0.4-1,0.3-2.7,1-3.7c8.1-11.9,22.5-12,30.5-0.3
		c0.7,1.1,1.7,3,1.2,3.6c-0.7,1-2.5,1.6-3.8,1.6C253.5,400.8,249.3,400.7,245,400.7C245,400.7,245,400.7,245,400.7z"/>
	<path class="st0" d="M147.4,124.2c4.7,5.2,3.3,15.4-2.9,21.2c-5.9,5.5-16,6.6-20.3,2.2C125.7,144.3,143.1,126.7,147.4,124.2z"/>
	<path class="st0" d="M146.8,366.9c-7.8-7.8-15.4-15.4-23.1-23.1c4.5-5.4,14-4.5,20.7,1.4C150.5,350.4,152,361.6,146.8,366.9z"/>
	<path class="st0" d="M366.6,147.5c-4.8,3.5-9.7,3.4-14.6,1.7c-8.5-2.8-13.6-13.2-11-21.7c1-3.5,1.9-3.8,4.5-1.3
		c6.2,5.9,12.3,11.9,18.4,18C364.9,145.1,365.6,146.2,366.6,147.5z"/>
	<path class="st0" d="M342.9,366.6c-2.7-3.7-3.4-7.5-2.4-11.7c2.3-10.4,12.7-16.7,22.5-13.7c3.4,1,3.8,1.9,1.4,4.3
		c-6.4,6.6-12.9,13.1-19.4,19.6C344.5,365.6,343.8,366,342.9,366.6z"/>
	<path class="st0" d="M204.1,204.1c2,0.5,3.6,0.7,5,1.3c10.6,4.8,18.3,12.4,23.1,23c0.6,1.4,0.5,3.2,0.7,4.8c-1.6-0.3-3.2-0.3-4.6-1
		c-9.7-4.2-16.7-11.5-21.8-20.5c-0.7-1.3-1.2-2.7-1.7-4.1C204.5,206.7,204.4,205.7,204.1,204.1z"/>
	<path class="st0" d="M257.6,256.7c2.4,0.9,5,1.6,7.2,2.8c8.9,5,15.9,12,20.1,21.5c0.6,1.5,0.4,3.3,0.6,5c-1.5-0.3-3.1-0.5-4.4-1.1
		c-9.7-4.2-16.7-11.4-21.8-20.5c-1.2-2.1-1.7-4.6-2.6-6.9C257,257.2,257.3,256.9,257.6,256.7z"/>
	<path class="st0" d="M285.7,204.6c1.6,8.3-18.2,30.2-28.7,28.3C258.9,221.4,275.5,205,285.7,204.6z"/>
	<path class="st0" d="M233,257.2c1.3,9.9-19.2,30.1-28.6,28.4C205.8,274.6,222.4,258.1,233,257.2z"/>
	<path class="st0" d="M81.1,322.7c-0.6-2.6-1-5.5-2-8.1c-0.9-2.6-2.4-5-3.7-7.5c6.7,0,13.4,0,20.2,0
		C90.7,312.4,85.9,317.5,81.1,322.7z"/>
	<path class="st0" d="M395,307c6.5,0,13.2,0,20.3,0c-4,5.2-6.3,10.7-5.2,16.8C405.1,318.3,400,312.6,395,307z"/>
	<path class="st0" d="M183.4,415.3c-2.6-1.4-5.1-3.2-7.8-4.1c-2.6-0.9-5.6-0.9-8.1-1.3c5.2-4.8,10.5-9.8,16-14.9
		C183.4,401.8,183.4,408.5,183.4,415.3z"/>
	<path class="st0" d="M322.1,408.9c-4.6,1.7-9.9,3.7-15.1,5.6c0-6.2,0-13,0-19.5C312.1,399.7,317.3,404.5,322.1,408.9z"/>
	<path class="st0" d="M321.8,81.7c-4.6,4.4-9.7,9.2-14.7,13.9c0-6.4,0-13.2,0-19.5C311.9,78,316.9,79.8,321.8,81.7z"/>
	<path class="st0" d="M183.4,76.1c0,6.2,0,12.9,0,19.4c-5.1-4.7-10.1-9.4-14.8-13.8C173.4,79.9,178.4,78,183.4,76.1z"/>
	<path class="st0" d="M408.9,168.6c1.7,4.8,3.6,9.8,5.4,14.9c-6.1,0-12.8,0-19.4,0C399.7,178.4,404.5,173.3,408.9,168.6z"/>
	<path class="st0" d="M80.8,167.8c5.1,5.4,9.9,10.4,14.9,15.7c-6.9,0-13.5,0-20.5,0C78.5,178.8,80.8,173.9,80.8,167.8z"/>
	<path class="st0" d="M250.3,245.3c0.1,2.1-2.9,5.1-5.2,5.1c-2,0-4.9-2.8-5-5c-0.2-2.1,2.7-5.1,5-5.2
		C247.3,240,250.2,243,250.3,245.3z"/>
	<path d="M330,62.2c0,4.7-4.4,9.2-9.1,9.2c-4.5,0-8.7-4.5-8.8-9.5c-0.1-4.9,3.9-8.9,8.7-8.9C326,53,330,57.1,330,62.2z M327.5,62
		c-2.6-2.1-4.5-5-6.3-4.9c-1.8,0.1-3.5,3-5.2,4.7c1.7,1.7,3.3,4.7,5.1,4.9C322.8,66.9,324.8,64.1,327.5,62z"/>
	<path d="M169.2,419.7c5.1,0,9.1,4.1,9,9.3c0,4.7-4.5,9.2-9.1,9.1c-4.6-0.1-8.7-4.6-8.7-9.5C160.4,423.6,164.3,419.7,169.2,419.7z
		 M169.3,422.2c-2.1,2.7-4.9,4.7-4.7,6.4c0.1,1.8,3.1,4.8,4.9,4.8c1.7,0,4.7-3,4.8-4.9C174.3,426.7,171.4,424.8,169.3,422.2z"/>
	<path d="M437.5,321.4c0,4.7-4.4,9.2-9,9.2c-4.5,0-8.7-4.5-8.8-9.4c-0.1-4.9,3.9-8.9,8.7-8.9C433.4,312.2,437.4,316.2,437.5,321.4z
		 M428.5,314.7c-2.1,2.7-4.9,4.7-4.7,6.4c0.1,1.8,3.2,4.8,4.9,4.7c1.7,0,4.6-3,4.7-4.9C433.4,319.3,430.6,317.3,428.5,314.7z"/>
	<path d="M330,428.8c0,4.7-4.4,9.2-9,9.2c-4.5,0-8.7-4.5-8.8-9.5c-0.1-4.9,3.9-8.9,8.7-8.9C325.9,419.6,330,423.7,330,428.8z
		 M321.1,435c2.1-2.7,4.9-4.7,4.7-6.4c-0.1-1.8-3.1-4.8-4.9-4.8c-1.7,0-4.7,3-4.8,4.9C316.2,430.5,319,432.4,321.1,435z"/>
	<path d="M53,321c0-4.9,3.9-8.8,8.8-8.8c5.1,0,9.1,4.1,9,9.3c0,4.7-4.5,9.2-9.1,9.1C57.1,330.5,53,325.9,53,321z M62,314.8
		c-2.2,2.6-5,4.5-4.9,6.2c0.1,1.8,3,4.9,4.7,4.9c1.7,0,4.8-2.9,4.9-4.7C66.8,319.4,64.1,317.4,62,314.8z"/>
	<path d="M428.4,160.5c5.1,0,9,4.1,9,9.3c0,4.7-4.5,9.2-9.1,9.1c-4.6-0.1-8.7-4.6-8.7-9.5C419.6,164.4,423.5,160.5,428.4,160.5z
		 M434.9,169.3c-2.7-2.1-4.7-4.8-6.5-4.7c-1.8,0.2-3.4,3.2-5.1,4.9c1.8,1.7,3.5,4.6,5.3,4.7C430.4,174.3,432.4,171.5,434.9,169.3z"
		/>
	<path d="M70.8,169.7c0,4.7-4.4,9.2-9,9.2c-4.5,0-8.7-4.5-8.8-9.4c-0.1-4.9,3.9-8.9,8.7-8.9C66.8,160.5,70.8,164.5,70.8,169.7z
		 M68.3,169.4c-2.7-2.1-4.7-4.9-6.4-4.7c-1.8,0.1-3.4,3.1-5.1,4.9c1.7,1.7,3.4,4.6,5.2,4.7C63.7,174.3,65.7,171.5,68.3,169.4z"/>
	<path d="M160.4,61.8c0-4.9,3.9-8.8,8.8-8.8c5.1,0,9.1,4.1,9,9.2c0,4.7-4.5,9.2-9.1,9.1C164.6,71.3,160.5,66.8,160.4,61.8z
		 M169.3,55.6c-2.1,2.7-4.9,4.7-4.7,6.4c0.1,1.8,3.2,4.8,4.9,4.7c1.7,0,4.6-3.1,4.7-4.9C174.2,60.1,171.4,58.1,169.3,55.6z"/>
	<path class="st0" d="M327.5,62c-2.7,2.1-4.6,4.9-6.4,4.7c-1.8-0.1-3.4-3.1-5.1-4.9c1.7-1.7,3.4-4.6,5.2-4.7
		C322.9,57,324.9,59.9,327.5,62z"/>
	<path class="st0" d="M169.3,422.2c2.1,2.6,5,4.5,4.9,6.3c-0.1,1.8-3,4.8-4.8,4.9c-1.7,0-4.7-2.9-4.9-4.8
		C164.4,426.9,167.2,424.9,169.3,422.2z"/>
	<path class="st0" d="M428.5,314.7c2.2,2.6,5,4.5,4.9,6.3c-0.1,1.8-3,4.9-4.7,4.9c-1.7,0-4.7-2.9-4.9-4.7
		C423.6,319.4,426.4,317.4,428.5,314.7z"/>
	<path class="st0" d="M321.1,435c-2.1-2.6-5-4.5-4.9-6.3c0.1-1.8,3-4.8,4.8-4.9c1.7,0,4.7,2.9,4.9,4.8
		C326,430.3,323.2,432.3,321.1,435z"/>
	<path class="st0" d="M62,314.8c2.1,2.7,4.8,4.7,4.7,6.5c-0.2,1.8-3.2,4.7-4.9,4.7c-1.7,0-4.6-3.1-4.7-4.9
		C57,319.2,59.8,317.3,62,314.8z"/>
	<path class="st0" d="M434.9,169.3c-2.6,2.2-4.5,5-6.3,4.9c-1.8-0.1-3.5-3-5.3-4.7c1.7-1.8,3.3-4.8,5.1-4.9
		C430.2,164.5,432.2,167.2,434.9,169.3z"/>
	<path class="st0" d="M68.3,169.4c-2.6,2.1-4.5,5-6.3,4.9c-1.8-0.1-3.5-3-5.2-4.7c1.7-1.7,3.3-4.7,5.1-4.9
		C63.6,164.5,65.6,167.3,68.3,169.4z"/>
	<path class="st0" d="M169.3,55.6c2.2,2.6,5,4.5,4.9,6.3c-0.1,1.8-3,4.9-4.7,4.9c-1.7,0-4.7-2.9-4.9-4.7
		C164.4,60.2,167.2,58.2,169.3,55.6z"/>
</g>
</svg>
