<svg id="Layer_1" data-name="Layer 1" xmlns="http://www.w3.org/2000/svg" viewBox="0 0 432 576"><defs><style>.cls-1{fill:#fff;}</style></defs><title>pluto</title><path class="cls-1" d="M523,595H91q0-288,0-576H523Q523,307,523,595ZM152.09,355.13l-1.55,3.23h18.59v-1l-3.6-.65,4.69-16.56-1.44-.42-5.72,18.1L151.95,355c.59-.17,1.65-.26,1.7-.53.88-4.81,1.64-9.64,2.42-14.46l-1.43-.23Zm208.7-63.48c1.76-.75,4-1.86,6.37-2.67a29.64,29.64,0,0,1,6.47-1.62c1.57-.17,3.22.61,4.83.61,9.13,0,17.84-.54,26.69-4.48,6.87-3.06,13.19-6.52,17.51-12.05a78.46,78.46,0,0,0,11.94-21.59c1.8-5.06.32-11.26.42-17,.12-7.21-3.43-13.16-6.81-19-2.88-5-6.56-9.57-10-14.48a12.1,12.1,0,0,1,2.32-2.16c10.14-5.65,15.24-15.24,18.24-25.6,4.33-15-2.93-33.52-15.69-42.17-1.86-1.26-3.12-2.71-2.57-6.09,1-6.17,1.75-13.1-.07-18.87-3.65-11.55-11.38-16-23.84-15.4-8.77.42-18.8,6.38-17.69,17.82.48,4.91.08,9.92.08,13.19l-22.87,11.56c-.49-2-.37-4.9-1.75-6.5a192.76,192.76,0,0,0-16.9-17.78c-3.82-3.44-8.78-5.61-13.2-8.38a21,21,0,0,1-4.21-2.88c-6.62-6.92-13.46-13.51-22.64-17-1.36-.52-2.73-1-4.09-1.51a31.8,31.8,0,0,1,3.12-4.33c3.38-3.38,7.36-6.24,10.32-9.94,4.77-5.95,10.74-7,16.75-2.32,1,.8,2.21,1.41,3.2,2.25C338.9,73.65,353.07,78.8,369,77.81c7.2-.45,14.48-2.46,19-9.28,2-2.95,1.44-8.61-1.24-10.17-5.29-3.08-10.53-6.3-16-9-5.12-2.46-10.4-5.37-15.88-6.14-13.57-1.91-26.51-6.7-40.53-6.94-10.79-.18-19.65,2.64-26.14,10.36C278.67,58,272,71,269.34,85.73c-10.53-5.2-23.42,3.08-26.6,13-1.1,3.44-2.13,6.9-3.21,10.43-21.93-10.38-43.29-4.38-51.35,10.74-6.08,11.4-5.42,23.46-.53,35.41,3.93,9.6,11.78,15,18.73,18.68.91,7.36,1.69,13.45,2.41,19.56.75,6.33,2.53,12.21,7.58,17-3.54.91-6.48,2-9.51,2.37-13.54,1.48-27.13,2.61-40.67,4.14-5.81.66-12,.93-17.21,3.25a152.17,152.17,0,0,0-23.35,13.53c-16.08,11-23.55,26.22-20.54,45.79,1,6.6,5.38,11.68,11.94,12.54,3.76.49,8.63-1.43,11.78-3.85,4.7-3.62,8.42-8.56,12.4-13.07,6.35-7.22,12.69-14.45,18.82-21.85,7-8.47,16.18-13.61,26.16-17.42,13.47-5.15,27.08-9.94,41.1-15,5.88,6.28,14,11.7,23.13,13.62,5.78,1.21,6.78,4.66,8.54,8.41,3,6.37,5.73,12.86,8.74,19.66a6,6,0,0,1-1.89,1.29c-4.17,1.16-8.19,2.28-9.83,7.08-3.14,9.17-6.93,18.14-9.53,27.45-2,7.06-3,14.5,3.07,20.78a109.83,109.83,0,0,1,9.19,11.11,7,7,0,0,1,1.24,4.87c-2.45,12.85-11.76,22.39-16.76,34a3.66,3.66,0,0,1-1.85,1.61c-11.75,5.06-23.24,11-35.38,14.84-11.84,3.78-21.32,11-30.67,18.25a38.15,38.15,0,0,0-14.52,23.59c-.31,1.71-3.35,3.23-5.43,4.18-.81.37-3-.69-3.61-1.68-3.43-6-7.24-12-9.66-18.4a115.23,115.23,0,0,1-7.71-43.37c0-1-.69-2.06-1.05-3.09-.75.7-2.13,1.38-2.16,2.11-.28,6.59-1.28,13.35-.19,19.75a152.67,152.67,0,0,0,7.26,26.6c2.83,7.76,7,15,10.61,22.5-.3,2.41-2.6,4.95-3.62,7.92-1.35,3.93-3.93,6.26-7.58,6.54-8,.6-10.93,7.47-13.17,12.62-4.56,10.46-3.34,22.11-.59,33,4.38,17.28,14.18,31.53,26.77,44.13,9.52,9.53,20.54,15.53,33.76,17.41,9.59,1.36,19.27,2.82,28.26-2.71,9.26-5.69,16.56-13,19.88-23.3,17.25,5.11,34.56,9.17,52.37,1.14a21.66,21.66,0,0,1,2.29,3.84c3.56,9.73,11,16.76,17.67,24,10.91,12,30.73,13.3,44.42,4.43,3.81,6.15,10.35,7.28,16.49,7.66,8.3.51,16.54.25,25-2.1,4.65-1.3,10.4.46,15.19-2.72,5.09-3.38,10.26-6.65,15.87-10.27a32.4,32.4,0,0,0,5.47,2.86c8.05,2.73,16.2,3.76,24.6,1.15a15.86,15.86,0,0,1,7.2-.1c8.81,1.57,17.27-.19,25.13-3.59,6.62-2.86,12.74-7,18.76-11.08,10.44-7,13.51-21.89,7.52-31.85-7-11.73-16.25-20.68-30.33-24.84-16.77-5-33.2-7-50.25-2.75a5.57,5.57,0,0,1-4.06-.41,32.86,32.86,0,0,1-6.71-5.93c-6.9-8.49-13.71-17.07-20.27-25.82a118.1,118.1,0,0,1-9.24-14.47c-1.42-2.63-2.58-5.94-2.33-8.81.44-5.05,1.19-10.43,3.39-14.89,3.71-7.55-.32-14.4-1-21.35s-3.85-13.68-6.79-20.11c-4.12-9-9.28-17.44-18.15-22.84a7.54,7.54,0,0,1-2-2c2.45-4,4.73-7.12,6.3-10.54,2.75-6,4.67-12.41,7.68-18.26s.8-10.69-2.24-14.93C370.34,301.49,365.24,296.63,360.8,291.65Zm-186.94,16-1.16-1.08c-2.64,3.36-5.19,6.81-8,10.05-1.16,1.35-2.71,3-4.27,3.23-3.33.49-6.79.15-11.46.15l14.29-19.19-1.38-1-18.21,21.94h23.78l.12-.47-3.92-.74ZM99.68,360.11c1.46-2.13,3.13-3.45,3-4.52-1.9-13.77,3.21-25.41,10.6-36.43a5.8,5.8,0,0,0,.46-1.92C103.84,329.34,99.32,343.2,99.68,360.11Zm31.83,2.65c5,.13,5.09,0,4.55-4.24a11.94,11.94,0,0,1,.36-3.37c.72-4.31,1.48-8.62,2.23-12.92C132.8,347.86,132.53,355.27,131.51,362.76Zm41.2-26.41,1-4.88c-4.15,6.67-10.3,2.33-16.05,3.84l4.86-11.5-.91-.34-7.28,12.88Zm-26.55-11.58L144.9,324c-5.7,3.1-5.31,9.58-7.84,15.15L145,337.4l-.21-1.07-4.89.55Zm-44.83,36.28-1.28.14c.16,2.6.21,5.21.5,7.79s.79,5.06,1.27,8c2.77,1.48,2.9-2.24,2.82-3.64-.19-3.48-1.31-6.91-2.16-10.34A8,8,0,0,0,101.33,361.05ZM124,331.39l-1.42-.53L115.9,348a8.39,8.39,0,0,0,2.08,0c3.44-.82,1.42-3.81,2.17-5.71C121.55,338.69,122.73,335,124,331.39Zm-8.22,34.73,1.82-15.68-1.59-.15-1.61,19.95,6.12-5.49ZM124.43,326l4.94-1.3,2.37-9.26-.91-.44Zm-16.95,69.85,1.38-.58L104.42,379l-1.58.53Z" transform="translate(-91 -19)"/><path d="M360.8,291.65c4.45,5,9.54,9.85,13.58,15.47,3,4.24,5.22,9.13,2.24,14.93s-4.92,12.26-7.68,18.26c-1.56,3.41-3.85,6.49-6.3,10.54a7.54,7.54,0,0,0,2,2c8.86,5.4,14,13.83,18.15,22.84,2.94,6.43,6.07,13.23,6.79,20.11s4.76,13.8,1,21.35c-2.19,4.47-2.94,9.84-3.39,14.89-.25,2.87.91,6.18,2.33,8.81a118.1,118.1,0,0,0,9.24,14.47c6.56,8.76,13.37,17.33,20.27,25.82a32.86,32.86,0,0,0,6.71,5.93,5.57,5.57,0,0,0,4.06.41c17.06-4.26,33.49-2.21,50.25,2.75,14.08,4.16,23.29,13.11,30.33,24.84,6,10,2.92,24.8-7.52,31.85-6,4.06-12.14,8.22-18.76,11.08-7.87,3.4-16.33,5.15-25.13,3.59a15.86,15.86,0,0,0-7.2.1c-8.4,2.61-16.55,1.59-24.6-1.15a32.4,32.4,0,0,1-5.47-2.86C416.16,561.33,411,564.6,405.9,568c-4.79,3.18-10.54,1.42-15.19,2.72-8.41,2.36-16.66,2.62-25,2.1-6.14-.38-12.68-1.5-16.49-7.66-13.7,8.87-33.51,7.54-44.42-4.43-6.63-7.27-14.11-14.31-17.67-24a21.66,21.66,0,0,0-2.29-3.84c-17.81,8-35.13,4-52.37-1.14C229.2,542,221.89,549.31,212.64,555c-9,5.53-18.68,4.07-28.26,2.71-13.22-1.88-24.24-7.89-33.76-17.41-12.6-12.6-22.4-26.85-26.77-44.13-2.75-10.84-4-22.49.59-33,2.25-5.15,5.13-12,13.17-12.62,3.65-.27,6.24-2.61,7.58-6.54,1-3,3.31-5.51,3.62-7.92-3.59-7.48-7.78-14.75-10.61-22.5a152.67,152.67,0,0,1-7.26-26.6c-1.08-6.4-.08-13.16.19-19.75,0-.73,1.41-1.41,2.16-2.11.37,1,1.08,2.07,1.05,3.09a115.23,115.23,0,0,0,7.71,43.37c2.42,6.44,6.23,12.37,9.66,18.4.56,1,2.8,2.06,3.61,1.68,2.08-1,5.12-2.47,5.43-4.18a38.15,38.15,0,0,1,14.52-23.59c9.35-7.25,18.83-14.47,30.67-18.25,12.14-3.87,23.63-9.78,35.38-14.84a3.66,3.66,0,0,0,1.85-1.61c5-11.64,14.31-21.18,16.76-34a7,7,0,0,0-1.24-4.87,109.83,109.83,0,0,0-9.19-11.11c-6.05-6.28-5-13.72-3.07-20.78,2.6-9.31,6.39-18.28,9.53-27.45,1.64-4.79,5.67-5.92,9.83-7.08a6,6,0,0,0,1.89-1.29c-3-6.8-5.75-13.29-8.74-19.66-1.76-3.76-2.76-7.2-8.54-8.41-9.17-1.92-17.26-7.34-23.13-13.62-14,5.11-27.63,9.9-41.1,15-10,3.81-19.16,9-26.16,17.42-6.12,7.41-12.46,14.64-18.82,21.85-4,4.52-7.69,9.46-12.4,13.07-3.15,2.42-8,4.34-11.78,3.85-6.56-.86-10.93-5.94-11.94-12.54-3-19.56,4.46-34.82,20.54-45.79A152.17,152.17,0,0,1,149,220.32c5.19-2.32,11.4-2.59,17.21-3.25,13.54-1.53,27.12-2.66,40.67-4.14,3-.33,6-1.46,9.51-2.37-5-4.83-6.83-10.71-7.58-17-.72-6.11-1.5-12.2-2.41-19.56-7-3.73-14.8-9.07-18.73-18.68-4.89-12-5.54-24,.53-35.41,8.06-15.12,29.42-21.12,51.35-10.74,1.08-3.52,2.1-7,3.21-10.43,3.18-9.9,16.07-18.19,26.6-13C272,71,278.67,58,288.14,46.69c6.49-7.72,15.35-10.54,26.14-10.36,14,.24,27,5,40.53,6.94,5.48.77,10.76,3.67,15.88,6.14,5.51,2.65,10.75,5.87,16,9,2.67,1.56,3.2,7.22,1.24,10.17-4.53,6.82-11.82,8.83-19,9.28-15.89,1-30.05-4.16-42.23-14.55-1-.84-2.17-1.45-3.2-2.25-6-4.72-12-3.62-16.75,2.32-3,3.69-6.94,6.56-10.32,9.94a31.8,31.8,0,0,0-3.12,4.33c1.36.5,2.73,1,4.09,1.51,9.18,3.5,16,10.08,22.64,17A21,21,0,0,0,324.28,99c4.43,2.77,9.38,4.94,13.2,8.38a192.76,192.76,0,0,1,16.9,17.78c1.38,1.6,1.25,4.5,1.75,6.5L379,120.1c0-3.27.4-8.27-.08-13.19-1.12-11.44,8.91-17.4,17.69-17.82,12.46-.6,20.19,3.85,23.84,15.4,1.82,5.77,1.08,12.7.07,18.87-.55,3.37.71,4.83,2.57,6.09,12.76,8.65,20,27.19,15.69,42.17-3,10.36-8.1,19.95-18.24,25.6a12.1,12.1,0,0,0-2.32,2.16c3.43,4.91,7.11,9.47,10,14.48,3.38,5.87,6.93,11.83,6.81,19-.1,5.69,1.38,11.89-.42,17a78.46,78.46,0,0,1-11.94,21.59c-4.31,5.53-10.64,9-17.51,12.05-8.85,3.94-17.56,4.51-26.69,4.48-1.61,0-3.26-.78-4.83-.61a29.64,29.64,0,0,0-6.47,1.62C364.81,289.79,362.56,290.9,360.8,291.65Zm-26-144.9a32,32,0,0,1-3.71-3.71c-.61-.84-.25-2.44-.91-3.18-5.22-5.81-11-11.19-15.8-17.29-8-10.17-18.88-14.72-31-18-12.4-3.33-20.27,1.8-20.48,15-.17,10.29,1.51,20,6.29,29.32a79.88,79.88,0,0,0,25,28.66c1.66,1.2,4.35,1.28,6.58,1.33,7.79.19,15.58.13,23.36.17l2.26-8.58c-3.31-3.52-6.57-5.91-8.35-9.13a47.32,47.32,0,0,1-4.83-13.57c-.34-1.71,1.67-4.67,3.42-5.75,1.26-.78,4.24,0,5.79,1.11,6.1,4.2,9.34,10.12,8.59,17.85,5.6-1.53,6.43-3.07,5-7.66-.67-2.18-1-4.48-1.43-6.71l4.95,9,4.64-1.75c-3.85-5.6-9.52-10-9.21-17.57.08-1.87,1-3.69,1.59-5.54,2.3.77,5.24.9,6.76,2.43,2.74,2.75,4.62,6.35,6.74,9.41,4.49-4.14,5.21-8.44,1.8-14.26-5.31-9.06-13.21-15.15-21.14-21.46a39.4,39.4,0,0,0-20.78-8.68c-2.57-.27-6.24.42-7.81,2.13-2.67,2.91-2,6.48,1.61,9.07,1.73,1.25,2.93,3.32,4.75,4.37,8.35,4.84,14.1,12.39,19.93,19.65C331.52,137.17,332.79,142.27,334.83,146.74Zm71.8,352.54L423,489.08l-5-.29v-.6l4.82-.4c-8.65-6.88-16.81-13.68-22.29-23.11-5.29-9.1-10.9-18-15.92-26.27-3,5.49-6,12.51-10.31,18.53s-10,11.11-15.31,16.45c-.88.9-2.56,1-3.87,1.48a19,19,0,0,1,2.25-3.9c4.1-4.33,9-8.05,12.39-12.86a105.67,105.67,0,0,0,12-22.44c3.24-8.31,6.6-16.39,6.11-25.34a84.91,84.91,0,0,0-2.93-16.66c-1.69-6.45-3-13.35-6.39-18.91-4.38-7.22-10.53-13.4-16.17-19.8a6.11,6.11,0,0,0-4.84-1.64c-7.36,1.34-14.59,4.12-22,4.47A98,98,0,0,1,288.52,348c-7.94-3.76-15.44-8.45-23.32-12.82-1.15,2.15-2.68,4.3-3.5,6.69-4.15,12-10.82,22.56-18.59,32.48-2.63,3.36-5.24,6.76-8.14,9.88-1.74,1.88-4,3.26-6,4.86l-.56-.78L237,377.74a11.9,11.9,0,0,0-4.91,1.25c-8.47,3.27-17.35,5.74-25.31,10-7.13,3.79-14.4,7.27-21,12.56C176.4,409,168.62,417,163.46,427.6c2.33,0,4.69-.54,6.67.11,4.58,1.51,8.9,3.78,13.46,5.37a15.32,15.32,0,0,0,7.07.91c7.65-1.19,14.87-.76,21.12,4.31,5.59,4.53,10.59,9.7,13.4,16.44,3.24,7.79,6.77,15.57,8.84,23.7,1.49,5.85.16,12.36,1.19,18.4,1.89,11.12-.42,21.82-1.44,33,16.19,2.12,32.9,7.21,50,.51-1-2.79-2-5.5-3.07-8.21-3.22-8.52-7-16.88-9.52-25.6-2.8-9.65-4.62-19.6-6.55-29.48-1.46-7.48-2.72-15-3.52-22.59-.74-7.06-.64-14.2-1.18-21.28a9,9,0,0,0-2.12-4.79c-8.07-9.5-8.61-20.61-7.11-32.23-.6,11.32,2.24,21.57,9.65,31.75,0-7-.48-12.85.14-18.59.59-5.57,2.14-11.07,3.58-16.52,1.35-5.12,3.12-10.12,4.7-15.18l1.49.46c-.52,3.21-.42,6.7-1.67,9.6-4.54,10.49-5.43,21.59-5.41,32.68a341.31,341.31,0,0,0,2,36.72,320.42,320.42,0,0,0,6,35.58c2,8.92,5.45,17.52,8.32,26.25,1.43,4.34,2.57,8.84,4.58,12.89,4,8,7.88,16.21,13,23.52,4.31,6.18,9.4,12.59,15.66,16.46,12.2,7.55,25.33,7.25,37.34-.19,1.16,1.23,2,2.69,3.27,3.37a55.33,55.33,0,0,0,9.65,4.43c12.83,4,30.64,2.3,37.21-13.57.55-1.33,2.16-2.23,3.27-3.32l-.05-.06c-.13,5.85-2.68,10.47-8.42,14.27,2.4,0,3.69.37,4.62-.06,9.56-4.38,18.07-10.06,23.62-19.38a26.73,26.73,0,0,0,2-24.43c-4.52-11.31-14.52-17.28-25.32-20.55-12.66-3.84-25.89-5.72-39.32-4.32-7,.73-14.16,1-21.1,2.2-3.86.68-7.45,3-11.16,4.51,9.49-7.72,21-8.67,32.48-10.2-23.18-36.22-41.61-74-42.16-118.25a4.62,4.62,0,0,1,2.32,3.16c1.74,10.95,3.06,22,5.17,32.85,1.44,7.43,3.09,15,6.18,21.87,5.85,12.93,12.76,25.39,19.38,38,.62,1.17,2.34,1.77,3.54,2.64-.28,4.2,7.12,17.88,10.64,19.5.47.22,1.18-.15,1.75-.06,8.08,1.23,16.13,2.6,24.23,3.69,4.94.66,9.94.87,14.92,1.29.08.93-.19,2.42.29,2.71,3.14,2,6.8,3.26,9.61,5.59,3.45,2.86,7.56,6,9.07,9.92,5,12.88,4.81,25.89-2.32,38.25,15.7,5.5,21.78,4.81,36.5-1,4.15-1.64,8.44-6.63,9.79-11,4.17-13.41.47-20.34-11.76-29.24-3.17-2.31-6.38-4.58-9.57-6.87,11.09,2.42,19.89,9.08,23.94,18.83,5.24,12.65.32,23.72-11.48,31.5,9.42-.46,18.31-1.34,26.75-5.65,8.23-4.2,12-11.34,13.09-19.48.64-4.69-1.58-10-3.33-14.72-3-8.16-10.34-12-17.52-15.83,6.41,1.17,12.38,3.85,15.87,9.23,7,10.85,10.73,22.49,2.12,36.05,2.39-1.21,3.47-1.41,4-2.05,6.23-8.29,10.24-17,5.66-27.59a42.84,42.84,0,0,0-27.74-24.71,138.11,138.11,0,0,0-28-5c-11.21-1-22.15,1.4-32.57,5.78C414.91,495.7,410.76,497.51,406.62,499.29ZM373.89,317l.06-2.16c1.54-5.23-2.91-8.09-5.19-11.4-2.79-4-6.64-8.12-11-10.1-4-1.81-9.22-.85-14-1.11a5,5,0,0,0,.73.65c6.14,3.48,12.3,7.19,14.83,14.14.79,2.19,0,6.66-1.6,7.65-3.58,2.23-8.19,4.22-12.25,4a122.65,122.65,0,0,1-26.06-3.92,175.31,175.31,0,0,1-29.83-11.12c-6-2.9-10.71-8.27-16.06-12.47-3.33-2.62-6.23-9.89-4-13,3.08-4.15,1.25-7.39,0-11-5.78-.74-9.56-.25-11,7-1.56,7.82-6.17,15-8.25,22.77-1.71,6.41-3.9,13.84.87,19.67,5.29,6.46,10.12,13.32,18.18,17.5,9.91,5.14,19.37,11,29.91,15.07,13.41,5.21,27.07,6.32,41.15,5.63,6.16-.3,12.52-.44,17.1-5.06a52.56,52.56,0,0,0,9.69-12.77C370.34,330.81,374.87,324.78,373.89,317Zm-185.8,162a65.51,65.51,0,0,1-3.77-5.4c-6-10.72-8.41-22-1.8-33.07,2.3-3.86.44-4.81-1.88-5.45-4.23-1.15-8.09-2.9-13-2.67-6.79.32-11.66,2.49-15.23,7.7-4.75,6.95-7.51,13.87-5.19,23.21,2,8.15,5.54,14.83,9.45,21.15l5.52-1.79.37.69-3.59,2.75,3.74,4.33-.49.6-5.31-3c-7.4,6-9.24,9.44-10.93,19.48-3.32,19.69,5.73,30.82,20.6,40.7a46.22,46.22,0,0,0,24.3,7.56c5.12.2,11.26.44,15.25-2,6.43-4,8.21-12,9.79-19.17.69-3.13.09-6.54.05-9.82,0-2.77.7-5.86-.28-8.24-3.54-8.63-7.65-17-11.54-25.51,1.31,1.05,3,1.86,3.87,3.2a62.92,62.92,0,0,1,9.95,28.12c.78,7.27.46,14.59-2.07,21.54-.83,2.27-2.7,4.16-4.09,6.23l1.44,1.2c4.29-4.59,9.33-8.68,12.71-13.87,5.48-8.42,6.89-18.31,7.05-28.25a136.35,136.35,0,0,0-3.81-35.71c-3.17-12.68-9.06-23.61-18.73-32.05-5.93-5.18-13.94-8-21.43-4.11-6.07,3.11-8.51,9.88-8.53,16.75,0,6.42,2.16,12.41,5.11,18.13A56.1,56.1,0,0,1,188.09,479.06Zm98.43-376.62,12.94,4.14c-1.94-5.65.64-10.17,4.87-11.7,3.58-1.29,8.27.5,13,1-3.62-2.62-7.32-4.54-10-7.41-5.37-5.71-12.17-6.44-19.17-6.26-3.17.08-5.12,1.79-5.37,6-.34,5.8,1.89,9.83,6.27,13.35l-2.53.94c0-.47.17-1.22-.05-1.38-5.94-4-11-9.18-18.4-11.17-11.35-3.06-21.32,2.67-23,14.49a104,104,0,0,0-1,19.32c.51,10.52,3.2,20.52,9.37,29.37a48.92,48.92,0,0,1,3.24,6.44l-1.24.55c-9.87-11.61-14.38-25.44-15.71-40.59l-1.53-1L220,136.15c3.36-8.18,13.08-14.18,20.58-22.52-15.4-9.73-29.85-9.11-43.45,1.45-9.78,7.59-11.55,18.18-9.25,30,2,10.31,11.19,22.6,19.71,25.75L212,153.64c-.89,19.52-6,39.44,9.27,56l8-5.76c-3.74-5.57-1.29-13.62,5.1-16.47-5,12-5,12-1.82,16,1.36-2.24,2.62-4.28,3.86-6.34a6.63,6.63,0,0,1,9.94-1.69c-2.17,1-5.06,1.39-6.39,3-9.3,11.56-22.11,16.32-36,18.47-9.24,1.43-18.71,1.43-28.06,2.15-5,.38-10.09.25-14.81,1.54a102.66,102.66,0,0,0-28.39,12.34c-16.15,10.31-25.39,24-24.81,43.65a15,15,0,0,0,8.15,12.9c2.22,1.19,7.81-1.26,10.27-3.69,8.25-8.15,15.72-17.09,23.6-25.63,6.33-6.86,11.27-15.3,20-19.5,9.46-4.55,19.15-8.67,28.88-12.64,8.79-3.59,18.15-6,26.56-10.26,9.42-4.81,16-13,20.87-22.48,0,1.66.56,3.6-.11,4.92-1.88,3.67-4.27,7.07-6.47,10.59,6.24.94,11.74-.08,15.55-6.31.54,6.94-8.31,10.27-18.9,7.84l2.45,2.52-8.54,3.93c10.43,9,21.63,15.84,35.63,17.91l-7.06.69c1.9,3,3.82,5.52,5.11,8.29,3,6.33,6,12.68,8.27,19.26,2.63,7.49,5.45,15.13,6.46,22.92.73,5.65,2.81,9,7.56,11.22,6.75,3.12,13.72,5.83,20.3,9.27,11.92,6.23,24.57,8,38,7.65-2.61-6.93-5.82-13.29-7.27-20-1.17-5.44-4.4-8.69-8-12.11-1.6-1.54-3.29-3-4.81-4.36-9.53,1-18.94,1.4-28-2.68s-13.42-11.4-16.73-20.43c-3.4-9.28-.65-17.73,1.21-26.54-.16,8.08-1.89,15.89,1,24.2,3.14,8.89,7.68,16.17,15.93,19.63,7.69,3.22,16.14,5.85,24.5,4L314,258.52l1.2-.59c3.9,6.75,6.26,14.18,11.9,20.2,8.08,8.63,17.57,11.93,28.65,11.62,2.91-.08,5.75-2.63,9.48-4.47-23.57-11.76-35.45-23.84-33.68-33.39,2.42,4.14,4.7,8.45,7.37,12.51s5.77,8,8.68,11.93l2.23-2.07.27-5.58,4.63,1.31L351,275.46c17.75,13.86,49.23,11,62-.11l-8.64-7.92,2.83-1.4,5.07,6.88.23-1.5,6.06-.58c20.75-17.47,18.07-59.43-13.17-73.83l-6.1,11.22,1.9,2.55c-5.81-.31-6.38.45-8,9.29l-.37-6c-4.27,1.8-8.32,3.35-12.24,5.2-3.55,1.68-6.94,3.68-10.41,5.54l.13-.14a10.46,10.46,0,0,0-2.78-.38c-9.19,1.24-18.16,1.46-27.14-1.95-8.06-3.05-9.35-1.73-9.4,7.24,0,.67,0,1.33,0,2q0,8.74,0,17.47A41.89,41.89,0,0,1,328,238c-1.51-10.51-3-21-11.4-28.77-1.4-1.3-3.11-2.5-4-4.12-1.9-3.59-3.53-2-5.12,0-1.73,2.12-3.24,4.42-5.48,7.51,2-12.07,17.51-19.08,25-13.8l-13.88,2.55-.4,1.88c4.13,2.84,8.55,5.36,12.34,8.61,5.22,4.47,10.94,6.25,17.74,7.62,13.76,2.77,26.92,2.07,39.28-3.79,6.85-3.25,13.94-8.17,18.12-14.25s4.88-14.28,6.62-21.69c.71-3,.12-6.37.12-9.57,2.47,6.08,4.15,12,1.19,18.31a7.18,7.18,0,0,0,.73,6.31c1.36,1.68,4.16,2.2,6,3.07,2.73-2.13,5.68-3.71,7.61-6.11A61.35,61.35,0,0,0,429.89,180c2.82-5.86,5.65-12.13,4.93-18.66-1-9.09-4.66-17.61-9.49-25.32-3.95-6.3-5.91-6.22-10.73-1.11-8.48,9-26.09,6.91-32.58-6.11-.84-1.69-1.78-3.33-2.73-5.09-12.42,4.47-22.84,10.39-27.21,23.61a56.81,56.81,0,0,0,.06,36.24c-5.76-8.84-7-18.41-5.53-29.49a74.74,74.74,0,0,1-6.75,4.89c-6.63,3.71-9.31,10.43-12.46,16.61-1.1,2.17-2.51,6.1,2.1,7.7.82.28,1.18,1.9,2.33,3.92-20.54-11.79-39.85-6.37-59.15,0l-.31-1.41,18.56-6.69c-4.33-4.55-9.21-9.38-13.75-14.51C265.34,151.29,259,135.84,260,117.78c.49-9.08,5.93-16.15,14.64-17.39C278.43,99.86,282.55,101.69,286.53,102.44Zm11.35-52.75c3.27-.78,5.43-2.06,6.83-1.49a151,151,0,0,1,18.4,8.63c3.57,2,6,6.11,9.64,8C343.44,70.27,354,76.24,366.9,75.1c6.48-.58,12.09-2.39,16.62-7.13a5.89,5.89,0,0,0-.9-8.69c-11.72-7.73-25-11.67-38.36-15.1C335.62,42,326.6,41,317.68,40.12c-8.42-.8-17,0-23.56,6-4.73,4.37-9.42,8.87-11.75,15.53-3,8.67-7.27,16.92-11.08,25.58L279,91.46c1.24-3.5,2.43-6.3,3.22-9.21,1-3.81,3.8-4.31,7.08-4.49.65,0,1.29-1.3,1.83-2.07,6.25-8.83,13.52-16.48,23.89-20.51C311.2,48.89,304.33,52.26,297.88,49.68Zm120.64,68.84c-1.75-9.17-2.77-15.55-8.75-21.06-5.06-4.67-9.85-7.32-16.12-6.15-6.62,1.24-15.33,17.33-13.52,23.87.86,3.12,1.36,6.64,3.19,9.12,3.32,4.52,6.89,9.38,11.49,12.31,6.77,4.32,13.07,2.93,17.13-3.35C415.16,128.28,416.88,122.32,418.53,118.53ZM141.85,451.37a20.78,20.78,0,0,0-13.71,16c-2.29,10.8-2.28,21.81,1.93,32.3,3,7.54,6.44,14.95,10,22.25,1.24,2.54,3.49,4.58,6.12,7.92-5.81-17.38-4.23-31.84,9.51-43.36C147.54,478.21,142,465.43,141.85,451.37ZM339.06,293c2.71,7.65,4.83,14.42,7.54,20.95,1.55,3.72,5,.89,7.39.77,1.11-.05,2.91-2.8,3-4.4.27-5.51-3.25-8.94-7.65-11.54C346.39,297,343.39,295.41,339.06,293Zm-64.31-3.38,1.48-.35L273.5,278l-1.59.36C269.95,282.75,273.81,285.86,274.74,289.6Z" transform="translate(-91 -19)"/><path d="M173.85,307.64l-10.18,12.92,3.92.74-.12.47H143.69l18.21-21.94,1.38,1L149,320c4.66,0,8.12.34,11.46-.15,1.56-.23,3.11-1.88,4.27-3.23,2.78-3.24,5.33-6.69,8-10.05Z" transform="translate(-91 -19)"/><path d="M99.68,360.11c-.36-16.91,4.15-30.77,14-42.87a5.8,5.8,0,0,1-.46,1.92c-7.39,11-12.5,22.66-10.6,36.43C102.81,356.66,101.14,358,99.68,360.11Z" transform="translate(-91 -19)"/><path d="M131.51,362.76c1-7.49,1.29-14.9,7.13-20.54-.74,4.31-1.5,8.61-2.23,12.92a11.94,11.94,0,0,0-.36,3.37C136.6,362.74,136.5,362.9,131.51,362.76Z" transform="translate(-91 -19)"/><path d="M152,355l11.12,2.81,5.72-18.1,1.44.42-4.69,16.56,3.6.65v1H150.54l1.55-3.23Z" transform="translate(-91 -19)"/><path d="M172.71,336.36H154.35l7.28-12.88.91.34-4.86,11.5c5.75-1.51,11.9,2.83,16.05-3.84Z" transform="translate(-91 -19)"/><path d="M146.16,324.77l-6.27,12.11,4.89-.55.21,1.07-7.92,1.71c2.54-5.57,2.14-12.05,7.84-15.15Z" transform="translate(-91 -19)"/><path d="M101.33,361.05a8,8,0,0,1,1.15,2c.84,3.43,2,6.86,2.16,10.34.08,1.4,0,5.12-2.82,3.64-.48-3-1-5.47-1.27-8s-.34-5.2-.5-7.79Z" transform="translate(-91 -19)"/><path d="M124,331.39c-1.28,3.63-2.46,7.3-3.87,10.88-.75,1.9,1.27,4.9-2.17,5.71a8.39,8.39,0,0,1-2.08,0l6.69-17.15Z" transform="translate(-91 -19)"/><path d="M115.79,366.12l4.74-1.37-6.12,5.49L116,350.29l1.59.15Z" transform="translate(-91 -19)"/><path d="M124.43,326l6.41-11,.91.44-2.37,9.26Z" transform="translate(-91 -19)"/><path d="M107.48,395.86l-4.64-16.37,1.58-.53,4.44,16.31Z" transform="translate(-91 -19)"/><path d="M152.09,355.13l2.54-15.36,1.43.23c-.78,4.82-1.54,9.65-2.42,14.46,0,.27-1.11.36-1.7.53Z" transform="translate(-91 -19)"/><path class="cls-1" d="M355.24,474.72c-1.21-.86-2.94-1.45-3.55-2.63-6.62-12.57-13.53-25-19.38-38-3.09-6.83-4.74-14.45-6.18-21.87-2.11-10.87-3.43-21.9-5.17-32.85a4.62,4.62,0,0,0-2.32-3.16c.55,44.21,19,82,42.16,118.25-11.44,1.53-23,2.48-32.48,10.2,3.71-1.56,7.29-3.83,11.16-4.51,6.95-1.23,14.07-1.46,21.1-2.2,13.42-1.4,26.66.48,39.32,4.32,10.8,3.27,20.8,9.25,25.32,20.55a26.73,26.73,0,0,1-2,24.43c-5.55,9.32-14.06,15-23.62,19.38-.93.43-2.22.06-4.62.06,5.73-3.8,8.29-8.42,8.4-14.29,2.53-5.11,2.24-10.17.07-16.1v16.17c-1.12,1.1-2.72,2-3.27,3.32-6.57,15.87-24.38,17.59-37.21,13.57A55.33,55.33,0,0,1,353.3,565c-1.27-.69-2.12-2.14-3.27-3.37-12,7.44-25.14,7.74-37.34.19-6.25-3.87-11.35-10.28-15.66-16.46-5.1-7.31-9-15.5-13-23.52-2-4.06-3.16-8.56-4.58-12.89-2.87-8.72-6.3-17.33-8.32-26.25a320.42,320.42,0,0,1-6-35.58,341.31,341.31,0,0,1-2-36.72c0-11.09.88-22.19,5.41-32.68,1.25-2.9,1.15-6.38,1.67-9.6l-1.49-.46c-1.58,5.05-3.35,10.06-4.7,15.18-1.44,5.45-3,10.95-3.58,16.52-.61,5.74-.14,11.61-.14,18.59-7.41-10.18-10.25-20.44-9.65-31.75-1.5,11.62-1,22.73,7.11,32.23a9,9,0,0,1,2.12,4.79c.54,7.08.44,14.22,1.18,21.28.8,7.57,2.06,15.12,3.52,22.59,1.93,9.88,3.75,19.83,6.55,29.48,2.53,8.72,6.3,17.08,9.52,25.6,1,2.71,2,5.43,3.07,8.21-17.08,6.71-33.78,1.61-50-.51,1-11.2,3.32-21.9,1.44-33-1-6,.3-12.55-1.19-18.4-2.07-8.13-5.6-15.91-8.84-23.7-2.81-6.74-7.81-11.91-13.4-16.44-6.25-5.07-13.48-5.5-21.12-4.31a15.32,15.32,0,0,1-7.07-.91c-4.56-1.59-8.88-3.86-13.46-5.37-2-.65-4.34-.11-6.67-.11,5.16-10.63,12.95-18.6,22.33-26.09,6.63-5.29,13.9-8.77,21-12.56,8-4.23,16.84-6.7,25.31-10a11.9,11.9,0,0,1,4.91-1.25l-8.68,10.61.56.78c2-1.6,4.3-3,6-4.86,2.9-3.12,5.51-6.52,8.14-9.88,7.77-9.92,14.45-20.46,18.59-32.48.83-2.39,2.36-4.54,3.5-6.69,7.88,4.37,15.38,9.05,23.32,12.82a98,98,0,0,0,47.06,9.76c7.37-.36,14.6-3.14,22-4.47a6.11,6.11,0,0,1,4.84,1.64c5.64,6.41,11.79,12.58,16.17,19.8,3.38,5.56,4.7,12.46,6.39,18.91a84.91,84.91,0,0,1,2.93,16.66c.5,9-2.87,17-6.11,25.34a105.67,105.67,0,0,1-12,22.44c-3.38,4.81-8.29,8.53-12.39,12.86a19.19,19.19,0,0,0-2.26,3.91Zm-32.09,35c24.55,4.86,35.11,19.59,31.78,44.49,5-13.74,3.43-25-7.19-35.51C341.51,512.62,333.14,508,323.15,509.77Zm46.92,1.63c6.16,2.32,13.21,3.72,18.74,7.4s9.82,9.74,14.37,14.46C402.4,521.42,382,508.41,370.07,511.4Zm-20-18.13c-11.77-.93-32.68,5-35.84,9.14Z" transform="translate(-91 -19)"/><path class="cls-1" d="M370.19,224.77c3.46-1.86,6.86-3.86,10.41-5.54,3.92-1.85,8-3.4,12.24-5.2l.37,6c1.59-8.85,2.16-9.6,8-9.29l-1.9-2.55,6.1-11.22c31.24,14.4,33.93,56.36,13.17,73.83l-6.06.58-.23,1.5L407.19,266l-2.83,1.4,8.64,7.92c-12.75,11.12-44.23,14-62,.11l3.75-5.46-4.63-1.31-.27,5.58-2.23,2.07c-2.91-4-6-7.83-8.68-11.93S334,256,331.6,251.9c-1.77,9.55,10.11,21.63,33.68,33.39-3.73,1.84-6.57,4.39-9.48,4.47-11.08.31-20.57-3-28.65-11.62-5.64-6-8-13.45-11.9-20.2l-1.2.59,8.4,19.07c-8.36,1.9-16.81-.73-24.5-4C289.69,270.19,285.15,262.9,282,254c-2.94-8.32-1.21-16.12-1-24.2-1.87,8.81-4.61,17.26-1.21,26.54,3.31,9,7.74,16.38,16.73,20.43s18.45,3.69,28,2.68c1.52,1.37,3.21,2.82,4.81,4.36,3.56,3.42,6.79,6.67,8,12.11,1.45,6.74,4.67,13.1,7.27,20-13.39.34-26-1.43-38-7.65-6.58-3.44-13.55-6.14-20.3-9.27-4.75-2.2-6.83-5.57-7.56-11.22-1-7.8-3.82-15.43-6.46-22.92-2.31-6.58-5.32-12.93-8.27-19.26-1.29-2.77-3.21-5.25-5.11-8.29l7.06-.69c-14-2.07-25.2-8.94-35.63-17.91l8.54-3.93-2.45-2.52c10.58,2.43,19.44-.9,18.9-7.84-3.82,6.22-9.31,7.25-15.55,6.31,2.2-3.52,4.59-6.93,6.47-10.59.67-1.31.11-3.26.11-4.92l.12.11a6.63,6.63,0,0,0-10,1.68c-1.23,2.06-2.49,4.1-3.86,6.34-3.22-4-3.22-4,1.82-16-6.39,2.85-8.84,10.89-5.1,16.47l-8,5.76c-15.27-16.53-10.16-36.45-9.27-56l-4.38,17.18c-8.52-3.15-17.7-15.44-19.71-25.75-2.3-11.8-.53-22.39,9.25-30,13.6-10.56,28-11.18,43.45-1.45C233.13,122,223.41,128,220,136.15l18.19-17.68,1.53,1c1.34,15.14,5.85,29,15.71,40.59l1.24-.55a48.92,48.92,0,0,0-3.24-6.44c-6.16-8.84-8.85-18.84-9.37-29.37a104,104,0,0,1,1-19.32c1.65-11.81,11.63-17.55,23-14.49,7.37,2,12.45,7.16,18.4,11.17.22.15,0,.9.05,1.38v0c-4-.76-8.08-2.59-11.87-2.06-8.71,1.23-14.15,8.3-14.64,17.39-1,18.06,5.33,33.51,17.17,46.85,4.55,5.12,9.42,10,13.75,14.51l-18.56,6.69.31,1.41c19.3-6.4,38.61-11.81,59.15,0-1.15-2-1.51-3.64-2.33-3.92-4.61-1.59-3.2-5.53-2.1-7.7,3.14-6.18,5.83-12.9,12.46-16.61a74.74,74.74,0,0,0,6.75-4.89c-1.43,11.09-.24,20.65,5.53,29.49a56.81,56.81,0,0,1-.06-36.24c4.36-13.22,14.79-19.14,27.21-23.61,1,1.77,1.89,3.4,2.73,5.09,6.49,13,24.1,15.1,32.58,6.11,4.82-5.11,6.78-5.19,10.73,1.11,4.83,7.71,8.49,16.23,9.49,25.32.72,6.53-2.11,12.8-4.93,18.66a61.35,61.35,0,0,1-7.37,11.68c-1.93,2.4-4.88,4-7.61,6.11-1.83-.86-4.63-1.38-6-3.07a7.18,7.18,0,0,1-.73-6.31c3-6.29,1.28-12.23-1.19-18.31,0,3.2.59,6.53-.12,9.57-1.74,7.4-2.52,15.74-6.62,21.69s-11.27,11-18.12,14.25c-12.35,5.86-25.52,6.56-39.28,3.79-6.8-1.37-12.52-3.15-17.74-7.62-3.79-3.25-8.2-5.76-12.34-8.61l.4-1.88,13.88-2.55c-7.5-5.28-23,1.73-25,13.8,2.23-3.09,3.75-5.39,5.48-7.51,1.58-1.94,3.22-3.58,5.12,0,.86,1.62,2.57,2.81,4,4.12C325,217,326.52,227.44,328,238A41.89,41.89,0,0,0,331,249q0-8.74,0-17.47c0-.67,0-1.33,0-2,0-9,1.34-10.29,9.4-7.24,9,3.4,18,3.19,27.14,1.95a10,10,0,0,1,2.77.39l-2.53,4.22,2.93,1.08-.2.72H367c1.48.82,2.27,1,2.38,1.36a37.21,37.21,0,0,1,1.52,6.44c.08.72-1,1.57-1.61,2.36l-2-.64,2.28,4.78,1.21-.42,4.15-13.24Zm26.73,22.34-1.49-7.78,3.37-4.13-.89-.82-5.34,4.16c.62,1.37,1,2.35,1.48,3.25,1,1.75,2,3.46,3,5.19v5.09l3.48-.94.53,1.39-6.41,2.87,7.83,2.23v-8Z" transform="translate(-91 -19)"/><path class="cls-1" d="M204.11,491c3.9,8.48,8,16.88,11.54,25.51,1,2.39.25,5.48.28,8.24,0,3.28.63,6.7-.05,9.82-1.58,7.21-3.36,15.16-9.79,19.17-4,2.49-10.12,2.25-15.25,2a46.22,46.22,0,0,1-24.3-7.56c-14.87-9.88-23.92-21-20.6-40.7,1.69-10,3.53-13.47,10.93-19.48l5.31,3,.49-.6-3.74-4.33,3.59-2.75-.37-.69-5.52,1.79c-3.9-6.32-7.42-13-9.45-21.15-2.32-9.34.44-16.27,5.19-23.21,3.56-5.21,8.44-7.39,15.23-7.7,4.94-.23,8.8,1.52,13,2.67,2.32.63,4.17,1.59,1.88,5.45-6.61,11.11-4.24,22.35,1.8,33.07a65.54,65.54,0,0,0,3.77,5.4l-.14-.14c-2.86,0-5.72-.16-8.58-.1-3.63.08-7.26.3-10.9.47,4.81,1.31,9.45,1.34,14,1.79a95.79,95.79,0,0,1,9.43,1.83Zm-29,17.84c-3.61,1.82-5.06,5-3.95,8.61a30.19,30.19,0,0,0,4.76,9.75c1.46,1.86,4.36,3.07,6.81,3.48,1.21.2,3.83-1.87,4.09-3.24,1.12-6.08.71-12.05-3.8-17-2.35-2.59-4.87-3.72-8.05-1.45Z" transform="translate(-91 -19)"/><path class="cls-1" d="M373.89,317c1,7.73-3.55,13.76-6.73,20a52.56,52.56,0,0,1-9.69,12.77c-4.58,4.62-10.95,4.76-17.1,5.06-14.08.68-27.74-.43-41.15-5.63-10.53-4.09-20-9.93-29.91-15.07-8.06-4.18-12.89-11-18.18-17.5-4.77-5.83-2.58-13.27-.87-19.67,2.08-7.78,6.69-14.95,8.25-22.77,1.45-7.28,5.24-7.77,11-7,1.28,3.65,3.11,6.89,0,11-2.27,3.07.62,10.34,4,13,5.34,4.2,10.1,9.57,16.06,12.47a175.31,175.31,0,0,0,29.83,11.12,122.65,122.65,0,0,0,26.06,3.92c4.06.22,8.67-1.77,12.25-4,1.59-1,2.39-5.47,1.6-7.65-2.52-7-8.68-10.66-14.83-14.14a5,5,0,0,1-.73-.65c4.81.26,10-.7,14,1.11,4.34,2,8.2,6.06,11,10.1,2.28,3.31,6.74,6.17,5.19,11.4a59.28,59.28,0,0,1-5.26,4.76c-11.37,8.12-24,9.73-37.43,7-6.11-1.24-12.18-2.67-18.27-4l-.34,1.53c3.82.82,7.7,1.4,11.44,2.49,12.38,3.62,24.76,5.14,36.77-.84C365.51,323.53,369.57,320,373.89,317Zm-110-22.77c1.22,4.41,7.42,7.43,12.24,11.74l1.3-1.27Z" transform="translate(-91 -19)"/><path class="cls-1" d="M406.61,499.3c4.16-1.79,8.31-3.6,12.48-5.36,10.42-4.38,21.36-6.77,32.57-5.78a138.11,138.11,0,0,1,28,5,42.84,42.84,0,0,1,27.74,24.71c4.58,10.55.57,19.3-5.66,27.59-.48.64-1.56.84-4,2.05,8.62-13.56,4.93-25.2-2.12-36.05-3.49-5.38-9.47-8.06-15.87-9.23C487,506,494.3,509.87,497.33,518c1.75,4.72,4,10,3.33,14.72-1.11,8.13-4.86,15.28-13.09,19.48-8.44,4.3-17.33,5.19-26.75,5.65,11.8-7.78,16.72-18.85,11.48-31.5-4-9.75-12.85-16.4-23.94-18.83,3.19,2.29,6.4,4.56,9.57,6.87,12.23,8.9,15.94,15.83,11.76,29.24-1.35,4.35-5.64,9.33-9.79,11-14.72,5.82-20.8,6.5-36.5,1,7.14-12.36,7.27-25.37,2.32-38.25-1.5-3.91-5.62-7.06-9.07-9.92-2.81-2.33-6.47-3.62-9.61-5.59-.48-.3-.21-1.78-.29-2.71Z" transform="translate(-91 -19)"/><path class="cls-1" d="M334.68,146.59c.47,2.25.77,4.54,1.44,6.73,1.41,4.59.58,6.13-5,7.66.76-7.73-2.49-13.65-8.59-17.85-1.55-1.07-4.53-1.89-5.79-1.11-1.75,1.09-3.76,4-3.42,5.75a47.32,47.32,0,0,0,4.83,13.57c1.78,3.22,5,5.61,8.35,9.13l-2.26,8.58c-7.78,0-15.58,0-23.36-.17-2.23-.05-4.92-.13-6.58-1.33a79.88,79.88,0,0,1-25-28.66c-4.78-9.36-6.46-19-6.29-29.32.22-13.18,8.08-18.3,20.48-15,12.09,3.24,22.92,7.79,31,18,4.83,6.11,10.58,11.48,15.8,17.29.66.74.3,2.34.91,3.18a32,32,0,0,0,3.71,3.71Z" transform="translate(-91 -19)"/><path class="cls-1" d="M246.31,195.26c-4.83,9.48-11.45,17.67-20.87,22.48C217,222,207.67,224.42,198.88,228c-9.73,4-19.41,8.08-28.88,12.64-8.75,4.21-13.69,12.64-20,19.5-7.88,8.54-15.35,17.47-23.6,25.63-2.46,2.43-8.06,4.87-10.27,3.69a15,15,0,0,1-8.15-12.9c-.58-19.62,8.66-33.35,24.81-43.65a102.66,102.66,0,0,1,28.39-12.34c4.72-1.3,9.85-1.16,14.81-1.54,9.36-.72,18.82-.72,28.06-2.15,13.87-2.15,26.69-6.91,36-18.47,1.33-1.66,4.22-2.06,6.4-3Z" transform="translate(-91 -19)"/><path class="cls-1" d="M204.11,491,192,482.89l-4-4,.14.14a56.09,56.09,0,0,0-2.51-6.83c-2.95-5.72-5.12-11.71-5.11-18.13,0-6.87,2.46-13.64,8.53-16.75,7.49-3.84,15.5-1.07,21.43,4.11,9.67,8.44,15.56,19.37,18.73,32.05A136.35,136.35,0,0,1,233,509.21c-.17,9.94-1.57,19.83-7.05,28.25-3.37,5.18-8.41,9.28-12.71,13.87l-1.44-1.2c1.39-2.06,3.27-4,4.09-6.23,2.53-7,2.85-14.27,2.07-21.54A62.92,62.92,0,0,0,208,494.25C207.1,492.91,205.42,492.1,204.11,491Z" transform="translate(-91 -19)"/><path class="cls-1" d="M297.88,49.68c6.45,2.57,13.32-.79,17.1,5.5-10.38,4-17.65,11.68-23.89,20.51-.54.77-1.18,2-1.83,2.07-3.27.18-6,.68-7.08,4.49-.79,2.91-2,5.71-3.22,9.21l-7.66-4.23c3.82-8.65,8.06-16.9,11.08-25.58,2.32-6.66,7-11.16,11.75-15.53,6.55-6,15.13-6.8,23.56-6,8.92.85,17.94,1.84,26.58,4.06,13.34,3.43,26.64,7.37,38.36,15.1a5.89,5.89,0,0,1,.9,8.69c-4.53,4.74-10.14,6.55-16.62,7.13-12.86,1.14-23.45-4.83-34.15-10.32-3.62-1.86-6.07-5.92-9.64-8a151,151,0,0,0-18.4-8.63C303.31,47.62,301.15,48.91,297.88,49.68Z" transform="translate(-91 -19)"/><path class="cls-1" d="M406.76,499.15c-5-.41-10-.63-14.92-1.29-8.1-1.08-16.15-2.46-24.23-3.69-.57-.09-1.28.28-1.75.06-3.51-1.62-10.92-15.3-10.63-19.51l-.14.15c1.32-.48,3-.59,3.88-1.48,5.26-5.34,10.95-10.43,15.31-16.45s7.33-13,10.31-18.53c5,8.25,10.64,17.16,15.92,26.27,5.48,9.43,13.63,16.22,22.29,23.11l-4.82.4v.6l5,.29-16.4,10.21Z" transform="translate(-91 -19)"/><path class="cls-1" d="M418.53,118.53c-1.64,3.8-3.36,9.75-6.59,14.74-4.06,6.28-10.35,7.67-17.13,3.35-4.6-2.93-8.17-7.79-11.49-12.31-1.83-2.48-2.33-6-3.19-9.12-1.81-6.55,6.89-22.63,13.52-23.87,6.27-1.17,11.06,1.48,16.12,6.15C415.75,103,416.77,109.35,418.53,118.53Z" transform="translate(-91 -19)"/><path class="cls-1" d="M141.85,451.37c.15,14.06,5.69,26.84,13.86,35.08-13.74,11.52-15.33,26-9.51,43.36-2.63-3.34-4.88-5.38-6.12-7.92-3.57-7.3-7-14.71-10-22.25-4.21-10.48-4.21-21.49-1.93-32.3A20.78,20.78,0,0,1,141.85,451.37Z" transform="translate(-91 -19)"/><path class="cls-1" d="M334.83,146.74c-2-4.47-3.3-9.57-6.29-13.29-5.83-7.27-11.58-14.81-19.93-19.65-1.81-1.05-3-3.12-4.75-4.37-3.6-2.59-4.28-6.16-1.61-9.07,1.57-1.71,5.23-2.4,7.81-2.13a39.4,39.4,0,0,1,20.78,8.68c7.93,6.31,15.83,12.4,21.14,21.46,3.41,5.82,2.68,10.12-1.8,14.26-2.12-3.06-4-6.66-6.74-9.41-1.53-1.54-4.46-1.67-6.76-2.43-.55,1.85-1.51,3.67-1.59,5.54-.31,7.54,5.36,12,9.21,17.57l-4.64,1.75-5-9Z" transform="translate(-91 -19)"/><path class="cls-1" d="M286.5,102.48l2.53-.94c-4.39-3.52-6.61-7.54-6.27-13.35.25-4.22,2.2-5.92,5.37-6,7-.18,13.79.55,19.17,6.26,2.7,2.87,6.4,4.79,10,7.41-4.7-.48-9.39-2.27-13-1-4.23,1.53-6.81,6-4.87,11.7l-12.95-4.14A.12.12,0,0,0,286.5,102.48Z" transform="translate(-91 -19)"/><path class="cls-1" d="M339.06,293c4.33,2.43,7.33,4,10.26,5.77,4.4,2.61,7.93,6,7.65,11.54-.08,1.6-1.87,4.35-3,4.4-2.41.12-5.84,3-7.39-.77C343.88,307.4,341.77,300.63,339.06,293Z" transform="translate(-91 -19)"/><path d="M373.89,317c-4.33,3-8.38,6.48-13,8.79-12,6-24.4,4.46-36.77.84-3.74-1.09-7.62-1.68-11.44-2.49l.34-1.53c6.09,1.34,12.16,2.77,18.27,4,13.41,2.72,26.06,1.11,37.43-7a59.28,59.28,0,0,0,5.26-4.76Z" transform="translate(-91 -19)"/><path class="cls-1" d="M274.74,289.6c-.93-3.74-4.79-6.85-2.83-11.21l1.59-.36,2.72,11.23Z" transform="translate(-91 -19)"/><path d="M323.15,509.77c10-1.82,18.36,2.84,24.59,9,10.63,10.48,12.16,21.76,7.19,35.51C358.26,529.36,347.7,514.63,323.15,509.77Z" transform="translate(-91 -19)"/><path d="M370.07,511.4c11.88-3,32.32,10,33.11,21.86-4.55-4.72-8.72-10.71-14.37-14.46S376.24,513.72,370.07,511.4Z" transform="translate(-91 -19)"/><path d="M350.07,493.27l-35.84,9.14C317.39,498.23,338.3,492.35,350.07,493.27Z" transform="translate(-91 -19)"/><path d="M403.44,552.52V536.34c2.18,5.93,2.46,11-.07,16.1Z" transform="translate(-91 -19)"/><path d="M370.19,224.77l4.73,6.54-4.15,13.24-1.21.42-2.28-4.78,2,.64c.57-.79,1.68-1.64,1.61-2.36a37.21,37.21,0,0,0-1.52-6.44c-.11-.37-.9-.54-2.38-1.36h3.53l.2-.72-2.93-1.08,2.53-4.22Z" transform="translate(-91 -19)"/><path d="M396.91,247.12l5.57,2.52v8l-7.83-2.23,6.41-2.87-.53-1.39-3.48.94V247Z" transform="translate(-91 -19)"/><path d="M397.06,247c-1-1.73-2.05-3.44-3-5.19-.5-.9-.86-1.88-1.48-3.25l5.34-4.16.89.82-3.37,4.13,1.49,7.78Z" transform="translate(-91 -19)"/><path d="M174.95,509c3.18-2.27,5.7-1.13,8.05,1.45,4.51,5,4.92,10.93,3.8,17-.25,1.36-2.88,3.44-4.09,3.24-2.44-.41-5.35-1.62-6.81-3.48a30.19,30.19,0,0,1-4.76-9.75c-1.11-3.65.34-6.79,3.94-8.61-2.28,6.52-1.46,12.55,3.25,17.7a6.4,6.4,0,0,0,4.47,2.14c1.09-.09,2.56-2,2.92-3.4C187.36,519.09,182.74,509.77,174.95,509Z" transform="translate(-91 -19)"/><path d="M188,478.92l4,4a95.79,95.79,0,0,0-9.43-1.83c-4.6-.45-9.24-.48-14-1.79,3.63-.16,7.26-.39,10.9-.47C182.23,478.75,185.09,478.87,188,478.92Z" transform="translate(-91 -19)"/><path d="M263.86,294.28l13.54,10.47L276.1,306C271.28,301.7,265.08,298.69,263.86,294.28Z" transform="translate(-91 -19)"/><path class="cls-1" d="M174.95,509c7.79.73,12.41,10.05,10.78,16.3-.35,1.36-1.83,3.3-2.92,3.4a6.4,6.4,0,0,1-4.47-2.14c-4.71-5.15-5.53-11.18-3.25-17.7Z" transform="translate(-91 -19)"/></svg>